<svg width="93.188" xmlns="http://www.w3.org/2000/svg" height="93.03" id="screenshot-2cb83338-012c-8020-8006-32e95749b739" viewBox="0 0 93.188 93.03" xmlns:xlink="http://www.w3.org/1999/xlink" fill="none" version="1.1"><g id="shape-2cb83338-012c-8020-8006-32e95749b739" rx="0" ry="0"><g id="shape-2cb83338-012c-8020-8006-32e9400dbe9f" rx="0" ry="0"><g id="shape-2cb83338-012c-8020-8006-32e8938b338d"><g class="fills" id="fills-2cb83338-012c-8020-8006-32e8938b338d"><path d="M75.740,10.290C76.611,10.871,77.482,11.452,78.379,12.050C87.265,20.468,92.820,31.735,93.181,43.927C93.348,57.052,90.714,67.663,81.773,77.668C81.282,78.263,80.791,78.858,80.285,79.471C74.164,86.317,64.626,92.163,55.342,92.947C37.528,93.521,25.845,91.357,12.486,78.906C3.314,69.393,0.013,57.664,0.000,44.784C0.214,33.586,4.357,24.918,11.379,16.324C11.893,15.684,12.408,15.043,12.938,14.384C29.381,-3.976,56.985,-4.111,75.740,10.290ZZM14.038,19.058C6.014,29.699,3.433,39.209,4.339,52.527C6.592,65.725,13.109,75.769,24.020,83.529C33.592,89.278,44.691,91.105,55.627,88.730C66.082,85.860,75.651,80.835,81.773,71.634C88.346,60.033,90.617,48.997,88.349,35.738C87.666,33.494,86.840,31.498,85.796,29.398C85.189,28.163,85.189,28.163,84.570,26.903C78.782,16.275,69.752,8.978,58.137,5.518C41.519,1.747,25.421,5.920,14.038,19.058ZZ" style="fill: rgb(255, 255, 255);"/></g></g><g id="shape-2cb83338-012c-8020-8006-32e932cbbde0" rx="0" ry="0"><g id="shape-2cb83338-012c-8020-8006-32e8938c98cf"><g class="fills" id="fills-2cb83338-012c-8020-8006-32e8938c98cf"><path d="M31.491,25.375C33.817,25.564,33.817,25.564,36.520,26.381C38.596,28.959,39.446,30.773,39.914,34.049C39.472,36.848,38.707,37.723,36.520,39.454C37.827,44.414,39.690,47.218,43.308,50.830C44.153,51.697,44.998,52.565,45.869,53.458C48.921,55.800,50.797,56.438,54.621,56.550C55.285,55.886,55.949,55.222,56.632,54.539C60.442,54.207,63.640,54.066,66.689,56.550C67.694,59.441,67.694,59.441,67.694,62.584C65.843,64.946,64.336,66.274,61.661,67.612C53.685,68.566,47.924,67.506,41.548,62.584C34.544,56.462,26.626,49.097,25.147,39.438C24.870,34.641,25.270,32.031,28.474,28.329C29.459,27.324,30.458,26.331,31.491,25.375ZZ" style="fill: rgb(255, 255, 255);"/></g></g><g id="shape-2cb83338-012c-8020-8006-32e8938d1d74"><g class="fills" id="fills-2cb83338-012c-8020-8006-32e8938d1d74"><path d="M45.570,28.392C51.637,28.662,55.945,29.245,60.655,33.420C63.722,37.153,65.987,40.548,65.997,45.488C65.894,46.483,65.790,47.479,65.683,48.505C64.356,48.173,63.028,47.841,61.661,47.499C61.412,46.441,61.163,45.383,60.906,44.294C59.784,40.531,58.572,38.156,55.627,35.431C52.350,33.855,49.009,32.584,45.570,31.409C45.570,30.413,45.570,29.418,45.570,28.392ZZ" style="fill: rgb(255, 255, 255);"/></g></g><g id="shape-2cb83338-012c-8020-8006-32e8938dbf26"><g class="fills" id="fills-2cb83338-012c-8020-8006-32e8938dbf26"><path d="M46.576,35.431C51.535,35.869,54.237,37.909,57.638,41.465C58.518,45.299,58.518,45.299,58.644,48.505C57.316,48.505,55.989,48.505,54.621,48.505C54.279,47.354,54.279,47.354,53.930,46.179C52.326,42.895,50.801,42.069,47.582,40.460C46.918,40.128,46.254,39.796,45.570,39.454C45.902,38.126,46.234,36.799,46.576,35.431ZZ" style="fill: rgb(255, 255, 255);"/></g></g></g></g></g></svg>