<svg width="161.369" xmlns="http://www.w3.org/2000/svg" height="180" id="screenshot-9cb78f69-99ab-8025-8006-2351ea4df400" viewBox="0 0 161.369 180" xmlns:xlink="http://www.w3.org/1999/xlink" fill="none" version="1.1"><g id="shape-9cb78f69-99ab-8025-8006-2351ea4df400" rx="0" ry="0"><g id="shape-9cb78f69-99ab-8025-8006-2351699c4141"><g class="fills" id="fills-9cb78f69-99ab-8025-8006-2351699c4141"><path d="M15.494,28.924C16.092,28.922,16.690,28.921,17.307,28.919C19.280,28.916,21.253,28.925,23.226,28.934C24.597,28.935,25.967,28.935,27.338,28.935C30.208,28.936,33.077,28.943,35.946,28.953C39.632,28.967,43.318,28.970,47.004,28.969C49.833,28.970,52.661,28.974,55.489,28.980C56.849,28.982,58.209,28.984,59.569,28.984C61.463,28.986,63.358,28.993,65.253,29.002C65.819,29.001,66.386,29.001,66.969,29.001C70.840,29.026,70.840,29.026,71.729,29.915C71.829,32.309,71.829,32.309,71.729,34.702C70.201,36.230,67.420,35.599,65.399,35.600C64.821,35.601,64.242,35.603,63.646,35.604C62.385,35.608,61.125,35.609,59.864,35.610C57.187,35.612,54.509,35.629,51.831,35.646C46.841,35.676,41.851,35.701,36.860,35.699C33.393,35.699,29.927,35.717,26.461,35.749C25.139,35.757,23.816,35.758,22.494,35.752C20.643,35.744,18.794,35.761,16.943,35.784C16.396,35.776,15.849,35.768,15.286,35.759C12.651,35.817,11.265,36.170,9.167,37.792C7.322,41.452,7.454,44.747,7.474,48.794C7.466,49.651,7.458,50.507,7.449,51.389C7.426,54.217,7.425,57.044,7.424,59.871C7.412,61.833,7.398,63.795,7.384,65.756C7.349,70.917,7.333,76.077,7.321,81.238C7.305,86.505,7.272,91.772,7.240,97.039C7.180,107.372,7.139,117.705,7.112,128.037C7.587,128.032,8.061,128.027,8.550,128.021C13.480,127.968,18.410,127.932,23.341,127.906C25.182,127.894,27.022,127.878,28.863,127.857C31.507,127.828,34.150,127.814,36.794,127.804C37.619,127.791,38.444,127.779,39.294,127.766C40.061,127.766,40.827,127.766,41.617,127.766C42.292,127.760,42.967,127.755,43.662,127.750C45.804,128.104,46.535,128.685,47.797,130.431C47.461,133.958,47.461,133.958,46.201,135.217C44.977,135.291,43.749,135.311,42.523,135.308C41.740,135.308,40.958,135.308,40.151,135.308C39.300,135.303,38.449,135.299,37.573,135.295C36.273,135.293,36.273,135.293,34.947,135.292C32.167,135.287,29.387,135.277,26.607,135.267C24.727,135.263,22.848,135.259,20.968,135.256C16.350,135.247,11.731,135.234,7.112,135.217C7.205,136.496,7.308,137.775,7.414,139.053C7.471,139.765,7.527,140.477,7.584,141.211C8.027,143.906,9.132,145.334,11.101,147.183C13.420,148.343,15.448,148.090,18.040,148.098C18.596,148.101,19.151,148.104,19.724,148.107C21.595,148.116,23.466,148.119,25.337,148.122C26.674,148.127,28.012,148.132,29.350,148.138C32.991,148.152,36.632,148.160,40.273,148.167C42.546,148.171,44.820,148.176,47.094,148.181C54.204,148.196,61.314,148.207,68.424,148.214C76.638,148.222,84.852,148.243,93.066,148.275C99.410,148.299,105.755,148.311,112.100,148.314C115.891,148.316,119.683,148.323,123.474,148.343C127.041,148.361,130.607,148.365,134.174,148.357C135.483,148.356,136.792,148.361,138.101,148.372C139.889,148.386,141.675,148.381,143.462,148.370C144.963,148.373,144.963,148.373,146.493,148.376C149.586,147.909,150.896,146.966,153.099,144.790C154.070,142.848,154.151,141.265,154.345,139.106C154.412,138.380,154.479,137.654,154.548,136.906C154.596,136.349,154.644,135.791,154.694,135.217C153.853,135.221,153.011,135.225,152.144,135.230C149.032,135.244,145.921,135.253,142.809,135.261C141.460,135.265,140.111,135.270,138.763,135.277C136.828,135.287,134.894,135.292,132.959,135.295C132.049,135.301,132.049,135.301,131.121,135.308C129.671,135.308,128.222,135.267,126.773,135.217C125.976,134.419,125.976,134.419,125.876,132.026C125.976,129.633,125.976,129.633,126.773,128.835C128.842,128.765,130.890,128.743,132.959,128.757C133.578,128.758,134.196,128.760,134.834,128.761C136.817,128.765,138.800,128.775,140.784,128.785C142.125,128.789,143.467,128.793,144.808,128.796C148.104,128.805,151.399,128.819,154.694,128.835C154.691,128.319,154.687,127.803,154.684,127.271C154.648,121.914,154.624,116.557,154.607,111.200C154.599,109.198,154.588,107.197,154.574,105.196C154.555,102.325,154.546,99.454,154.538,96.583C154.530,95.684,154.522,94.784,154.514,93.858C154.513,93.028,154.513,92.197,154.513,91.342C154.510,90.608,154.506,89.875,154.502,89.119C154.694,87.353,154.694,87.353,156.290,85.757C159.924,86.200,159.924,86.200,161.076,87.353C161.164,89.113,161.195,90.877,161.205,92.640C161.209,93.192,161.213,93.745,161.217,94.315C161.228,96.152,161.234,97.989,161.238,99.827C161.243,101.102,161.247,102.377,161.252,103.652C161.260,106.331,161.265,109.011,161.268,111.690C161.272,115.117,161.291,118.544,161.314,121.972C161.329,124.608,161.333,127.245,161.334,129.882C161.337,131.145,161.343,132.408,161.354,133.671C161.367,135.443,161.366,137.215,161.361,138.987C161.365,140.498,161.365,140.498,161.369,142.039C160.995,145.553,159.911,148.259,157.486,150.860C153.553,153.851,151.532,155.361,146.545,155.342C145.523,155.342,144.501,155.342,143.448,155.341C142.332,155.333,141.217,155.325,140.101,155.316C138.960,155.313,137.819,155.311,136.677,155.310C133.675,155.304,130.674,155.288,127.672,155.270C124.608,155.254,121.544,155.247,118.480,155.239C112.469,155.221,106.458,155.194,100.448,155.161C101.050,157.095,101.662,159.025,102.280,160.954C102.449,161.499,102.617,162.044,102.791,162.606C104.000,166.340,105.223,168.894,108.447,171.168C110.788,172.276,113.115,172.803,115.670,173.172C117.200,173.509,117.200,173.509,118.796,175.104C118.353,178.738,118.353,178.738,117.200,179.891C114.922,179.971,112.664,179.999,110.385,179.994C109.671,179.995,108.956,179.997,108.220,179.998C105.845,180.002,103.471,179.999,101.096,179.997C99.454,179.997,97.811,179.998,96.169,179.999C92.722,180.000,89.275,179.998,85.828,179.995C81.398,179.990,76.969,179.993,72.540,179.997C69.147,180.000,65.754,179.999,62.361,179.997C60.727,179.997,59.094,179.998,57.460,179.999C55.181,180.001,52.902,179.998,50.623,179.994C49.941,179.995,49.259,179.997,48.556,179.999C43.899,179.982,43.899,179.982,43.011,179.093C42.811,176.750,42.811,176.750,43.011,174.306C45.394,172.717,47.222,172.242,50.006,171.720C53.029,170.693,55.800,169.401,57.334,166.467C57.929,164.772,58.417,163.082,58.866,161.343C59.034,160.749,59.203,160.154,59.377,159.542C59.787,158.086,60.176,156.624,60.561,155.161C59.638,155.174,59.638,155.174,58.696,155.188C52.875,155.268,47.054,155.328,41.233,155.367C38.241,155.388,35.249,155.416,32.257,155.462C29.366,155.505,26.474,155.529,23.583,155.539C22.484,155.546,21.384,155.561,20.285,155.582C14.687,155.688,9.979,155.765,5.220,152.576C0.201,147.152,0.260,142.226,0.279,135.096C0.265,133.523,0.265,133.523,0.251,131.918C0.226,129.053,0.222,126.189,0.223,123.324C0.222,120.927,0.212,118.530,0.203,116.134C0.181,110.477,0.177,104.821,0.183,99.164C0.189,93.339,0.162,87.516,0.120,81.691C0.085,76.680,0.071,71.668,0.075,66.656C0.077,63.668,0.070,60.680,0.042,57.691C0.012,54.357,0.027,51.025,0.046,47.690C0.031,46.707,0.016,45.725,0.000,44.712C0.075,39.103,0.798,35.926,4.805,31.892C8.289,29.170,11.164,28.889,15.494,28.924ZZ" style="fill: rgb(159, 92, 57);"/></g></g><g id="shape-9cb78f69-99ab-8025-8006-2351699de32c"><g class="fills" id="fills-9cb78f69-99ab-8025-8006-2351699de32c"><path d="M97.257,28.320C100.762,32.589,102.565,37.810,104.636,42.879C105.185,44.196,105.185,44.196,105.745,45.540C108.425,52.032,108.425,52.032,108.425,53.848C109.116,53.765,109.807,53.683,110.519,53.598C114.235,53.942,115.356,55.255,117.998,57.836C119.269,60.377,119.225,63.055,118.796,65.814C118.220,66.455,117.644,67.097,117.051,67.758C116.574,68.433,116.097,69.107,115.605,69.802C115.837,71.366,115.837,71.366,116.502,73.037C116.734,73.675,116.966,74.313,117.205,74.971C118.765,78.924,120.480,82.808,122.228,86.681C123.756,90.187,124.944,93.021,124.380,96.926C122.685,98.870,122.685,98.870,120.391,100.117C117.849,100.067,117.849,100.067,115.605,99.319C115.078,98.529,114.552,97.739,114.009,96.926C111.697,96.442,111.697,96.442,108.949,96.343C107.911,96.278,106.872,96.214,105.803,96.147C104.683,96.090,103.562,96.034,102.442,95.978C101.310,95.916,100.178,95.853,99.046,95.789C92.986,95.462,86.921,95.167,80.853,95.081C80.305,95.067,79.757,95.053,79.192,95.038C75.617,95.043,73.204,95.930,70.134,97.723C72.389,101.903,75.516,105.175,78.744,108.614C81.677,111.893,82.706,114.047,82.898,118.465C81.578,119.279,80.246,120.073,78.909,120.858C78.136,121.318,77.362,121.779,76.566,122.254C73.506,123.502,72.475,123.508,69.336,122.453C67.182,120.462,65.437,118.194,63.652,115.872C63.168,115.262,62.683,114.652,62.184,114.024C60.218,111.544,58.299,109.085,56.522,106.464C55.076,104.681,55.076,104.681,52.739,104.626C51.931,104.701,51.123,104.776,50.290,104.853C46.037,105.040,43.892,104.651,40.617,101.712C40.222,101.251,39.828,100.791,39.421,100.316C38.190,99.068,38.190,99.068,35.931,99.369C32.751,99.305,31.689,98.304,29.449,96.128C28.175,93.581,28.241,90.915,28.651,88.150C30.147,86.156,30.147,86.156,31.842,84.959C32.369,84.959,32.895,84.959,33.438,84.959C33.355,84.285,33.273,83.610,33.188,82.915C33.523,79.234,34.785,77.066,37.426,74.589C41.737,71.765,46.540,69.966,51.331,68.132C52.102,67.832,52.873,67.531,53.668,67.222C55.206,66.628,56.751,66.051,58.303,65.493C63.752,63.399,66.603,60.810,70.134,56.241C70.995,55.283,71.867,54.335,72.751,53.399C73.173,52.948,73.595,52.497,74.029,52.032C74.455,51.578,74.881,51.124,75.319,50.657C78.609,47.133,81.863,43.591,84.998,39.928C86.089,38.690,86.089,38.690,87.379,37.503C88.734,36.202,88.734,36.202,89.280,33.505C90.604,28.870,92.311,27.411,97.257,28.320ZZ" style="fill: rgb(159, 92, 57);"/></g></g><g id="shape-9cb78f69-99ab-8025-8006-2351699ef947"><g class="fills" id="fills-9cb78f69-99ab-8025-8006-2351699ef947"><path d="M66.943,62.623C67.469,62.886,67.996,63.149,68.538,63.420C68.928,64.880,69.309,66.343,69.649,67.815C71.325,74.683,73.403,82.205,77.313,88.150C80.323,89.786,82.048,89.984,85.434,89.808C87.684,89.746,87.684,89.746,89.186,90.930C89.480,91.329,89.774,91.728,90.077,92.139C89.551,92.929,89.024,93.719,88.482,94.532C86.245,94.778,84.141,94.905,81.900,94.931C77.334,94.986,74.173,95.305,70.134,97.723C72.389,101.903,75.516,105.175,78.744,108.614C81.677,111.893,82.706,114.047,82.898,118.465C81.578,119.279,80.246,120.073,78.909,120.858C78.136,121.318,77.362,121.779,76.566,122.254C73.506,123.502,72.475,123.508,69.336,122.453C67.182,120.462,65.437,118.194,63.652,115.872C63.168,115.262,62.683,114.652,62.184,114.024C60.218,111.544,58.299,109.085,56.522,106.464C55.076,104.681,55.076,104.681,52.739,104.626C51.931,104.701,51.123,104.776,50.290,104.853C46.037,105.040,43.892,104.651,40.617,101.712C40.222,101.251,39.828,100.791,39.421,100.316C38.190,99.068,38.190,99.068,35.931,99.369C32.751,99.305,31.689,98.304,29.449,96.128C28.175,93.581,28.241,90.915,28.651,88.150C30.147,86.156,30.147,86.156,31.842,84.959C32.369,84.959,32.895,84.959,33.438,84.959C33.355,84.285,33.273,83.610,33.188,82.915C33.523,79.237,34.779,77.057,37.426,74.589C40.473,72.650,43.688,71.232,46.999,69.802C47.557,69.555,48.114,69.307,48.689,69.052C50.480,68.259,52.278,67.482,54.079,66.711C54.933,66.339,54.933,66.339,55.803,65.960C59.170,64.563,61.655,64.119,65.347,64.218C65.874,63.692,66.400,63.165,66.943,62.623ZZ" style="fill: rgb(159, 92, 57);"/></g></g><g id="shape-9cb78f69-99ab-8025-8006-2351699fb67e"><g class="fills" id="fills-9cb78f69-99ab-8025-8006-2351699fb67e"><path d="M90.875,41.881C91.401,41.881,91.928,41.881,92.470,41.881C94.685,47.302,96.898,52.723,99.112,58.144C99.864,59.985,100.616,61.827,101.368,63.668C102.453,66.326,103.539,68.983,104.624,71.641C105.122,72.862,105.122,72.862,105.631,74.107C106.262,75.653,106.892,77.200,107.521,78.747C108.134,80.255,108.751,81.763,109.371,83.269C109.664,83.986,109.957,84.704,110.258,85.443C110.520,86.081,110.782,86.718,111.052,87.375C111.616,88.948,111.616,88.948,111.616,90.544C104.072,90.673,96.600,90.267,89.080,89.746C87.932,89.669,86.785,89.592,85.637,89.515C82.862,89.330,80.088,89.140,77.313,88.948C76.551,87.235,75.789,85.522,75.028,83.808C74.458,82.523,73.885,81.239,73.310,79.956C72.537,78.222,71.783,76.481,71.031,74.738C70.766,74.151,70.501,73.563,70.227,72.957C68.426,68.732,68.426,68.732,68.903,66.509C70.718,64.307,72.606,62.197,74.571,60.130C75.438,59.205,76.304,58.279,77.170,57.353C77.599,56.896,78.028,56.439,78.470,55.968C82.172,52.007,85.837,48.007,89.230,43.776C89.773,43.151,90.316,42.526,90.875,41.881ZZ" style="fill: rgb(236, 234, 230);"/></g></g><g id="shape-9cb78f69-99ab-8025-8006-235169a0a3fe"><g class="fills" id="fills-9cb78f69-99ab-8025-8006-235169a0a3fe"><path d="M15.494,28.924C16.092,28.922,16.690,28.921,17.307,28.919C19.280,28.916,21.253,28.925,23.226,28.934C24.597,28.935,25.967,28.935,27.338,28.935C30.208,28.936,33.077,28.943,35.946,28.953C39.632,28.967,43.318,28.970,47.004,28.969C49.833,28.970,52.661,28.974,55.489,28.980C56.849,28.982,58.209,28.984,59.569,28.984C61.463,28.986,63.358,28.993,65.253,29.002C65.819,29.001,66.386,29.001,66.969,29.001C70.840,29.026,70.840,29.026,71.729,29.915C71.829,32.309,71.829,32.309,71.729,34.702C70.201,36.230,67.420,35.599,65.399,35.600C64.821,35.601,64.242,35.603,63.646,35.604C62.385,35.608,61.125,35.609,59.864,35.610C57.187,35.612,54.509,35.629,51.831,35.646C46.841,35.676,41.851,35.701,36.860,35.699C33.393,35.699,29.927,35.717,26.461,35.749C25.139,35.757,23.816,35.758,22.494,35.752C20.643,35.744,18.794,35.761,16.943,35.784C16.396,35.776,15.849,35.768,15.286,35.759C12.595,35.818,11.269,36.160,9.166,37.873C7.454,41.162,7.464,43.840,7.500,47.499C7.494,48.218,7.488,48.937,7.483,49.678C7.467,52.049,7.474,54.421,7.480,56.792C7.472,58.442,7.462,60.092,7.451,61.742C7.426,66.083,7.417,70.424,7.414,74.765C7.407,81.717,7.379,88.668,7.340,95.619C7.330,98.048,7.331,100.476,7.333,102.905C7.327,104.392,7.322,105.879,7.316,107.366C7.319,108.042,7.322,108.718,7.326,109.415C7.287,115.071,7.287,115.071,5.517,117.667C4.990,117.404,4.464,117.140,3.921,116.869C3.131,117.659,3.131,117.659,2.326,118.465C1.799,118.201,1.273,117.938,0.730,117.667C0.601,107.272,0.502,96.877,0.441,86.482C0.412,81.654,0.372,76.827,0.309,72.000C0.248,67.340,0.215,62.680,0.200,58.019C0.190,56.243,0.170,54.467,0.140,52.691C0.099,50.199,0.094,47.708,0.096,45.216C0.066,44.120,0.066,44.120,0.035,43.002C0.091,38.059,1.408,35.554,4.804,31.979C8.223,29.113,11.148,28.889,15.494,28.924ZZ" style="fill: rgb(159, 92, 57);"/></g></g><g id="shape-9cb78f69-99ab-8025-8006-235169a138de"><g class="fills" id="fills-9cb78f69-99ab-8025-8006-235169a138de"><path d="M131.709,0.000C135.461,0.492,136.015,1.369,138.283,4.177C140.686,7.638,142.439,11.401,144.224,15.207C144.621,16.017,145.018,16.827,145.427,17.661C145.801,18.448,146.175,19.235,146.561,20.046C147.067,21.108,147.067,21.108,147.583,22.192C148.416,24.636,148.498,26.552,148.312,29.118C147.003,31.501,145.182,33.475,142.728,34.702C139.464,35.073,138.248,34.914,135.499,33.007C134.725,32.513,133.952,32.019,133.155,31.511C130.997,32.025,129.523,32.900,127.621,34.004C125.306,34.986,123.682,35.007,121.189,34.702C119.035,33.266,117.566,32.242,116.403,29.915C115.851,24.737,117.511,21.091,119.693,16.453C119.996,15.778,120.298,15.102,120.610,14.406C126.880,0.758,126.880,0.758,131.709,0.000ZZ" style="fill: rgb(159, 92, 57);"/></g></g><g id="shape-9cb78f69-99ab-8025-8006-235169a1537a"><g class="fills" id="fills-9cb78f69-99ab-8025-8006-235169a1537a"><path d="M66.943,155.161C75.893,155.161,84.844,155.161,94.066,155.161C95.911,162.091,95.911,162.091,96.476,164.253C96.632,164.826,96.788,165.399,96.948,165.989C97.103,166.570,97.258,167.151,97.417,167.749C98.156,169.980,98.156,169.980,100.448,173.509C87.548,173.509,74.649,173.509,61.359,173.509C62.675,170.876,63.991,168.244,65.347,165.531C65.874,162.109,66.400,158.687,66.943,155.161ZZ" style="fill: rgb(236, 234, 230);"/></g></g><g id="shape-9cb78f69-99ab-8025-8006-235169a1e1e1"><g class="fills" id="fills-9cb78f69-99ab-8025-8006-235169a1e1e1"><path d="M132.557,2.742C137.927,4.817,140.385,13.150,142.628,18.099C142.960,18.798,143.291,19.496,143.632,20.216C144.095,21.233,144.095,21.233,144.567,22.271C144.986,23.182,144.986,23.182,145.414,24.110C146.037,26.351,145.811,27.709,145.121,29.915C143.526,31.511,143.526,31.511,140.834,31.760C137.873,31.505,136.847,31.130,134.751,29.118C135.121,27.389,135.497,26.014,136.396,24.481C137.873,21.034,137.312,17.482,136.346,13.960C135.183,13.917,134.020,13.886,132.856,13.861C131.884,13.833,131.884,13.833,130.893,13.805C128.996,13.790,128.996,13.790,127.571,15.556C126.938,20.198,127.255,23.635,129.964,27.522C129.167,29.915,129.167,29.915,126.773,31.511C123.931,31.710,123.931,31.710,121.189,31.511C119.594,29.915,119.594,29.915,119.338,27.020C119.436,23.351,120.541,20.491,122.087,17.201C122.337,16.648,122.588,16.096,122.846,15.526C128.738,2.848,128.738,2.848,132.557,2.742ZZ" style="fill: rgb(236, 234, 230);"/></g></g><g id="shape-9cb78f69-99ab-8025-8006-235169a27a90"><g class="fills" id="fills-9cb78f69-99ab-8025-8006-235169a27a90"><path d="M134.751,13.163C136.429,14.393,137.017,15.302,137.942,17.151C138.311,22.136,138.311,22.136,136.745,24.680C136.350,25.091,135.955,25.503,135.548,25.927C135.285,25.400,135.022,24.874,134.751,24.331C134.224,24.331,133.698,24.331,133.155,24.331C133.155,24.858,133.155,25.384,133.155,25.927C132.629,25.927,132.102,25.927,131.560,25.927C131.297,26.980,131.033,28.033,130.762,29.118C127.994,25.724,126.651,23.984,126.574,19.595C126.553,18.896,126.533,18.198,126.512,17.479C126.773,15.556,126.773,15.556,127.808,14.126C130.073,12.520,132.077,12.876,134.751,13.163ZZ" style="fill: rgb(159, 92, 57);"/></g></g><g id="shape-9cb78f69-99ab-8025-8006-235169a2ada8"><g class="fills" id="fills-9cb78f69-99ab-8025-8006-235169a2ada8"><path d="M7.910,128.037C13.206,127.977,18.501,127.935,23.798,127.906C25.600,127.894,27.402,127.878,29.204,127.857C31.792,127.828,34.380,127.814,36.968,127.804C37.776,127.791,38.584,127.779,39.416,127.766C40.542,127.766,40.542,127.766,41.690,127.766C42.351,127.760,43.012,127.755,43.693,127.750C45.814,128.106,46.543,128.704,47.797,130.431C47.461,133.958,47.461,133.958,46.201,135.217C44.490,135.287,42.776,135.302,41.063,135.295C40.022,135.292,38.981,135.290,37.908,135.287C36.800,135.281,35.692,135.274,34.584,135.267C33.473,135.263,32.363,135.259,31.252,135.256C28.523,135.247,25.795,135.233,23.067,135.217C23.067,134.954,23.067,134.691,23.067,134.419C28.142,133.897,33.121,133.525,38.224,133.622C38.224,133.095,38.224,132.569,38.224,132.026C38.224,131.236,38.224,130.447,38.224,129.633C37.434,129.896,36.645,130.159,35.831,130.431C35.831,129.904,35.831,129.378,35.831,128.835C26.617,128.835,17.403,128.835,7.910,128.835C7.910,128.572,7.910,128.309,7.910,128.037ZZ" style="fill: rgb(159, 92, 57);"/></g></g><g id="shape-9cb78f69-99ab-8025-8006-235169a2dee6"><g class="fills" id="fills-9cb78f69-99ab-8025-8006-235169a2dee6"><path d="M135.548,5.185C137.399,5.339,137.399,5.339,139.537,5.983C140.796,7.682,140.796,7.682,141.846,9.906C142.229,10.710,142.612,11.514,143.007,12.342C143.392,13.188,143.777,14.035,144.174,14.908C144.775,16.155,144.775,16.155,145.388,17.427C147.303,21.525,148.651,24.516,148.312,29.118C147.003,31.501,145.182,33.475,142.728,34.702C141.133,34.734,139.537,34.736,137.942,34.702C138.205,33.649,138.468,32.596,138.739,31.511C140.582,30.984,142.425,30.458,144.324,29.915C145.278,26.597,144.976,24.909,143.510,21.810C143.155,21.046,142.800,20.281,142.434,19.493C142.054,18.704,141.674,17.915,141.282,17.102C140.726,15.913,140.726,15.913,140.159,14.701C138.661,11.509,137.134,8.334,135.548,5.185ZZ" style="fill: rgb(159, 92, 57);"/></g></g><g id="shape-9cb78f69-99ab-8025-8006-235169a37b32"><g class="fills" id="fills-9cb78f69-99ab-8025-8006-235169a37b32"><path d="M28.651,88.150C28.914,88.150,29.178,88.150,29.449,88.150C29.449,89.730,29.449,91.309,29.449,92.937C32.477,92.937,33.939,92.537,36.629,91.341C37.418,92.131,38.208,92.921,39.022,93.735C38.232,94.129,38.232,94.129,37.426,94.532C37.163,95.322,36.900,96.112,36.629,96.926C37.418,97.189,38.208,97.452,39.022,97.723C38.759,98.250,38.495,98.776,38.224,99.319C35.165,99.603,33.794,99.556,31.194,97.823C28.694,95.395,28.694,95.395,28.573,92.980C28.599,91.370,28.625,89.760,28.651,88.150ZZ" style="fill: rgb(159, 92, 57);"/></g></g><g id="shape-9cb78f69-99ab-8025-8006-235169a38f92"><g class="fills" id="fills-9cb78f69-99ab-8025-8006-235169a38f92"><path d="M134.751,23.533C135.158,25.161,135.556,26.766,135.848,28.420C136.279,30.224,136.279,30.224,138.739,31.511C138.476,32.301,138.213,33.090,137.942,33.904C137.053,33.509,137.053,33.509,136.147,33.106C132.841,31.904,130.118,32.363,126.773,33.106C126.973,31.610,126.973,31.610,127.571,29.915C128.621,29.357,129.685,28.825,130.762,28.320C131.025,27.530,131.289,26.740,131.560,25.927C132.086,25.927,132.613,25.927,133.155,25.927C133.155,25.400,133.155,24.874,133.155,24.331C133.682,24.068,134.208,23.805,134.751,23.533ZZ" style="fill: rgb(159, 92, 57);"/></g></g><g id="shape-9cb78f69-99ab-8025-8006-235169a3c6e5"><g class="fills" id="fills-9cb78f69-99ab-8025-8006-235169a3c6e5"><path d="M130.762,15.556C133.103,15.849,133.845,16.245,135.548,17.949C135.290,20.988,134.866,22.563,133.155,25.129C130.064,23.733,130.064,23.733,129.167,21.938C129.017,19.545,129.017,19.545,129.167,17.151C129.693,16.625,130.220,16.098,130.762,15.556ZZ" style="fill: rgb(236, 234, 230);"/></g></g><g id="shape-9cb78f69-99ab-8025-8006-235169a41ef2"><g class="fills" id="fills-9cb78f69-99ab-8025-8006-235169a41ef2"><path d="M116.403,24.331C116.929,24.858,117.456,25.384,117.998,25.927C118.525,25.400,119.051,24.874,119.594,24.331C119.709,25.236,119.824,26.141,119.943,27.073C120.082,29.762,120.082,29.762,121.189,30.713C123.046,31.006,124.908,31.273,126.773,31.511C126.773,32.037,126.773,32.564,126.773,33.106C127.300,33.370,127.826,33.633,128.369,33.904C121.986,35.183,121.986,35.183,118.796,33.256C116.079,30.285,116.329,28.290,116.403,24.331ZZ" style="fill: rgb(159, 92, 57);"/></g></g><g id="shape-9cb78f69-99ab-8025-8006-235169a47d21"><g class="fills" id="fills-9cb78f69-99ab-8025-8006-235169a47d21"><path d="M69.336,57.038C70.598,59.439,71.282,61.535,71.729,64.218C70.676,65.008,69.623,65.798,68.538,66.611C68.012,65.558,67.485,64.505,66.943,63.420C66.416,63.947,65.890,64.473,65.347,65.016C64.294,64.489,63.241,63.963,62.156,63.420C62.946,63.157,63.736,62.894,64.550,62.623C65.871,61.322,65.871,61.322,67.092,59.781C67.726,59.014,67.726,59.014,68.373,58.232C68.691,57.838,69.009,57.444,69.336,57.038ZZ" style="fill: rgb(159, 92, 57);"/></g></g><g id="shape-9cb78f69-99ab-8025-8006-235169a4844f"><g class="fills" id="fills-9cb78f69-99ab-8025-8006-235169a4844f"><path d="M122.785,13.163C123.826,16.291,123.088,17.932,121.667,20.888C121.394,21.432,121.121,21.976,120.840,22.536C120.570,23.093,120.300,23.649,120.022,24.222C119.356,25.592,118.678,26.957,117.998,28.320C117.735,28.320,117.472,28.320,117.200,28.320C116.677,22.664,118.117,18.736,121.189,13.960C121.716,13.697,122.242,13.434,122.785,13.163ZZ" style="fill: rgb(159, 92, 57);"/></g></g><g id="shape-9cb78f69-99ab-8025-8006-235169a48450"><g class="fills" id="fills-9cb78f69-99ab-8025-8006-235169a48450"><path d="M129.167,0.399C134.198,0.012,134.198,0.012,136.745,1.795C137.942,3.590,137.942,3.590,137.742,5.385C137.545,5.845,137.347,6.306,137.144,6.781C137.144,6.254,137.144,5.728,137.144,5.185C134.325,3.494,131.605,3.165,128.369,2.792C128.632,2.002,128.895,1.213,129.167,0.399ZZ" style="fill: rgb(159, 92, 57);"/></g></g><g id="shape-9cb78f69-99ab-8025-8006-235169a4d24f"><g class="fills" id="fills-9cb78f69-99ab-8025-8006-235169a4d24f"><path d="M128.369,17.949C128.632,17.949,128.895,17.949,129.167,17.949C129.380,18.821,129.594,19.693,129.815,20.592C130.664,23.228,131.039,24.291,133.155,25.927C132.629,25.927,132.102,25.927,131.560,25.927C131.297,26.980,131.033,28.033,130.762,29.118C128.965,26.973,127.665,25.411,126.773,22.736C127.300,22.736,127.826,22.736,128.369,22.736C128.369,21.156,128.369,19.577,128.369,17.949ZZ" style="fill: rgb(159, 92, 57);"/></g></g><g id="shape-9cb78f69-99ab-8025-8006-235169a539cf"><g class="fills" id="fills-9cb78f69-99ab-8025-8006-235169a539cf"><path d="M144.324,29.915C144.850,30.705,145.377,31.495,145.919,32.309C143.884,34.187,142.959,34.688,140.136,34.851C139.412,34.802,138.688,34.753,137.942,34.702C138.205,33.649,138.468,32.596,138.739,31.511C140.582,30.984,142.425,30.458,144.324,29.915ZZ" style="fill: rgb(159, 92, 57);"/></g></g><g id="shape-9cb78f69-99ab-8025-8006-235169a56561"><g class="fills" id="fills-9cb78f69-99ab-8025-8006-235169a56561"><path d="M136.346,17.151C136.873,17.151,137.399,17.151,137.942,17.151C138.236,22.257,138.236,22.257,136.745,24.680C136.350,25.091,135.955,25.503,135.548,25.927C135.285,25.400,135.022,24.874,134.751,24.331C134.224,24.068,133.698,23.805,133.155,23.533C134.208,21.427,135.261,19.321,136.346,17.151ZZ" style="fill: rgb(159, 92, 57);"/></g></g><g id="shape-9cb78f69-99ab-8025-8006-235169a56562"><g class="fills" id="fills-9cb78f69-99ab-8025-8006-235169a56562"><path d="M44.606,128.835C45.659,129.362,46.712,129.888,47.797,130.431C47.534,131.747,47.270,133.063,46.999,134.419C46.209,134.156,45.420,133.893,44.606,133.622C44.606,133.095,44.606,132.569,44.606,132.026C44.079,131.763,43.553,131.500,43.011,131.228C43.537,130.439,44.064,129.649,44.606,128.835ZZ" style="fill: rgb(159, 92, 57);"/></g></g><g id="shape-9cb78f69-99ab-8025-8006-235169a5a76d"><g class="fills" id="fills-9cb78f69-99ab-8025-8006-235169a5a76d"><path d="M60.561,65.016C60.298,66.332,60.034,67.648,59.763,69.005C58.710,69.005,57.657,69.005,56.572,69.005C56.572,68.478,56.572,67.952,56.572,67.409C56.046,67.146,55.519,66.883,54.977,66.611C58.766,65.016,58.766,65.016,60.561,65.016ZZ" style="fill: rgb(159, 92, 57);"/></g></g><g id="shape-9cb78f69-99ab-8025-8006-235169a5a76e"><g class="fills" id="fills-9cb78f69-99ab-8025-8006-235169a5a76e"><path d="M72.527,55.443C73.053,56.496,73.580,57.549,74.122,58.634C72.806,59.160,71.490,59.687,70.134,60.229C69.870,59.703,69.607,59.176,69.336,58.634C70.389,57.581,71.442,56.528,72.527,55.443ZZ" style="fill: rgb(159, 92, 57);"/></g></g><g id="shape-9cb78f69-99ab-8025-8006-235169a5d4b3"><g class="fills" id="fills-9cb78f69-99ab-8025-8006-235169a5d4b3"><path d="M127.571,1.994C128.624,2.521,129.677,3.047,130.762,3.590C129.183,5.959,129.183,5.959,127.571,8.376C127.045,7.587,126.518,6.797,125.976,5.983C126.674,3.839,126.674,3.839,127.571,1.994ZZ" style="fill: rgb(159, 92, 57);"/></g></g><g id="shape-9cb78f69-99ab-8025-8006-235169a5d4b4"><g class="fills" id="fills-9cb78f69-99ab-8025-8006-235169a5d4b4"><path d="M153.099,144.790C153.362,145.317,153.625,145.843,153.897,146.386C152.607,148.014,151.275,149.609,149.908,151.172C149.381,151.172,148.855,151.172,148.312,151.172C148.591,148.575,149.127,147.966,151.154,146.186C151.796,145.725,152.438,145.265,153.099,144.790ZZ" style="fill: rgb(159, 92, 57);"/></g></g><g id="shape-9cb78f69-99ab-8025-8006-235169a62700"><g class="fills" id="fills-9cb78f69-99ab-8025-8006-235169a62700"><path d="M28.651,88.150C28.914,88.150,29.178,88.150,29.449,88.150C29.449,89.730,29.449,91.309,29.449,92.937C30.239,93.200,31.028,93.463,31.842,93.735C31.316,94.788,30.789,95.841,30.247,96.926C28.109,93.720,28.527,91.946,28.651,88.150ZZ" style="fill: rgb(159, 92, 57);"/></g></g><g id="shape-9cb78f69-99ab-8025-8006-235169a6468b"><g class="fills" id="fills-9cb78f69-99ab-8025-8006-235169a6468b"><path d="M147.515,24.331C147.778,24.331,148.041,24.331,148.312,24.331C148.512,28.818,148.512,28.818,146.717,31.511C146.190,31.511,145.664,31.511,145.121,31.511C145.385,30.195,145.648,28.878,145.919,27.522C146.446,27.522,146.972,27.522,147.515,27.522C147.515,26.469,147.515,25.416,147.515,24.331ZZ" style="fill: rgb(159, 92, 57);"/></g></g><g id="shape-9cb78f69-99ab-8025-8006-235169a6468c"><g class="fills" id="fills-9cb78f69-99ab-8025-8006-235169a6468c"><path d="M117.998,175.104C118.497,176.600,118.497,176.600,118.796,178.295C118.269,178.822,117.743,179.348,117.200,179.891C115.505,179.591,115.505,179.591,114.009,179.093C115.326,177.777,116.642,176.460,117.998,175.104ZZ" style="fill: rgb(159, 92, 57);"/></g></g><g id="shape-9cb78f69-99ab-8025-8006-235169a6b719"><g class="fills" id="fills-9cb78f69-99ab-8025-8006-235169a6b719"><path d="M144.324,29.915C144.850,30.705,145.377,31.495,145.919,32.309C144.340,33.098,144.340,33.098,142.728,33.904C142.728,33.377,142.728,32.851,142.728,32.309C141.412,32.309,140.096,32.309,138.739,32.309C138.739,32.045,138.739,31.782,138.739,31.511C140.582,30.984,142.425,30.458,144.324,29.915ZZ" style="fill: rgb(159, 92, 57);"/></g></g><g id="shape-9cb78f69-99ab-8025-8006-235169a6b71a"><g class="fills" id="fills-9cb78f69-99ab-8025-8006-235169a6b71a"><path d="M135.548,5.185C137.523,5.580,137.523,5.580,139.537,5.983C139.800,7.036,140.064,8.089,140.335,9.174C139.545,9.437,138.755,9.701,137.942,9.972C137.152,8.392,136.362,6.813,135.548,5.185ZZ" style="fill: rgb(159, 92, 57);"/></g></g></g></svg>