<svg width="142.198" xmlns="http://www.w3.org/2000/svg" height="180" id="screenshot-9cb78f69-99ab-8025-8006-2353aba65026" viewBox="0 0 142.198 180" xmlns:xlink="http://www.w3.org/1999/xlink" fill="none" version="1.1"><g id="shape-9cb78f69-99ab-8025-8006-2353aba65026" rx="0" ry="0"><g id="shape-9cb78f69-99ab-8025-8006-235293d00983"><g class="fills" id="fills-9cb78f69-99ab-8025-8006-235293d00983"><path d="M13.014,96.750C17.034,97.088,20.829,98.379,24.655,99.597C25.247,99.781,25.839,99.964,26.449,100.153C30.802,101.524,30.802,101.524,31.721,102.444C31.754,103.799,31.756,105.156,31.721,106.511C36.493,107.542,42.299,108.186,47.082,106.917C48.909,106.486,50.511,106.406,52.386,106.403C53.394,106.401,53.394,106.401,54.422,106.400C55.117,106.403,55.812,106.406,56.529,106.409C57.224,106.406,57.919,106.403,58.635,106.400C59.307,106.401,59.979,106.402,60.672,106.403C61.281,106.404,61.891,106.405,62.519,106.406C64.280,106.512,65.805,106.887,67.509,107.324C70.515,107.430,72.781,107.465,75.643,106.511C77.670,106.410,79.664,106.356,81.692,106.358C82.562,106.358,82.562,106.358,83.449,106.357C87.834,106.400,91.981,106.950,96.291,107.772C101.141,108.606,105.796,108.128,110.617,107.324C110.349,105.714,110.080,104.103,109.804,102.444C113.794,100.803,117.797,99.191,121.852,97.716C122.411,97.510,122.970,97.303,123.545,97.090C125.664,96.670,127.233,97.099,129.325,97.564C131.326,103.569,133.328,109.574,135.330,115.579C135.546,116.227,135.762,116.875,135.985,117.543C136.415,118.835,136.845,120.128,137.273,121.422C138.206,124.237,139.155,127.041,140.157,129.833C140.462,130.688,140.766,131.543,141.080,132.424C141.346,133.145,141.611,133.866,141.885,134.609C142.413,136.935,142.249,138.409,141.525,140.672C139.895,141.695,139.895,141.695,137.814,142.400C137.081,142.657,136.348,142.914,135.593,143.179C134.867,143.425,134.140,143.672,133.391,143.925C132.205,144.415,131.018,144.906,129.833,145.400C126.209,146.587,126.209,146.587,123.631,145.552C123.094,144.747,122.557,143.942,122.004,143.112C116.764,143.887,112.276,146.312,108.177,149.619C107.289,151.590,107.035,153.154,106.830,155.294C106.551,156.939,106.551,156.939,104.568,159.024C102.484,160.193,102.484,160.193,100.044,160.193C99.968,161.300,99.968,161.300,99.891,162.429C99.230,165.073,99.230,165.073,97.400,167.005C95.008,168.418,93.817,168.637,91.097,168.326C91.030,168.796,90.962,169.266,90.893,169.750C90.050,172.280,89.178,173.222,87.030,174.833C85.207,175.325,83.385,175.662,81.527,175.996C79.472,176.411,79.472,176.411,77.168,178.188C74.171,180.143,72.657,180.269,69.136,179.713C67.599,178.703,66.196,177.585,64.758,176.441C64.324,176.179,63.890,175.917,63.442,175.647C61.362,176.207,61.362,176.207,59.375,177.273C56.088,177.158,54.294,176.947,51.699,174.884C50.428,173.207,50.428,173.207,50.428,171.580C49.707,171.546,48.986,171.513,48.243,171.478C44.525,170.496,43.648,169.009,41.481,165.886C41.481,165.349,41.481,164.813,41.481,164.260C40.878,164.192,40.274,164.125,39.651,164.056C36.936,163.316,35.907,162.374,34.161,160.193C34.044,159.622,33.926,159.052,33.805,158.464C33.579,157.709,33.579,157.709,33.348,156.939C32.002,156.373,30.645,155.832,29.281,155.313C27.134,153.242,26.854,152.179,26.536,149.162C26.320,146.256,26.320,146.256,24.096,144.790C21.968,143.773,21.968,143.773,19.521,143.925C18.984,144.731,18.447,145.536,17.894,146.366C13.738,145.896,10.154,144.968,6.202,143.519C4.708,142.978,4.708,142.978,3.184,142.426C0.813,141.485,0.813,141.485,0.000,140.672C0.360,135.197,1.541,130.273,3.149,125.043C3.378,124.281,3.608,123.519,3.845,122.734C4.328,121.137,4.814,119.541,5.303,117.946C6.053,115.498,6.790,113.047,7.525,110.595C7.997,109.040,8.470,107.484,8.944,105.929C9.164,105.196,9.384,104.462,9.612,103.706C9.820,103.030,10.029,102.353,10.245,101.656C10.426,101.061,10.608,100.465,10.796,99.851C11.387,98.377,11.387,98.377,13.014,96.750ZZ" style="fill: rgb(159, 92, 57);"/></g></g><g id="shape-9cb78f69-99ab-8025-8006-235293d0c18b"><g class="fills" id="fills-9cb78f69-99ab-8025-8006-235293d0c18b"><path d="M91.195,46.576C97.332,52.088,101.341,57.616,102.007,66.021C102.487,76.288,100.300,84.600,93.610,92.652C86.451,99.637,78.812,102.005,69.111,101.982C60.640,101.769,54.074,98.756,47.966,92.881C40.987,84.948,39.231,76.541,39.493,66.275C39.837,61.079,41.826,57.089,44.735,52.829C45.097,52.282,45.458,51.734,45.831,51.170C49.773,45.953,56.632,41.177,63.102,39.990C73.810,39.038,82.537,39.580,91.195,46.576ZZ" style="fill: rgb(236, 234, 230);"/></g></g><g id="shape-9cb78f69-99ab-8025-8006-235293d1a8f1"><g class="fills" id="fills-9cb78f69-99ab-8025-8006-235293d1a8f1"><path d="M30.094,110.578C30.649,110.693,31.204,110.808,31.775,110.927C34.734,111.502,37.617,111.509,40.617,111.493C41.179,111.496,41.740,111.499,42.319,111.502C45.661,111.496,48.769,111.139,52.055,110.578C54.019,110.485,55.986,110.436,57.952,110.425C58.946,110.414,59.940,110.402,60.964,110.390C63.442,110.578,63.442,110.578,65.069,112.204C64.696,112.483,64.323,112.762,63.939,113.049C62.231,114.325,60.524,115.603,58.816,116.881C57.936,117.539,57.936,117.539,57.039,118.209C50.494,122.392,50.494,122.392,46.362,128.472C46.471,131.524,46.788,133.537,48.395,136.148C50.943,137.740,52.666,138.069,55.652,137.956C60.531,136.706,64.609,132.860,68.230,129.479C70.816,127.963,72.701,128.132,75.643,128.472C77.819,129.673,77.819,129.673,79.964,131.420C80.791,132.080,81.618,132.739,82.471,133.419C82.928,133.791,83.386,134.164,83.858,134.548C85.610,135.959,87.390,137.330,89.174,138.699C101.260,147.986,101.260,147.986,103.297,150.432C103.053,153.930,103.053,153.930,101.670,155.313C98.376,155.649,96.832,155.102,94.267,153.057C93.668,152.587,93.068,152.117,92.450,151.633C91.836,151.136,91.221,150.639,90.588,150.127C89.358,149.155,88.127,148.183,86.896,147.211C86.356,146.776,85.815,146.342,85.258,145.894C82.557,143.788,81.633,143.112,78.083,143.112C79.359,146.776,82.217,148.548,85.200,150.788C86.196,151.549,87.191,152.310,88.186,153.073C88.670,153.442,89.154,153.811,89.653,154.191C91.808,155.865,93.892,157.618,95.977,159.379C95.708,160.721,95.440,162.063,95.163,163.446C93.394,164.031,93.394,164.031,91.097,164.260C89.028,163.116,89.028,163.116,86.877,161.413C86.102,160.817,85.328,160.222,84.529,159.608C83.744,158.996,82.959,158.384,82.150,157.753C80.667,156.657,79.176,155.571,77.676,154.499C77.030,154.029,76.384,153.560,75.719,153.076C73.997,151.851,73.997,151.851,71.576,152.059C71.887,154.081,72.172,155.099,73.650,156.552C74.181,156.934,74.712,157.315,75.258,157.708C75.835,158.131,76.413,158.553,77.007,158.989C77.917,159.635,77.917,159.635,78.845,160.294C80.040,161.160,81.233,162.026,82.426,162.893C82.958,163.273,83.489,163.653,84.037,164.044C85.403,165.073,85.403,165.073,87.030,166.700C86.594,169.575,86.594,169.575,85.403,170.766C83.221,171.206,81.814,171.048,79.889,169.914C78.216,168.698,76.595,167.435,74.982,166.140C73.877,165.270,72.770,164.403,71.662,163.538C71.116,163.113,70.571,162.687,70.009,162.248C67.807,160.626,65.500,159.231,63.134,157.862C61.283,156.567,60.516,154.791,59.375,152.872C58.570,152.621,57.765,152.369,56.935,152.110C54.495,151.246,54.495,151.246,53.123,148.806C52.770,148.000,52.418,147.195,52.055,146.366C49.816,144.610,49.816,144.610,47.582,144.485C45.548,143.925,45.548,143.925,44.176,141.892C43.823,141.221,43.471,140.550,43.108,139.859C40.512,138.560,37.793,138.621,34.975,139.045C33.597,140.102,32.238,141.184,30.908,142.299C27.189,142.299,24.240,140.112,21.147,138.232C22.786,132.044,24.589,125.927,26.536,119.830C26.790,119.023,27.043,118.217,27.305,117.386C27.548,116.622,27.791,115.858,28.042,115.070C28.370,114.038,28.370,114.038,28.705,112.984C29.281,111.391,29.281,111.391,30.094,110.578ZZ" style="fill: rgb(236, 234, 230);"/></g></g><g id="shape-9cb78f69-99ab-8025-8006-235293d44292"><g class="fills" id="fills-9cb78f69-99ab-8025-8006-235293d44292"><path d="M13.014,96.750C17.034,97.088,20.829,98.379,24.655,99.597C25.247,99.781,25.839,99.964,26.449,100.153C30.802,101.524,30.802,101.524,31.721,102.444C31.754,103.799,31.756,105.156,31.721,106.511C36.493,107.542,42.299,108.186,47.082,106.917C48.909,106.486,50.511,106.406,52.386,106.403C53.394,106.401,53.394,106.401,54.422,106.400C55.117,106.403,55.812,106.406,56.529,106.409C57.224,106.406,57.919,106.403,58.635,106.400C59.307,106.401,59.979,106.402,60.672,106.403C61.281,106.404,61.891,106.405,62.519,106.406C64.280,106.512,65.805,106.887,67.509,107.324C70.515,107.430,72.781,107.465,75.643,106.511C77.670,106.410,79.664,106.356,81.692,106.358C82.562,106.358,82.562,106.358,83.449,106.357C87.834,106.400,91.981,106.950,96.291,107.772C101.141,108.606,105.796,108.128,110.617,107.324C110.349,105.714,110.080,104.103,109.804,102.444C113.794,100.803,117.797,99.191,121.852,97.716C122.411,97.510,122.970,97.303,123.545,97.090C125.664,96.670,127.233,97.099,129.325,97.564C131.326,103.569,133.328,109.574,135.330,115.579C135.546,116.227,135.762,116.875,135.985,117.543C136.415,118.835,136.845,120.128,137.273,121.422C138.206,124.237,139.155,127.041,140.157,129.833C140.462,130.688,140.766,131.543,141.080,132.424C141.346,133.145,141.611,133.866,141.885,134.609C142.414,136.938,142.257,138.408,141.525,140.672C139.781,141.752,139.781,141.752,137.611,142.502C136.901,142.758,136.191,143.014,135.460,143.277C134.436,143.598,134.436,143.598,133.391,143.925C132.818,144.106,132.244,144.286,131.654,144.472C130.138,144.739,130.138,144.739,127.698,143.925C128.054,142.095,128.054,142.095,129.325,139.859C131.050,138.929,131.050,138.929,133.064,138.092C133.732,137.810,134.400,137.529,135.088,137.238C135.602,137.029,136.116,136.820,136.645,136.605C136.382,135.806,136.120,135.006,135.849,134.183C134.867,131.187,133.889,128.190,132.912,125.192C132.490,123.900,132.067,122.609,131.643,121.318C131.030,119.452,130.422,117.584,129.814,115.715C129.627,115.148,129.439,114.581,129.246,113.997C127.928,109.923,126.937,105.823,126.071,101.631C125.454,101.865,124.836,102.100,124.200,102.342C122.987,102.795,122.987,102.795,121.750,103.257C120.948,103.559,120.146,103.861,119.320,104.172C117.124,104.884,117.124,104.884,114.684,104.884C114.959,105.660,115.235,106.435,115.518,107.235C116.537,110.111,117.546,112.990,118.551,115.870C118.988,117.117,119.428,118.363,119.870,119.607C120.505,121.396,121.130,123.187,121.753,124.980C121.953,125.537,122.153,126.093,122.359,126.667C123.724,130.634,123.724,130.634,122.818,133.352C122.013,133.620,121.207,133.889,120.378,134.165C118.751,133.352,118.751,133.352,117.969,131.419C117.705,130.581,117.441,129.744,117.169,128.881C116.880,127.974,116.592,127.067,116.295,126.132C115.850,124.698,115.850,124.698,115.396,123.236C115.093,122.283,114.790,121.331,114.478,120.349C112.244,113.260,112.244,113.260,112.244,111.391C111.560,111.655,110.877,111.919,110.173,112.192C103.372,114.192,95.845,113.326,89.028,111.766C80.888,110.239,74.075,111.541,67.074,115.940C65.030,117.379,63.036,118.867,61.053,120.389C60.373,120.897,59.693,121.405,58.993,121.928C54.874,124.929,54.874,124.929,51.242,128.472C50.970,130.573,50.970,130.573,51.242,132.538C52.079,133.540,52.079,133.540,53.857,133.596C56.855,133.273,58.273,132.083,60.646,130.251C61.402,129.675,62.158,129.100,62.937,128.507C64.232,127.497,65.514,126.470,66.769,125.412C68.322,124.405,68.322,124.405,71.576,124.405C70.520,129.151,68.440,130.922,64.662,133.606C64.179,133.965,63.696,134.324,63.198,134.694C58.803,137.933,55.889,139.052,50.428,138.232C47.449,136.184,46.562,134.814,45.497,131.369C45.558,127.891,46.584,126.136,48.802,123.591C51.038,121.601,53.407,119.824,55.817,118.050C56.764,117.337,56.764,117.337,57.730,116.610C62.314,113.175,62.314,113.175,64.256,112.204C63.351,111.117,63.351,111.117,61.044,111.283C60.040,111.285,59.037,111.287,58.003,111.289C57.010,111.287,56.017,111.285,54.994,111.283C52.133,111.324,52.133,111.324,49.653,111.798C46.632,112.294,43.669,112.323,40.617,112.306C39.770,112.311,39.770,112.311,38.906,112.316C35.793,112.310,33.181,112.008,30.094,111.391C28.216,117.296,26.337,123.201,24.401,129.285C23.864,129.285,23.327,129.285,22.774,129.285C22.506,129.822,22.237,130.359,21.961,130.912C21.156,131.449,20.350,131.985,19.521,132.538C18.470,129.387,19.166,128.097,20.201,124.964C20.530,123.955,20.859,122.947,21.198,121.908C21.554,120.842,21.910,119.777,22.266,118.711C22.616,117.646,22.965,116.581,23.314,115.515C24.212,112.782,25.117,110.053,26.028,107.324C26.296,106.519,26.564,105.714,26.841,104.884C26.019,104.800,25.197,104.716,24.350,104.630C20.975,104.041,18.534,103.076,15.454,101.631C15.327,102.172,15.200,102.714,15.068,103.272C13.262,110.746,11.048,118.074,8.794,125.421C8.414,126.670,8.033,127.919,7.652,129.167C6.731,132.190,5.806,135.211,4.880,138.232C7.296,139.037,9.712,139.842,12.200,140.672C11.798,142.685,11.798,142.685,11.387,144.739C9.945,144.372,8.505,143.998,7.066,143.620C5.863,143.309,5.863,143.309,4.636,142.991C2.440,142.299,2.440,142.299,0.000,140.672C0.454,135.198,1.537,130.285,3.149,125.043C3.378,124.281,3.608,123.519,3.845,122.734C4.328,121.137,4.814,119.541,5.303,117.946C6.053,115.498,6.790,113.047,7.525,110.595C7.997,109.040,8.470,107.484,8.944,105.929C9.164,105.196,9.384,104.462,9.612,103.706C9.820,103.030,10.029,102.353,10.245,101.656C10.426,101.061,10.608,100.465,10.796,99.851C11.387,98.377,11.387,98.377,13.014,96.750ZZ" style="fill: rgb(159, 92, 57);"/></g></g><g id="shape-9cb78f69-99ab-8025-8006-235293d72a67"><g class="fills" id="fills-9cb78f69-99ab-8025-8006-235293d72a67"><path d="M90.944,111.391C97.888,112.978,105.275,112.618,112.244,111.391C113.428,114.687,114.601,117.986,115.764,121.290C116.161,122.413,116.561,123.535,116.964,124.655C117.543,126.268,118.112,127.884,118.678,129.501C119.023,130.472,119.368,131.443,119.723,132.444C120.647,136.021,120.647,136.021,119.564,138.232C118.329,139.286,118.329,139.286,116.752,140.180C116.183,140.503,115.613,140.826,115.026,141.160C114.426,141.485,113.827,141.811,113.210,142.146C112.620,142.488,112.030,142.829,111.423,143.180C107.041,145.614,107.041,145.614,104.880,145.343C102.250,144.339,100.218,142.486,98.061,140.723C97.044,139.909,96.026,139.096,95.008,138.283C94.493,137.869,93.978,137.454,93.447,137.028C83.834,128.630,83.834,128.630,72.288,123.998C69.196,124.536,67.568,125.759,65.069,127.658C63.934,128.506,62.799,129.353,61.663,130.200C61.131,130.605,60.600,131.009,60.052,131.426C57.180,133.570,55.659,134.535,52.055,134.165C50.428,132.538,50.428,132.538,50.149,130.588C50.603,127.151,52.710,125.994,55.280,123.855C58.246,121.584,61.250,119.384,64.306,117.237C64.843,116.856,65.380,116.476,65.933,116.083C73.892,110.632,81.435,109.192,90.944,111.391ZZ" style="fill: rgb(236, 234, 230);"/></g></g><g id="shape-9cb78f69-99ab-8025-8006-235293d78666"><g class="fills" id="fills-9cb78f69-99ab-8025-8006-235293d78666"><path d="M91.195,46.576C97.332,52.088,101.341,57.616,102.007,66.021C102.487,76.288,100.300,84.600,93.610,92.652C86.451,99.637,78.812,102.005,69.111,101.982C60.640,101.769,54.074,98.756,47.966,92.881C40.987,84.948,39.231,76.541,39.493,66.275C39.837,61.079,41.826,57.089,44.735,52.829C45.097,52.282,45.458,51.734,45.831,51.170C49.773,45.953,56.632,41.177,63.102,39.990C73.810,39.038,82.537,39.580,91.195,46.576ZZM48.440,55.129C44.018,61.306,43.383,67.373,43.922,74.790C45.252,82.457,49.245,88.390,55.283,93.236C61.505,97.280,68.339,98.522,75.643,97.564C83.599,95.514,89.855,91.070,94.144,84.070C97.653,77.324,99.042,69.653,97.070,62.198C94.464,55.673,89.270,49.551,82.963,46.322C70.015,41.875,57.255,44.228,48.440,55.129ZZ" style="fill: rgb(159, 92, 57);"/></g></g><g id="shape-9cb78f69-99ab-8025-8006-235293d7faf3"><g class="fills" id="fills-9cb78f69-99ab-8025-8006-235293d7faf3"><path d="M15.454,101.631C16.003,101.797,16.553,101.964,17.119,102.136C17.844,102.355,18.570,102.574,19.317,102.800C20.035,103.017,20.752,103.234,21.491,103.458C23.267,103.977,25.044,104.442,26.841,104.884C25.836,109.820,24.542,114.558,22.920,119.324C22.706,119.964,22.492,120.604,22.271,121.263C21.595,123.277,20.914,125.290,20.232,127.302C19.769,128.680,19.306,130.057,18.844,131.434C17.718,134.786,16.587,138.136,15.454,141.485C11.965,140.412,8.475,139.338,4.880,138.232C5.390,133.852,6.391,129.838,7.702,125.634C7.897,124.996,8.093,124.358,8.294,123.701C8.705,122.363,9.118,121.025,9.533,119.688C10.169,117.637,10.799,115.584,11.428,113.531C11.829,112.228,12.231,110.924,12.633,109.621C12.821,109.007,13.010,108.393,13.205,107.760C14.545,103.448,14.545,103.448,15.454,101.631ZZ" style="fill: rgb(236, 234, 230);"/></g></g><g id="shape-9cb78f69-99ab-8025-8006-235293d8b942"><g class="fills" id="fills-9cb78f69-99ab-8025-8006-235293d8b942"><path d="M126.071,101.631C127.435,105.681,128.795,109.731,130.152,113.783C130.613,115.159,131.076,116.535,131.539,117.911C132.207,119.897,132.873,121.884,133.538,123.871C133.743,124.478,133.948,125.085,134.159,125.710C135.449,129.579,136.513,133.451,137.458,137.419C136.173,137.968,134.885,138.508,133.595,139.045C132.878,139.347,132.160,139.649,131.422,139.960C129.325,140.672,129.325,140.672,126.071,140.672C124.446,135.838,122.825,131.002,121.206,126.166C120.655,124.520,120.102,122.874,119.549,121.229C118.756,118.867,117.965,116.505,117.175,114.142C116.926,113.404,116.677,112.665,116.420,111.904C116.192,111.220,115.964,110.536,115.729,109.831C115.527,109.228,115.325,108.625,115.116,108.003C114.684,106.511,114.684,106.511,114.684,104.884C116.276,104.339,117.869,103.797,119.463,103.257C120.350,102.955,121.237,102.653,122.151,102.342C124.444,101.631,124.444,101.631,126.071,101.631ZZ" style="fill: rgb(236, 234, 230);"/></g></g><g id="shape-9cb78f69-99ab-8025-8006-235293d91032"><g class="fills" id="fills-9cb78f69-99ab-8025-8006-235293d91032"><path d="M95.945,0.014C96.492,0.265,97.040,0.515,97.604,0.774C96.903,4.478,94.736,6.378,92.107,8.920C91.634,9.387,91.161,9.855,90.674,10.336C89.160,11.832,87.638,13.318,86.115,14.804C84.127,16.754,82.143,18.708,80.161,20.663C79.446,21.363,79.446,21.363,78.718,22.077C75.730,25.026,72.944,28.052,70.382,31.385C68.660,32.919,67.350,33.167,65.069,33.308C63.114,31.857,61.533,30.492,59.833,28.784C59.165,28.141,59.165,28.141,58.484,27.486C57.590,26.621,56.703,25.749,55.824,24.870C54.920,23.970,54.002,23.085,53.071,22.213C51.874,21.077,50.739,19.876,49.615,18.668C49.717,16.329,49.717,16.329,50.428,14.601C53.224,15.069,54.472,15.942,56.376,18.013C56.865,18.528,57.353,19.043,57.857,19.573C58.872,20.667,59.885,21.765,60.894,22.865C61.383,23.377,61.871,23.890,62.375,24.418C62.814,24.895,63.253,25.371,63.706,25.861C65.027,26.989,65.027,26.989,66.757,26.634C68.943,25.732,70.191,24.381,71.830,22.684C72.479,22.014,73.128,21.344,73.797,20.653C75.300,19.036,76.754,17.401,78.184,15.719C81.196,12.246,84.347,8.911,87.538,5.603C88.326,4.758,88.326,4.758,89.130,3.896C92.991,-0.052,92.991,-0.052,95.945,0.014ZZ" style="fill: rgb(159, 92, 57);"/></g></g><g id="shape-9cb78f69-99ab-8025-8006-235293d95e12"><g class="fills" id="fills-9cb78f69-99ab-8025-8006-235293d95e12"><path d="M56.935,77.230C60.463,77.637,62.450,79.881,65.069,82.110C69.283,83.515,72.676,83.371,76.659,81.449C78.406,80.537,79.637,79.746,81.009,78.323C81.385,77.962,81.762,77.601,82.150,77.230C83.929,77.484,83.929,77.484,85.403,78.043C84.945,80.868,84.095,82.039,81.895,83.838C81.412,84.243,80.929,84.648,80.431,85.065C75.647,88.532,70.843,88.593,65.069,87.803C61.192,86.077,58.475,84.012,56.122,80.483C56.427,78.704,56.427,78.704,56.935,77.230ZZ" style="fill: rgb(159, 92, 57);"/></g></g><g id="shape-9cb78f69-99ab-8025-8006-235293d98996"><g class="fills" id="fills-9cb78f69-99ab-8025-8006-235293d98996"><path d="M55.150,155.506C56.034,155.813,56.034,155.813,56.935,156.126C57.545,157.498,57.545,157.498,57.749,159.379C55.793,162.388,53.461,164.777,50.428,166.700C48.141,166.496,48.141,166.496,46.362,165.886C45.745,164.504,45.745,164.504,45.548,162.633C46.927,160.685,46.927,160.685,48.903,158.719C49.543,158.059,50.183,157.400,50.842,156.720C52.869,155.313,52.869,155.313,55.150,155.506ZZ" style="fill: rgb(236, 234, 230);"/></g></g><g id="shape-9cb78f69-99ab-8025-8006-235293d9c677"><g class="fills" id="fills-9cb78f69-99ab-8025-8006-235293d9c677"><path d="M49.615,149.619C49.884,150.693,50.152,151.766,50.428,152.872C49.152,154.122,47.862,155.356,46.565,156.583C45.848,157.272,45.131,157.961,44.392,158.671C42.295,160.193,42.295,160.193,40.401,160.012C39.041,159.379,39.041,159.379,38.279,157.702C38.228,155.313,38.228,155.313,39.385,153.803C44.718,148.459,44.718,148.459,49.615,149.619ZZ" style="fill: rgb(236, 234, 230);"/></g></g><g id="shape-9cb78f69-99ab-8025-8006-235293da27a9"><g class="fills" id="fills-9cb78f69-99ab-8025-8006-235293da27a9"><path d="M63.258,162.042C63.856,162.237,64.453,162.432,65.069,162.633C65.660,164.044,65.660,164.044,65.882,165.886C64.681,167.627,64.681,167.627,62.934,169.343C62.370,169.918,61.806,170.492,61.225,171.084C59.053,172.622,57.912,172.667,55.309,172.393C54.718,170.582,54.718,170.582,54.495,168.326C55.696,166.477,55.696,166.477,57.444,164.768C58.008,164.191,58.572,163.615,59.153,163.020C61.002,161.819,61.002,161.819,63.258,162.042ZZ" style="fill: rgb(236, 234, 230);"/></g></g><g id="shape-9cb78f69-99ab-8025-8006-235293da87a8"><g class="fills" id="fills-9cb78f69-99ab-8025-8006-235293da87a8"><path d="M38.991,142.350C39.544,142.601,40.098,142.853,40.668,143.112C40.937,144.454,41.205,145.796,41.481,147.179C39.685,148.965,37.895,150.645,35.788,152.059C33.399,151.957,33.399,151.957,31.721,151.246C31.156,149.813,31.156,149.813,30.908,147.992C32.890,144.908,35.223,142.269,38.991,142.350ZZ" style="fill: rgb(236, 234, 230);"/></g></g><g id="shape-9cb78f69-99ab-8025-8006-235293dae91b"><g class="fills" id="fills-9cb78f69-99ab-8025-8006-235293dae91b"><path d="M74.016,39.815C76.531,39.684,78.906,39.974,81.336,40.628C81.873,41.165,82.410,41.702,82.963,42.255C81.781,43.895,81.781,43.895,79.710,45.509C77.306,45.804,74.994,45.556,72.593,45.305C71.948,45.252,71.303,45.198,70.639,45.143C69.052,45.009,67.467,44.854,65.882,44.695C65.882,44.427,65.882,44.158,65.882,43.882C66.771,43.815,67.661,43.748,68.577,43.679C69.566,43.477,70.556,43.276,71.576,43.069C71.945,42.498,72.314,41.928,72.694,41.340C73.130,40.837,73.567,40.334,74.016,39.815ZZ" style="fill: rgb(159, 92, 57);"/></g></g><g id="shape-9cb78f69-99ab-8025-8006-235293db3287"><g class="fills" id="fills-9cb78f69-99ab-8025-8006-235293db3287"><path d="M69.136,167.513C72.240,168.778,74.172,170.796,76.456,173.207C74.829,174.833,74.829,174.833,72.084,175.138C69.136,174.833,69.136,174.833,67.153,173.207C66.734,172.670,66.314,172.133,65.882,171.580C66.956,170.238,68.030,168.896,69.136,167.513ZZ" style="fill: rgb(236, 234, 230);"/></g></g><g id="shape-9cb78f69-99ab-8025-8006-235293db3288"><g class="fills" id="fills-9cb78f69-99ab-8025-8006-235293db3288"><path d="M78.896,60.963C80.259,61.195,81.616,61.465,82.963,61.776C82.963,63.923,82.963,66.070,82.963,68.283C81.616,68.594,80.259,68.863,78.896,69.096C78.083,68.283,78.083,68.283,77.975,66.809C77.977,66.221,77.979,65.634,77.981,65.029C77.979,64.442,77.977,63.855,77.975,63.250C78.083,61.776,78.083,61.776,78.896,60.963ZZ" style="fill: rgb(159, 92, 57);"/></g></g><g id="shape-9cb78f69-99ab-8025-8006-235293db42cf"><g class="fills" id="fills-9cb78f69-99ab-8025-8006-235293db42cf"><path d="M59.375,60.963C60.738,61.195,62.095,61.465,63.442,61.776C63.442,63.923,63.442,66.070,63.442,68.283C62.095,68.594,60.738,68.863,59.375,69.096C58.562,68.283,58.562,68.283,58.454,66.809C58.456,66.221,58.458,65.634,58.460,65.029C58.458,64.442,58.456,63.855,58.454,63.250C58.562,61.776,58.562,61.776,59.375,60.963ZZ" style="fill: rgb(159, 92, 57);"/></g></g></g></svg>