<svg width="256.228" xmlns="http://www.w3.org/2000/svg" height="180" id="screenshot-9cb78f69-99ab-8025-8006-2352d6e44646" viewBox="0 0 256.228 180" xmlns:xlink="http://www.w3.org/1999/xlink" fill="none" version="1.1"><g id="shape-9cb78f69-99ab-8025-8006-2352d6e44646" rx="0" ry="0"><g id="shape-9cb78f69-99ab-8025-8006-23527e51dec4"><g class="fills" id="fills-9cb78f69-99ab-8025-8006-23527e51dec4"><path d="M89.200,0.027C89.925,0.019,90.650,0.012,91.397,0.004C92.189,0.009,92.982,0.015,93.798,0.020C94.635,0.016,95.471,0.011,96.333,0.006C99.104,-0.005,101.875,0.002,104.646,0.011C106.568,0.010,108.490,0.007,110.412,0.004C114.442,-0.000,118.473,0.005,122.503,0.018C127.675,0.033,132.847,0.024,138.019,0.008C141.989,-0.001,145.958,0.002,149.928,0.009C151.835,0.010,153.743,0.008,155.650,0.002C158.313,-0.005,160.976,0.006,163.640,0.020C164.432,0.015,165.224,0.010,166.040,0.004C166.765,0.012,167.490,0.019,168.237,0.027C168.867,0.028,169.496,0.029,170.145,0.030C172.368,0.473,173.127,1.170,174.446,3.000C174.785,4.849,174.785,4.849,174.797,7.023C174.808,7.848,174.819,8.673,174.830,9.523C174.829,10.426,174.828,11.329,174.827,12.260C174.840,13.688,174.840,13.688,174.854,15.146C174.880,18.301,174.888,21.455,174.896,24.610C174.911,26.794,174.927,28.979,174.944,31.164C174.982,36.331,175.008,41.497,175.028,46.664C175.054,53.123,175.098,59.583,175.142,66.042C175.218,77.565,175.277,89.088,175.326,100.611C177.433,99.067,179.539,97.523,181.646,95.979C182.238,95.545,182.830,95.112,183.440,94.665C186.610,92.341,189.772,90.007,192.920,87.654C194.126,86.769,195.333,85.885,196.541,85.002C197.157,84.535,197.774,84.068,198.409,83.586C202.769,80.428,202.769,80.428,205.705,80.248C208.847,81.728,211.415,83.729,214.128,85.881C219.367,89.925,224.692,93.774,230.177,97.478C236.009,101.427,241.779,105.447,247.489,109.569C248.165,110.055,248.840,110.542,249.536,111.043C254.245,114.456,254.245,114.456,256.228,116.439C255.899,118.748,255.899,118.748,255.349,120.836C253.898,121.126,252.447,121.417,250.952,121.716C250.956,122.417,250.960,123.118,250.964,123.840C250.999,130.440,251.026,137.039,251.043,143.639C251.052,147.032,251.065,150.425,251.085,153.818C251.104,157.090,251.114,160.363,251.119,163.636C251.122,164.886,251.129,166.137,251.138,167.387C251.151,169.134,251.151,170.882,251.152,172.630C251.156,173.626,251.159,174.621,251.164,175.648C250.952,177.996,250.952,177.996,249.193,179.754C247.595,179.976,247.595,179.976,245.622,179.978C244.501,179.985,244.501,179.985,243.358,179.993C242.536,179.989,241.715,179.986,240.868,179.982C240.005,179.985,239.141,179.988,238.251,179.991C235.386,179.999,232.520,179.994,229.655,179.988C227.670,179.989,225.685,179.991,223.701,179.993C219.537,179.996,215.374,179.992,211.210,179.984C205.864,179.974,200.517,179.979,195.170,179.990C191.071,179.996,186.972,179.994,182.873,179.990C180.901,179.989,178.929,179.990,176.957,179.994C174.205,179.999,171.453,179.992,168.701,179.982C167.469,179.987,167.469,179.987,166.212,179.993C165.465,179.988,164.718,179.983,163.948,179.978C163.297,179.977,162.646,179.976,161.975,179.976C160.376,179.754,160.376,179.754,158.618,177.996C158.618,167.549,158.618,157.102,158.618,146.338C137.724,146.338,116.830,146.338,95.302,146.338C95.302,156.785,95.302,167.232,95.302,177.996C92.974,180.324,91.266,179.970,88.099,179.993C87.335,179.989,86.571,179.986,85.784,179.982C84.578,179.987,84.578,179.987,83.348,179.991C80.683,179.999,78.017,179.994,75.352,179.988C73.505,179.989,71.658,179.991,69.812,179.993C65.938,179.996,62.065,179.992,58.191,179.984C53.217,179.974,48.243,179.979,43.269,179.990C39.455,179.996,35.641,179.994,31.826,179.990C29.992,179.989,28.157,179.990,26.323,179.994C23.763,179.999,21.202,179.992,18.642,179.982C17.878,179.986,17.114,179.989,16.327,179.993C11.083,179.955,11.083,179.955,9.124,177.996C8.879,175.614,8.879,175.614,8.843,172.549C8.826,171.405,8.808,170.260,8.790,169.082C8.780,167.828,8.769,166.574,8.759,165.320C8.743,164.041,8.726,162.762,8.708,161.483C8.663,158.115,8.628,154.746,8.595,151.378C8.560,147.941,8.515,144.505,8.471,141.069C8.386,134.325,8.311,127.581,8.244,120.836C7.703,121.276,7.163,121.716,6.606,122.169C4.727,123.474,4.727,123.474,2.803,123.255C1.209,122.595,1.209,122.595,0.330,121.716C-0.110,119.847,-0.110,119.847,0.330,117.319C2.552,114.473,5.310,112.184,8.028,109.824C12.296,106.113,16.449,102.302,20.555,98.412C24.624,94.559,28.737,90.783,32.969,87.110C35.800,84.634,38.550,82.071,41.307,79.512C42.589,78.329,43.883,77.158,45.178,75.988C45.621,75.558,46.064,75.127,46.520,74.684C48.534,72.819,49.849,71.629,52.642,71.454C55.709,72.866,57.912,74.972,60.292,77.307C61.306,78.273,62.321,79.238,63.336,80.203C64.083,80.921,64.083,80.921,64.846,81.654C66.847,83.561,68.897,85.410,70.955,87.255C71.586,87.823,72.217,88.391,72.868,88.976C74.815,90.705,76.772,92.423,78.732,94.138C79.365,94.691,79.998,95.245,80.651,95.815C81.133,96.237,81.615,96.659,82.112,97.093C82.114,96.611,82.116,96.128,82.118,95.631C82.170,83.896,82.237,72.160,82.319,60.425C82.358,54.750,82.393,49.075,82.416,43.400C82.439,37.926,82.475,32.452,82.519,26.979C82.534,24.887,82.544,22.796,82.549,20.704C82.558,17.782,82.582,14.859,82.611,11.937C82.609,10.631,82.609,10.631,82.607,9.299C82.624,8.106,82.624,8.106,82.641,6.889C82.645,6.198,82.649,5.506,82.653,4.794C83.365,1.019,85.600,0.032,89.200,0.027ZZ" style="fill: rgb(159, 92, 57);"/></g></g><g id="shape-9cb78f69-99ab-8025-8006-23527e53767b"><g class="fills" id="fills-9cb78f69-99ab-8025-8006-23527e53767b"><path d="M90.906,8.276C115.862,8.276,140.819,8.276,166.532,8.276C166.885,32.574,166.885,32.574,166.961,42.943C167.014,50.014,167.075,57.085,167.195,64.156C167.291,69.858,167.343,75.559,167.366,81.261C167.382,83.435,167.414,85.609,167.462,87.782C167.820,104.842,167.820,104.842,164.608,109.640C162.369,111.464,160.378,112.661,157.738,113.801C156.868,114.382,155.997,114.962,155.100,115.560C154.880,118.272,154.880,118.272,155.100,120.836C156.261,121.126,157.422,121.417,158.618,121.716C158.618,127.229,158.618,132.743,158.618,138.424C152.523,138.424,146.429,138.424,140.151,138.424C140.151,125.945,140.151,113.467,140.151,100.611C132.896,100.611,125.641,100.611,118.166,100.611C116.656,103.630,117.071,107.101,117.009,110.428C116.990,111.226,116.972,112.024,116.953,112.845C116.896,115.399,116.844,117.953,116.792,120.506C116.754,122.235,116.716,123.964,116.677,125.693C116.582,129.937,116.495,134.180,116.407,138.424C109.443,138.424,102.478,138.424,95.302,138.424C95.302,132.330,95.302,126.236,95.302,119.957C96.463,120.827,97.624,121.698,98.820,122.595C101.605,122.816,101.605,122.816,104.096,122.595C103.038,116.835,100.544,114.063,96.182,110.284C95.286,109.721,94.391,109.159,93.469,108.579C91.673,107.068,90.989,106.227,90.426,103.928C90.255,101.414,90.253,98.947,90.307,96.427C90.306,95.475,90.305,94.522,90.304,93.540C90.308,90.395,90.349,87.251,90.390,84.105C90.400,81.923,90.408,79.741,90.413,77.559C90.433,71.817,90.485,66.077,90.543,60.336C90.610,53.447,90.631,46.557,90.662,39.668C90.713,29.204,90.814,18.741,90.906,8.276ZZ" style="fill: rgb(236, 234, 230);"/></g></g><g id="shape-9cb78f69-99ab-8025-8006-23527e548b9d"><g class="fills" id="fills-9cb78f69-99ab-8025-8006-23527e548b9d"><path d="M51.334,81.264C54.004,82.466,55.914,83.842,58.025,85.864C58.617,86.426,59.209,86.987,59.818,87.566C60.428,88.153,61.038,88.739,61.666,89.344C65.791,93.284,69.950,97.151,74.260,100.887C76.906,103.200,79.482,105.585,82.057,107.975C82.563,108.444,83.069,108.912,83.591,109.394C88.264,113.720,88.264,113.720,88.373,116.144C88.371,117.188,88.369,118.233,88.367,119.310C88.367,119.884,88.367,120.459,88.368,121.051C88.367,122.959,88.360,124.867,88.353,126.775C88.352,128.095,88.350,129.415,88.350,130.735C88.346,134.214,88.337,137.694,88.328,141.174C88.319,144.722,88.315,148.270,88.310,151.819C88.301,158.786,88.285,165.753,88.267,172.719C81.593,172.719,74.918,172.719,68.042,172.719C67.988,170.455,67.935,168.190,67.880,165.856C67.826,163.668,67.770,161.479,67.714,159.290C67.676,157.767,67.640,156.244,67.604,154.720C67.554,152.533,67.498,150.346,67.441,148.159C67.426,147.475,67.411,146.792,67.396,146.088C67.369,142.581,67.369,142.581,66.283,139.303C62.292,139.281,58.300,139.265,54.309,139.255C52.950,139.250,51.591,139.244,50.232,139.237C48.283,139.226,46.334,139.221,44.384,139.217C43.773,139.213,43.162,139.208,42.533,139.203C41.069,139.203,39.606,139.249,38.143,139.303C36.334,141.112,37.037,144.892,36.985,147.386C36.967,148.107,36.949,148.828,36.930,149.571C36.872,151.882,36.821,154.194,36.769,156.506C36.731,158.069,36.693,159.633,36.654,161.197C36.559,165.037,36.472,168.878,36.384,172.719C29.710,172.719,23.035,172.719,16.159,172.719C15.919,165.090,15.726,157.463,15.612,149.831C15.557,146.286,15.483,142.743,15.362,139.200C15.247,135.773,15.185,132.348,15.157,128.919C15.138,127.619,15.100,126.318,15.043,125.019C14.809,119.513,14.604,114.324,18.471,109.999C21.040,107.496,23.828,105.376,26.711,103.249C27.736,102.338,28.750,101.415,29.741,100.466C45.210,86.260,45.210,86.260,51.334,81.264ZZ" style="fill: rgb(236, 234, 230);"/></g></g><g id="shape-9cb78f69-99ab-8025-8006-23527e560e62"><g class="fills" id="fills-9cb78f69-99ab-8025-8006-23527e560e62"><path d="M205.661,89.938C208.802,91.364,211.387,93.372,214.073,95.499C220.474,100.440,227.029,105.115,233.670,109.726C234.381,110.220,235.092,110.713,235.824,111.221C236.453,111.656,237.082,112.091,237.730,112.539C238.616,113.164,238.616,113.164,239.520,113.801C240.129,114.151,240.738,114.502,241.366,114.863C243.038,116.439,243.038,116.439,243.461,118.860C243.453,119.838,243.445,120.816,243.437,121.824C243.437,122.933,243.436,124.042,243.436,125.185C243.418,126.395,243.400,127.606,243.381,128.816C243.375,130.054,243.370,131.293,243.366,132.531C243.353,135.788,243.318,139.045,243.279,142.302C243.243,145.627,243.227,148.951,243.209,152.276C243.172,158.797,243.110,165.319,243.038,171.840C236.363,171.840,229.689,171.840,222.812,171.840C222.779,169.763,222.746,167.687,222.712,165.547C222.672,163.515,222.627,161.484,222.581,159.452C222.552,158.050,222.527,156.648,222.507,155.246C222.478,153.220,222.432,151.194,222.383,149.169C222.377,148.551,222.371,147.933,222.366,147.297C222.181,140.940,220.376,135.109,215.777,130.509C210.856,126.850,204.929,127.221,199.069,127.871C194.331,129.322,191.722,132.370,189.396,136.665C188.324,140.220,188.318,143.765,188.238,147.451C188.220,148.149,188.202,148.846,188.183,149.565C188.125,151.787,188.073,154.009,188.022,156.231C187.984,157.740,187.945,159.249,187.907,160.759C187.812,164.452,187.725,168.146,187.637,171.840C180.672,171.840,173.708,171.840,166.532,171.840C166.192,164.799,165.919,157.764,165.757,150.717C165.680,147.443,165.575,144.175,165.404,140.905C164.336,119.882,164.336,119.882,167.911,114.278C171.311,110.812,175.257,108.688,179.661,106.731C182.074,105.612,184.088,104.132,186.187,102.510C186.826,102.048,187.464,101.586,188.121,101.110C188.723,100.673,189.325,100.236,189.945,99.786C193.694,97.070,193.694,97.070,195.576,95.723C196.730,94.879,197.866,94.009,198.982,93.115C202.841,90.092,202.841,90.092,205.661,89.938ZZ" style="fill: rgb(236, 234, 230);"/></g></g><g id="shape-9cb78f69-99ab-8025-8006-23527e56ecf3"><g class="fills" id="fills-9cb78f69-99ab-8025-8006-23527e56ecf3"><path d="M207.863,134.027C210.693,135.918,213.359,137.986,214.898,141.062C214.974,143.435,214.999,145.786,214.983,148.159C214.982,148.859,214.981,149.559,214.980,150.280C214.975,152.521,214.964,154.761,214.953,157.001C214.948,158.518,214.944,160.035,214.941,161.552C214.932,165.275,214.914,168.997,214.898,172.719C208.513,172.719,202.129,172.719,195.551,172.719C195.470,168.165,195.400,163.614,195.358,159.060C195.340,157.512,195.316,155.963,195.286,154.415C195.243,152.187,195.223,149.959,195.208,147.729C195.190,147.040,195.171,146.351,195.153,145.641C195.151,142.310,195.403,140.412,197.228,137.585C200.540,134.348,203.195,133.295,207.863,134.027ZZ" style="fill: rgb(236, 234, 230);"/></g></g><g id="shape-9cb78f69-99ab-8025-8006-23527e578a99"><g class="fills" id="fills-9cb78f69-99ab-8025-8006-23527e578a99"><path d="M144.987,58.950C146.006,58.935,146.006,58.935,147.045,58.919C151.980,58.945,151.980,58.945,153.976,60.332C155.498,62.480,155.428,63.919,155.419,66.538C155.419,67.434,155.418,68.330,155.418,69.254C155.404,70.188,155.389,71.123,155.375,72.086C155.379,73.493,155.379,73.493,155.383,74.928C155.335,81.909,155.335,81.909,153.341,83.902C151.636,84.130,151.636,84.130,149.576,84.136C148.836,84.138,148.096,84.141,147.333,84.143C146.559,84.136,145.785,84.129,144.987,84.122C143.826,84.132,143.826,84.132,142.641,84.143C141.901,84.141,141.161,84.138,140.398,84.136C139.718,84.134,139.039,84.132,138.339,84.130C136.633,83.902,136.633,83.902,134.874,82.144C134.474,78.808,134.589,75.443,134.600,72.086C134.585,71.151,134.571,70.217,134.557,69.254C134.556,68.357,134.555,67.461,134.555,66.538C134.551,65.305,134.551,65.305,134.547,64.046C134.874,61.918,134.874,61.918,135.999,60.332C138.671,58.474,141.850,58.903,144.987,58.950ZZ" style="fill: rgb(159, 92, 57);"/></g></g><g id="shape-9cb78f69-99ab-8025-8006-23527e580d2f"><g class="fills" id="fills-9cb78f69-99ab-8025-8006-23527e580d2f"><path d="M112.450,58.950C113.469,58.935,113.469,58.935,114.508,58.919C119.443,58.945,119.443,58.945,121.439,60.332C122.961,62.480,122.891,63.919,122.883,66.538C122.882,67.434,122.881,68.330,122.881,69.254C122.867,70.188,122.852,71.123,122.838,72.086C122.842,73.493,122.842,73.493,122.846,74.928C122.798,81.909,122.798,81.909,120.804,83.902C119.099,84.130,119.099,84.130,117.039,84.136C116.299,84.138,115.559,84.141,114.796,84.143C114.022,84.136,113.248,84.129,112.450,84.122C111.289,84.132,111.289,84.132,110.104,84.143C109.364,84.141,108.624,84.138,107.861,84.136C107.181,84.134,106.502,84.132,105.802,84.130C104.096,83.902,104.096,83.902,102.337,82.144C101.937,78.808,102.052,75.443,102.063,72.086C102.048,71.151,102.034,70.217,102.020,69.254C102.019,68.357,102.019,67.461,102.018,66.538C102.014,65.305,102.014,65.305,102.010,64.046C102.337,61.918,102.337,61.918,103.462,60.332C106.135,58.474,109.314,58.903,112.450,58.950ZZ" style="fill: rgb(159, 92, 57);"/></g></g><g id="shape-9cb78f69-99ab-8025-8006-23527e589da1"><g class="fills" id="fills-9cb78f69-99ab-8025-8006-23527e589da1"><path d="M47.239,103.809C48.339,103.809,48.339,103.809,49.461,103.810C50.224,103.824,50.987,103.839,51.773,103.853C52.918,103.849,52.918,103.849,54.085,103.845C59.775,103.893,59.775,103.893,62.765,105.887C63.093,107.754,63.093,107.754,63.085,110.036C63.084,110.856,63.084,111.676,63.083,112.520C63.069,113.378,63.055,114.236,63.040,115.120C63.045,116.407,63.045,116.407,63.049,117.721C63.000,124.119,63.000,124.119,61.007,126.112C59.140,126.340,59.140,126.340,56.857,126.346C56.038,126.348,55.218,126.351,54.374,126.353C53.516,126.346,52.657,126.339,51.773,126.332C50.915,126.339,50.057,126.346,49.173,126.353C48.353,126.351,47.534,126.348,46.689,126.346C45.936,126.344,45.183,126.342,44.407,126.340C42.540,126.112,42.540,126.112,40.781,124.354C40.387,121.458,40.496,118.534,40.506,115.615C40.492,114.806,40.478,113.997,40.463,113.164C40.463,112.387,40.462,111.610,40.462,110.809C40.459,110.097,40.456,109.386,40.454,108.652C41.146,104.662,43.473,103.794,47.239,103.809ZZ" style="fill: rgb(159, 92, 57);"/></g></g><g id="shape-9cb78f69-99ab-8025-8006-23527e59b15d"><g class="fills" id="fills-9cb78f69-99ab-8025-8006-23527e59b15d"><path d="M141.171,21.233C141.869,21.231,142.566,21.229,143.285,21.226C144.372,21.236,144.372,21.236,145.482,21.247C146.210,21.240,146.938,21.233,147.689,21.226C148.385,21.229,149.082,21.231,149.800,21.233C150.437,21.235,151.074,21.237,151.730,21.239C153.341,21.467,153.341,21.467,155.100,23.225C155.328,25.254,155.328,25.254,155.334,27.760C155.337,29.108,155.337,29.108,155.340,30.484C155.334,31.426,155.327,32.368,155.320,33.338C155.327,34.280,155.333,35.222,155.340,36.193C155.338,37.092,155.336,37.991,155.334,38.917C155.332,39.744,155.330,40.571,155.328,41.423C155.100,43.451,155.100,43.451,153.341,45.210C151.636,45.437,151.636,45.437,149.576,45.443C148.836,45.446,148.096,45.448,147.333,45.450C146.559,45.444,145.785,45.437,144.987,45.430C143.826,45.440,143.826,45.440,142.641,45.450C141.901,45.448,141.161,45.446,140.398,45.443C139.718,45.441,139.039,45.439,138.339,45.437C136.633,45.210,136.633,45.210,134.874,43.451C134.475,40.097,134.589,36.714,134.600,33.338C134.585,32.396,134.571,31.454,134.557,30.484C134.556,29.585,134.555,28.686,134.555,27.760C134.552,26.933,134.550,26.106,134.547,25.254C134.655,24.584,134.763,23.915,134.874,23.225C137.564,21.433,138.137,21.243,141.171,21.233ZZ" style="fill: rgb(159, 92, 57);"/></g></g><g id="shape-9cb78f69-99ab-8025-8006-23527e5a926a"><g class="fills" id="fills-9cb78f69-99ab-8025-8006-23527e5a926a"><path d="M107.638,21.233C108.683,21.230,108.683,21.230,109.749,21.226C110.477,21.233,111.205,21.240,111.956,21.247C112.681,21.240,113.405,21.233,114.152,21.226C114.850,21.229,115.548,21.231,116.267,21.233C117.224,21.236,117.224,21.236,118.200,21.239C119.925,21.467,119.925,21.467,122.563,23.225C122.890,25.254,122.890,25.254,122.883,27.760C122.882,28.659,122.881,29.558,122.881,30.484C122.867,31.426,122.852,32.368,122.838,33.338C122.842,34.751,122.842,34.751,122.846,36.193C122.798,43.216,122.798,43.216,120.804,45.210C119.099,45.437,119.099,45.437,117.039,45.443C116.299,45.446,115.559,45.448,114.796,45.450C114.022,45.444,113.248,45.437,112.450,45.430C111.289,45.440,111.289,45.440,110.104,45.450C109.364,45.448,108.624,45.446,107.861,45.443C107.181,45.441,106.502,45.439,105.802,45.437C104.096,45.210,104.096,45.210,102.337,43.451C102.110,41.423,102.110,41.423,102.104,38.917C102.102,38.018,102.099,37.119,102.097,36.193C102.107,34.780,102.107,34.780,102.118,33.338C102.111,32.396,102.104,31.454,102.097,30.484C102.099,29.585,102.102,28.686,102.104,27.760C102.106,26.933,102.108,26.106,102.110,25.254C102.522,21.578,104.359,21.243,107.638,21.233ZZ" style="fill: rgb(159, 92, 57);"/></g></g><g id="shape-9cb78f69-99ab-8025-8006-23527e5ac9d7"><g class="fills" id="fills-9cb78f69-99ab-8025-8006-23527e5ac9d7"><path d="M44.299,145.459C49.522,145.459,54.746,145.459,60.127,145.459C60.127,154.165,60.127,162.870,60.127,171.840C54.904,171.840,49.680,171.840,44.299,171.840C44.299,163.134,44.299,154.428,44.299,145.459ZZ" style="fill: rgb(236, 234, 230);"/></g></g><g id="shape-9cb78f69-99ab-8025-8006-23527e5b0037"><g class="fills" id="fills-9cb78f69-99ab-8025-8006-23527e5b0037"><path d="M124.322,106.766C127.224,106.766,130.126,106.766,133.116,106.766C133.116,117.213,133.116,127.660,133.116,138.424C130.214,138.424,127.312,138.424,124.322,138.424C124.322,127.977,124.322,117.530,124.322,106.766ZZ" style="fill: rgb(236, 234, 230);"/></g></g><g id="shape-9cb78f69-99ab-8025-8006-23527e5b704c"><g class="fills" id="fills-9cb78f69-99ab-8025-8006-23527e5b704c"><path d="M141.909,28.502C143.941,28.502,145.972,28.502,148.065,28.502C148.065,31.694,148.065,34.886,148.065,38.175C146.034,38.175,144.002,38.175,141.909,38.175C141.909,34.983,141.909,31.791,141.909,28.502ZZ" style="fill: rgb(236, 234, 230);"/></g></g><g id="shape-9cb78f69-99ab-8025-8006-23527e5ba0fc"><g class="fills" id="fills-9cb78f69-99ab-8025-8006-23527e5ba0fc"><path d="M48.695,111.163C51.017,111.163,53.339,111.163,55.730,111.163C55.730,113.775,55.730,116.387,55.730,119.077C53.409,119.077,51.087,119.077,48.695,119.077C48.695,116.466,48.695,113.854,48.695,111.163ZZ" style="fill: rgb(236, 234, 230);"/></g></g><g id="shape-9cb78f69-99ab-8025-8006-23527e5bc68b"><g class="fills" id="fills-9cb78f69-99ab-8025-8006-23527e5bc68b"><path d="M141.909,67.194C143.941,67.194,145.972,67.194,148.065,67.194C148.065,70.096,148.065,72.998,148.065,75.988C146.034,75.988,144.002,75.988,141.909,75.988C141.909,73.086,141.909,70.184,141.909,67.194ZZ" style="fill: rgb(236, 234, 230);"/></g></g><g id="shape-9cb78f69-99ab-8025-8006-23527e5c29cf"><g class="fills" id="fills-9cb78f69-99ab-8025-8006-23527e5c29cf"><path d="M110.252,28.502C111.993,28.502,113.734,28.502,115.528,28.502C115.528,31.694,115.528,34.886,115.528,38.175C113.787,38.175,112.046,38.175,110.252,38.175C110.252,34.983,110.252,31.791,110.252,28.502ZZ" style="fill: rgb(236, 234, 230);"/></g></g><g id="shape-9cb78f69-99ab-8025-8006-23527e5c6454"><g class="fills" id="fills-9cb78f69-99ab-8025-8006-23527e5c6454"><path d="M110.252,67.194C111.993,67.194,113.734,67.194,115.528,67.194C115.528,70.096,115.528,72.998,115.528,75.988C113.787,75.988,112.046,75.988,110.252,75.988C110.252,73.086,110.252,70.184,110.252,67.194ZZ" style="fill: rgb(236, 234, 230);"/></g></g></g></svg>