<svg width="234.463" xmlns="http://www.w3.org/2000/svg" height="180" id="screenshot-9cb78f69-99ab-8025-8006-2350a88684fa" viewBox="0 0 234.463 180" xmlns:xlink="http://www.w3.org/1999/xlink" fill="none" version="1.1"><g id="shape-9cb78f69-99ab-8025-8006-2350a88684fa" rx="0" ry="0"><g id="shape-9cb78f69-99ab-8025-8006-23508c9403ad"><g class="fills" id="fills-9cb78f69-99ab-8025-8006-23508c9403ad"><path d="M35.485,0.136C36.575,0.128,36.575,0.128,37.686,0.119C40.114,0.105,42.542,0.112,44.970,0.119C46.713,0.114,48.457,0.107,50.200,0.099C54.931,0.081,59.662,0.082,64.393,0.088C68.343,0.091,72.293,0.085,76.243,0.079C85.562,0.065,94.881,0.066,104.200,0.078C113.813,0.089,123.426,0.075,133.039,0.048C141.294,0.026,149.549,0.020,157.804,0.026C162.733,0.029,167.663,0.027,172.592,0.009C177.228,-0.006,181.863,-0.002,186.499,0.017C188.200,0.020,189.900,0.017,191.600,0.007C193.924,-0.006,196.246,0.005,198.569,0.023C199.868,0.023,201.168,0.023,202.507,0.023C207.703,0.762,210.713,3.200,214.295,6.906C216.823,12.368,216.457,17.587,216.389,23.534C216.388,24.866,216.388,26.198,216.391,27.530C216.392,31.134,216.369,34.738,216.341,38.342C216.316,42.113,216.314,45.883,216.309,49.654C216.297,56.789,216.264,63.924,216.224,71.059C216.180,79.185,216.158,87.310,216.138,95.435C216.096,112.145,216.026,128.854,215.938,145.563C217.062,145.540,218.187,145.517,219.345,145.493C220.817,145.475,222.289,145.457,223.761,145.439C224.503,145.422,225.244,145.406,226.008,145.389C227.950,145.371,229.893,145.461,231.833,145.563C235.369,149.100,234.315,154.369,234.318,159.152C234.175,164.895,233.468,168.991,229.939,173.686C224.111,178.395,218.588,179.930,211.202,179.852C210.361,179.858,209.520,179.865,208.654,179.872C205.855,179.891,203.057,179.880,200.258,179.870C198.244,179.877,196.230,179.886,194.215,179.896C188.758,179.919,183.300,179.916,177.842,179.907C173.282,179.902,168.722,179.909,164.162,179.916C153.404,179.933,142.647,179.930,131.889,179.913C120.796,179.896,109.705,179.912,98.612,179.944C89.081,179.970,79.550,179.978,70.018,179.969C64.329,179.964,58.640,179.967,52.951,179.987C47.601,180.005,42.253,179.999,36.903,179.975C34.943,179.970,32.982,179.973,31.021,179.986C28.340,180.002,25.660,179.987,22.978,179.964C22.207,179.976,21.435,179.988,20.640,180.000C13.630,179.881,8.798,176.914,3.962,171.952C0.659,166.742,0.069,161.908,0.050,155.808C0.034,154.513,0.017,153.219,0.000,151.885C0.361,148.544,0.361,148.544,1.396,146.856C4.403,144.858,7.502,145.250,10.978,145.377C11.676,145.390,12.373,145.404,13.091,145.418C14.809,145.453,16.526,145.506,18.243,145.563C18.238,144.879,18.234,144.196,18.229,143.491C18.119,126.833,18.037,110.174,17.985,93.516C17.960,85.460,17.925,77.404,17.868,69.348C17.819,62.325,17.787,55.301,17.775,48.278C17.769,44.560,17.754,40.844,17.718,37.126C17.678,32.971,17.677,28.817,17.679,24.662C17.661,23.437,17.643,22.211,17.625,20.949C17.666,14.076,18.188,8.566,23.210,3.501C27.297,0.389,30.410,0.145,35.485,0.136ZL35.485,0.136Z" style="fill: rgb(236, 234, 230);"/></g></g><g id="shape-9cb78f69-99ab-8025-8006-23568f6d353b"><g class="fills" id="fills-9cb78f69-99ab-8025-8006-23568f6d353b"><path d="M35.485,0.136C36.575,0.128,36.575,0.128,37.686,0.119C40.114,0.105,42.542,0.112,44.970,0.119C46.713,0.114,48.457,0.107,50.200,0.099C54.931,0.081,59.662,0.082,64.393,0.088C68.343,0.091,72.293,0.085,76.243,0.079C85.562,0.065,94.881,0.066,104.200,0.078C113.813,0.089,123.426,0.075,133.039,0.048C141.294,0.026,149.549,0.020,157.804,0.026C162.733,0.029,167.663,0.027,172.592,0.009C177.228,-0.006,181.863,-0.002,186.499,0.017C188.200,0.020,189.900,0.017,191.600,0.007C193.924,-0.006,196.246,0.005,198.569,0.023C199.868,0.023,201.168,0.023,202.507,0.023C207.703,0.762,210.713,3.200,214.295,6.906C216.823,12.368,216.457,17.587,216.389,23.534C216.388,24.866,216.388,26.198,216.391,27.530C216.392,31.134,216.369,34.738,216.341,38.342C216.316,42.113,216.314,45.883,216.309,49.654C216.297,56.789,216.264,63.924,216.224,71.059C216.180,79.185,216.158,87.310,216.138,95.435C216.096,112.145,216.026,128.854,215.938,145.563C217.062,145.540,218.187,145.517,219.345,145.493C220.817,145.475,222.289,145.457,223.761,145.439C224.503,145.422,225.244,145.406,226.008,145.389C227.950,145.371,229.893,145.461,231.833,145.563C235.369,149.100,234.315,154.369,234.318,159.152C234.175,164.895,233.468,168.991,229.939,173.686C224.111,178.395,218.588,179.930,211.202,179.852C210.361,179.858,209.520,179.865,208.654,179.872C205.855,179.891,203.057,179.880,200.258,179.870C198.244,179.877,196.230,179.886,194.215,179.896C188.758,179.919,183.300,179.916,177.842,179.907C173.282,179.902,168.722,179.909,164.162,179.916C153.404,179.933,142.647,179.930,131.889,179.913C120.796,179.896,109.705,179.912,98.612,179.944C89.081,179.970,79.550,179.978,70.018,179.969C64.329,179.964,58.640,179.967,52.951,179.987C47.601,180.005,42.253,179.999,36.903,179.975C34.943,179.970,32.982,179.973,31.021,179.986C28.340,180.002,25.660,179.987,22.978,179.964C22.207,179.976,21.435,179.988,20.640,180.000C13.630,179.881,8.798,176.914,3.962,171.952C0.659,166.742,0.069,161.908,0.050,155.808C0.034,154.513,0.017,153.219,0.000,151.885C0.361,148.544,0.361,148.544,1.396,146.856C4.403,144.858,7.502,145.250,10.978,145.377C11.676,145.390,12.373,145.404,13.091,145.418C14.809,145.453,16.526,145.506,18.243,145.563C18.238,144.879,18.234,144.196,18.229,143.491C18.119,126.833,18.037,110.174,17.985,93.516C17.960,85.460,17.925,77.404,17.868,69.348C17.819,62.325,17.787,55.301,17.775,48.278C17.769,44.560,17.754,40.844,17.718,37.126C17.678,32.971,17.677,28.817,17.679,24.662C17.661,23.437,17.643,22.211,17.625,20.949C17.666,14.076,18.188,8.566,23.210,3.501C27.297,0.389,30.410,0.145,35.485,0.136ZM28.765,10.141C26.813,12.981,26.693,14.544,26.706,17.974C26.700,19.097,26.695,20.220,26.689,21.377C26.704,22.610,26.718,23.843,26.733,25.113C26.734,26.447,26.733,27.780,26.731,29.113C26.730,32.682,26.753,36.251,26.781,39.820C26.804,43.169,26.805,46.519,26.808,49.868C26.829,59.663,26.884,69.457,26.935,79.251C27.017,101.134,27.099,123.017,27.184,145.563C86.850,145.563,146.516,145.563,207.990,145.563C208.093,123.865,208.195,102.166,208.301,79.810C208.346,72.957,208.391,66.104,208.438,59.044C208.454,52.904,208.454,52.904,208.464,46.764C208.472,44.028,208.488,41.293,208.515,38.556C208.555,34.414,208.556,30.271,208.554,26.128C208.572,24.908,208.590,23.688,208.608,22.431C208.602,21.315,208.595,20.199,208.588,19.049C208.592,18.079,208.597,17.109,208.601,16.110C207.723,12.266,206.149,10.818,203.023,8.468C199.672,7.728,199.672,7.728,195.928,7.844C195.225,7.837,194.521,7.830,193.797,7.823C191.446,7.805,189.096,7.823,186.746,7.841C185.058,7.836,183.370,7.829,181.683,7.820C177.104,7.801,172.525,7.814,167.946,7.834C163.154,7.850,158.363,7.841,153.572,7.836C145.527,7.832,137.483,7.847,129.438,7.875C120.134,7.907,110.830,7.907,101.526,7.890C92.578,7.874,83.631,7.881,74.683,7.898C70.873,7.905,67.064,7.904,63.255,7.896C58.771,7.889,54.287,7.901,49.803,7.928C48.156,7.935,46.509,7.935,44.863,7.928C42.617,7.919,40.372,7.935,38.127,7.957C36.241,7.961,36.241,7.961,34.317,7.965C31.114,8.239,31.114,8.239,28.765,10.141ZM9.302,154.504C9.302,164.439,9.302,164.439,11.265,167.994C14.409,170.511,16.246,171.107,20.243,171.183C21.435,171.159,21.435,171.159,22.602,171.136C25.279,171.159,27.953,171.173,30.629,171.150C32.591,171.132,34.553,171.125,36.515,171.128C41.858,171.150,47.200,171.149,52.543,171.121C58.226,171.089,63.909,171.081,69.592,171.081C79.105,171.083,88.617,171.067,98.130,171.028C109.214,170.981,120.297,170.950,131.381,170.952C142.119,170.954,152.857,170.946,163.595,170.922C168.148,170.912,172.701,170.901,177.253,170.898C182.709,170.896,188.165,170.889,193.620,170.863C195.629,170.851,197.638,170.841,199.647,170.832C202.448,170.835,205.249,170.837,208.050,170.818C209.330,170.808,209.330,170.808,210.585,170.798C215.711,170.828,219.756,170.810,223.885,167.419C225.872,163.445,225.872,163.445,225.872,154.504C152.238,154.504,80.770,154.504,9.302,154.504Z" style="fill: rgb(159, 92, 57);"/></g></g><g id="shape-9cb78f69-99ab-8025-8006-23508c995044"><g class="fills" id="fills-9cb78f69-99ab-8025-8006-23508c995044"><path d="M109.589,28.224C110.417,28.230,111.244,28.235,112.096,28.240C112.989,28.243,113.882,28.246,114.803,28.250C116.212,28.262,116.212,28.262,117.649,28.275C118.592,28.279,119.535,28.284,120.507,28.289C122.845,28.300,125.183,28.317,127.521,28.337C127.829,29.423,128.136,30.509,128.453,31.628C129.435,36.180,129.435,36.180,132.240,39.513C135.065,40.455,136.618,40.134,139.443,39.265C140.426,38.609,141.410,37.954,142.423,37.278C147.297,37.377,149.978,40.196,153.227,43.487C153.734,43.962,154.241,44.437,154.764,44.927C156.199,46.359,156.199,46.359,158.318,49.199C158.230,52.442,157.773,53.652,155.648,56.091C155.218,56.768,154.788,57.444,154.344,58.140C155.163,61.951,155.163,61.951,157.325,65.094C158.452,65.238,159.579,65.381,160.740,65.529C164.279,66.088,164.279,66.088,166.266,68.075C166.491,70.033,166.491,70.033,166.460,72.398C166.453,73.243,166.447,74.088,166.440,74.959C166.415,76.284,166.415,76.284,166.390,77.637C166.381,78.528,166.372,79.419,166.363,80.338C166.339,82.542,166.307,84.746,166.266,86.950C162.972,88.060,159.720,89.149,156.331,89.931C154.964,93.140,154.964,93.140,154.344,96.885C156.224,99.504,156.224,99.504,158.318,101.852C158.226,106.723,155.395,109.412,152.109,112.656C151.397,113.416,151.397,113.416,150.669,114.192C149.238,115.628,149.238,115.628,146.397,117.747C142.823,117.674,141.459,116.773,138.449,114.767C133.822,115.170,133.822,115.170,129.508,116.753C128.853,119.704,128.197,122.654,127.521,125.694C120.965,125.694,114.408,125.694,107.653,125.694C106.669,122.744,105.686,119.793,104.672,116.753C100.346,114.590,99.238,114.586,94.738,115.760C93.754,116.744,93.754,116.744,92.751,117.747C86.803,117.425,83.341,113.475,79.464,109.365C76.866,106.239,76.866,106.239,76.794,103.156C77.849,100.858,77.849,100.858,79.526,99.058C81.055,97.014,81.055,97.014,80.581,94.871C80.076,92.873,79.465,90.902,78.843,88.937C77.214,88.999,77.214,88.999,75.552,89.061C71.889,88.937,71.889,88.937,68.908,86.950C68.570,84.901,68.570,84.901,68.617,82.410C68.627,81.520,68.637,80.630,68.646,79.713C68.671,78.782,68.696,77.851,68.722,76.892C68.736,75.953,68.749,75.014,68.763,74.047C68.798,71.725,68.847,69.403,68.908,67.081C69.530,66.980,70.152,66.878,70.792,66.773C72.009,66.545,72.009,66.545,73.251,66.313C74.460,66.099,74.460,66.099,75.693,65.881C77.946,65.281,77.946,65.281,79.103,63.427C80.026,61.293,80.026,61.293,80.830,58.140C80.154,57.423,79.477,56.706,78.781,55.967C76.856,53.173,76.856,53.173,76.988,50.771C78.028,47.674,79.372,46.312,81.761,44.108C84.169,41.862,85.942,40.040,87.784,37.278C94.490,38.023,94.490,38.023,96.725,40.258C99.648,39.954,102.035,39.590,104.672,38.272C105.319,36.199,105.319,36.199,105.728,33.801C106.764,28.389,106.764,28.389,109.589,28.224ZZ" style="fill: rgb(236, 234, 230);"/></g></g><g id="shape-9cb78f69-99ab-8025-8006-23508c9d8271"><g class="fills" id="fills-9cb78f69-99ab-8025-8006-23508c9d8271"><path d="M109.589,28.224C110.417,28.230,111.244,28.235,112.096,28.240C112.989,28.243,113.882,28.246,114.803,28.250C116.212,28.262,116.212,28.262,117.649,28.275C118.592,28.279,119.535,28.284,120.507,28.289C122.845,28.300,125.183,28.317,127.521,28.337C127.829,29.423,128.136,30.509,128.453,31.628C129.435,36.180,129.435,36.180,132.240,39.513C135.065,40.455,136.618,40.134,139.443,39.265C140.426,38.609,141.410,37.954,142.423,37.278C147.297,37.377,149.978,40.196,153.227,43.487C153.734,43.962,154.241,44.437,154.764,44.927C156.199,46.359,156.199,46.359,158.318,49.199C158.230,52.442,157.773,53.652,155.648,56.091C155.218,56.768,154.788,57.444,154.344,58.140C155.163,61.951,155.163,61.951,157.325,65.094C158.452,65.238,159.579,65.381,160.740,65.529C164.279,66.088,164.279,66.088,166.266,68.075C166.491,70.033,166.491,70.033,166.460,72.398C166.453,73.243,166.447,74.088,166.440,74.959C166.415,76.284,166.415,76.284,166.390,77.637C166.381,78.528,166.372,79.419,166.363,80.338C166.339,82.542,166.307,84.746,166.266,86.950C162.972,88.060,159.720,89.149,156.331,89.931C154.964,93.140,154.964,93.140,154.344,96.885C156.224,99.504,156.224,99.504,158.318,101.852C158.226,106.723,155.395,109.412,152.109,112.656C151.397,113.416,151.397,113.416,150.669,114.192C149.238,115.628,149.238,115.628,146.397,117.747C142.823,117.674,141.459,116.773,138.449,114.767C133.822,115.170,133.822,115.170,129.508,116.753C128.853,119.704,128.197,122.654,127.521,125.694C120.965,125.694,114.408,125.694,107.653,125.694C106.669,122.744,105.686,119.793,104.672,116.753C100.346,114.590,99.238,114.586,94.738,115.760C93.754,116.744,93.754,116.744,92.751,117.747C86.803,117.425,83.341,113.475,79.464,109.365C76.866,106.239,76.866,106.239,76.794,103.156C77.849,100.858,77.849,100.858,79.526,99.058C81.055,97.014,81.055,97.014,80.581,94.871C80.076,92.873,79.465,90.902,78.843,88.937C77.214,88.999,77.214,88.999,75.552,89.061C71.889,88.937,71.889,88.937,68.908,86.950C68.570,84.901,68.570,84.901,68.617,82.410C68.627,81.520,68.637,80.630,68.646,79.713C68.671,78.782,68.696,77.851,68.722,76.892C68.736,75.953,68.749,75.014,68.763,74.047C68.798,71.725,68.847,69.403,68.908,67.081C69.530,66.980,70.152,66.878,70.792,66.773C72.009,66.545,72.009,66.545,73.251,66.313C74.460,66.099,74.460,66.099,75.693,65.881C77.946,65.281,77.946,65.281,79.103,63.427C80.026,61.293,80.026,61.293,80.830,58.140C80.154,57.423,79.477,56.706,78.781,55.967C76.856,53.173,76.856,53.173,76.988,50.771C78.028,47.674,79.372,46.312,81.761,44.108C84.169,41.862,85.942,40.040,87.784,37.278C94.490,38.023,94.490,38.023,96.725,40.258C99.648,39.954,102.035,39.590,104.672,38.272C105.319,36.199,105.319,36.199,105.728,33.801C106.764,28.389,106.764,28.389,109.589,28.224ZL109.589,28.224ZM113.613,36.285C113.429,38.129,113.429,38.129,113.241,40.010C112.725,42.203,112.725,42.203,111.626,44.232C108.471,46.115,105.183,47.116,101.692,48.206C101.364,48.534,101.036,48.862,100.699,49.199C98.339,49.448,98.339,49.448,95.731,49.199C93.931,47.709,93.931,47.709,92.751,46.219C90.299,47.363,88.730,48.253,86.790,50.193C87.177,53.186,88.047,54.561,89.771,57.147C89.647,59.258,89.647,59.258,88.777,62.114C88.553,62.853,88.329,63.592,88.098,64.353C85.871,70.520,85.871,70.520,82.774,72.072C80.581,72.607,80.581,72.607,76.856,73.042C76.856,75.665,76.856,78.287,76.856,80.990C78.085,81.297,79.315,81.604,80.581,81.921C83.293,82.924,84.534,83.576,86.181,85.984C87.203,88.267,88.036,90.523,88.777,92.911C89.085,93.833,89.392,94.755,89.709,95.705C89.792,98.617,88.533,99.601,86.790,101.852C87.054,104.836,87.618,105.660,89.771,107.812C92.019,107.461,93.696,106.843,95.731,105.826C100.454,105.406,102.760,106.207,106.659,108.806C107.981,109.175,107.981,109.175,109.329,109.551C111.626,110.793,111.626,110.793,112.930,114.394C113.156,115.500,113.381,116.607,113.613,117.747C116.236,117.747,118.859,117.747,121.561,117.747C121.684,116.702,121.807,115.657,121.933,114.580C122.700,111.847,123.361,110.930,125.682,109.225C130.217,106.856,134.232,104.936,139.443,105.826C140.426,106.481,141.410,107.137,142.423,107.812C145.364,107.456,146.244,106.971,148.384,104.832C148.019,101.917,147.525,100.993,145.403,98.871C145.716,94.496,147.130,90.711,148.760,86.686C149.489,84.957,149.489,84.957,149.377,82.976C152.328,82.321,155.278,81.665,158.318,80.990C158.318,78.695,158.318,76.400,158.318,74.035C157.089,73.728,155.859,73.421,154.593,73.104C151.882,72.101,150.640,71.449,148.993,69.041C147.971,66.758,147.138,64.502,146.397,62.114C145.936,60.731,145.936,60.731,145.466,59.320C145.382,56.408,146.642,55.423,148.384,53.173C148.222,50.503,147.620,49.456,145.838,47.461C145.367,47.051,144.896,46.641,144.410,46.219C141.737,47.431,141.737,47.431,139.443,49.199C133.269,48.937,127.519,46.981,122.554,43.239C121.437,39.451,121.437,39.451,121.561,36.285C118.938,36.285,116.315,36.285,113.613,36.285ZL113.613,36.285Z" style="fill: rgb(159, 92, 57);"/></g></g><g id="shape-9cb78f69-99ab-8025-8006-235649143cb1"><g class="fills" id="fills-9cb78f69-99ab-8025-8006-235649143cb1"><path d="M128.437,58.800C133.174,61.845,137.161,66.509,138.449,72.049C139.188,79.905,137.989,84.924,133.793,91.607C128.819,96.580,124.111,98.144,117.090,98.437C109.564,98.193,105.412,95.781,100.326,90.427C96.303,84.238,95.813,78.294,96.725,71.055C99.190,64.602,104.030,60.197,109.950,56.836C116.590,55.138,122.290,55.770,128.437,58.800ZM120.567,64.101L120.567,64.101ZC117.108,63.746,113.814,63.504,110.633,65.094C107.441,67.798,104.975,70.375,104.214,74.579C104.131,80.229,104.841,83.846,108.584,88.192C112.394,90.369,112.394,90.369,119.950,90.264C124.081,89.735,125.985,88.548,128.763,85.460C131.062,80.863,131.330,77.099,130.502,72.049C128.109,67.724,125.175,65.785,120.567,64.101Z" style="fill: rgb(159, 92, 57);"/></g></g></g></svg>