<svg width="179.338" xmlns="http://www.w3.org/2000/svg" height="180" id="screenshot-9cb78f69-99ab-8025-8006-234effe094a7" viewBox="2585 4680 179.338 180" xmlns:xlink="http://www.w3.org/1999/xlink" fill="none" version="1.1"><g id="shape-9cb78f69-99ab-8025-8006-234effe094a7"><g class="fills" id="fills-9cb78f69-99ab-8025-8006-234effe094a7"><path d="M2760.189,4680.162C2762.392,4680.601,2762.392,4680.601,2764.338,4682.547C2764.257,4686.863,2763.777,4688.862,2760.994,4692.216C2758.500,4694.223,2758.500,4694.223,2756.554,4694.223C2756.323,4694.770,2756.091,4695.318,2755.853,4695.883C2754.329,4698.615,2752.482,4700.481,2750.267,4702.693C2749.367,4703.596,2748.467,4704.498,2747.540,4705.428C2746.555,4706.406,2745.571,4707.384,2744.586,4708.362C2743.574,4709.372,2742.563,4710.382,2741.553,4711.393C2739.435,4713.510,2737.314,4715.623,2735.190,4717.733C2732.476,4720.431,2729.769,4723.134,2727.063,4725.840C2724.976,4727.928,2722.886,4730.012,2720.795,4732.096C2719.796,4733.092,2718.798,4734.088,2717.801,4735.085C2716.402,4736.482,2714.999,4737.875,2713.596,4739.268C2712.800,4740.060,2712.005,4740.852,2711.185,4741.668C2708.888,4743.836,2706.492,4745.785,2704.012,4747.739C2700.156,4751.396,2696.719,4755.348,2693.308,4759.415C2693.910,4759.676,2694.513,4759.936,2695.133,4760.205C2697.200,4761.361,2697.200,4761.361,2699.147,4764.280C2699.360,4766.894,2699.466,4769.406,2699.473,4772.022C2699.483,4773.161,2699.483,4773.161,2699.493,4774.324C2699.503,4775.931,2699.507,4777.538,2699.507,4779.145C2699.511,4781.593,2699.547,4784.039,2699.584,4786.486C2699.589,4788.050,2699.593,4789.614,2699.595,4791.178C2699.609,4791.905,2699.623,4792.632,2699.637,4793.381C2699.594,4798.434,2698.535,4801.317,2695.254,4805.146C2689.861,4809.510,2683.210,4808.573,2676.624,4808.553C2674.405,4808.552,2672.189,4808.592,2669.969,4808.635C2668.547,4808.641,2667.125,4808.643,2665.703,4808.643C2663.777,4808.653,2663.777,4808.653,2661.813,4808.664C2657.231,4807.888,2655.652,4806.493,2652.442,4803.200C2652.442,4802.558,2652.442,4801.916,2652.442,4801.254C2641.222,4811.072,2630.875,4821.848,2620.332,4832.391C2657.258,4832.391,2694.184,4832.391,2732.229,4832.391C2733.807,4829.235,2733.398,4825.763,2733.436,4822.293C2733.455,4821.028,2733.455,4821.028,2733.474,4819.737C2733.598,4810.911,2733.653,4802.084,2733.703,4793.258C2733.729,4789.069,2733.776,4784.882,2733.843,4780.695C2733.922,4775.639,2733.964,4770.584,2733.978,4765.528C2733.990,4763.602,2734.016,4761.677,2734.055,4759.752C2734.668,4749.498,2734.668,4749.498,2731.415,4740.140C2729.127,4737.982,2729.127,4737.982,2725.418,4736.062C2727.344,4733.815,2729.271,4731.567,2731.256,4729.251C2735.017,4731.132,2737.571,4733.274,2740.560,4736.123C2745.288,4740.553,2750.146,4744.701,2755.216,4748.738C2757.444,4750.588,2759.528,4752.354,2761.419,4754.550C2761.115,4759.719,2761.115,4759.719,2759.473,4761.361C2755.883,4761.768,2754.171,4761.727,2751.150,4759.658C2750.405,4758.935,2749.659,4758.213,2748.892,4757.469C2748.132,4756.746,2747.372,4756.024,2746.589,4755.279C2745.742,4754.436,2745.742,4754.436,2744.878,4753.577C2744.875,4754.563,2744.871,4755.550,2744.867,4756.566C2744.831,4765.872,2744.775,4775.177,2744.699,4784.483C2744.661,4789.267,2744.630,4794.051,2744.614,4798.835C2744.600,4803.453,2744.566,4808.071,2744.520,4812.689C2744.505,4814.449,2744.498,4816.210,2744.497,4817.970C2744.495,4820.440,2744.468,4822.908,2744.436,4825.377C2744.444,4826.464,2744.444,4826.464,2744.451,4827.574C2744.352,4832.544,2743.113,4835.354,2740.013,4839.202C2736.323,4842.444,2733.256,4843.215,2728.414,4843.217C2727.426,4843.220,2726.439,4843.223,2725.421,4843.226C2724.338,4843.224,2723.256,4843.222,2722.140,4843.220C2720.999,4843.221,2719.858,4843.223,2718.683,4843.225C2715.553,4843.229,2712.422,4843.228,2709.292,4843.225C2706.015,4843.222,2702.739,4843.224,2699.462,4843.226C2693.957,4843.228,2688.452,4843.225,2682.947,4843.221C2676.587,4843.215,2670.227,4843.217,2663.867,4843.223C2658.405,4843.227,2652.943,4843.228,2647.481,4843.225C2644.219,4843.223,2640.958,4843.223,2637.696,4843.226C2634.058,4843.229,2630.419,4843.225,2626.781,4843.220C2625.702,4843.222,2624.623,4843.224,2623.512,4843.226C2622.519,4843.223,2621.526,4843.220,2620.502,4843.217C2619.642,4843.217,2618.782,4843.217,2617.896,4843.216C2615.467,4843.094,2615.467,4843.094,2612.828,4842.532C2610.589,4841.859,2610.589,4841.859,2608.877,4843.199C2608.362,4843.750,2607.848,4844.301,2607.318,4844.869C2606.453,4845.769,2606.453,4845.769,2605.570,4846.688C2604.983,4847.328,2604.396,4847.968,2603.791,4848.628C2602.618,4849.870,2601.442,4851.111,2600.264,4852.349C2599.705,4852.937,2599.146,4853.525,2598.570,4854.131C2593.306,4859.469,2593.306,4859.469,2589.500,4860.000C2587.250,4859.635,2587.250,4859.635,2585.304,4857.689C2584.899,4855.452,2584.899,4855.452,2585.304,4852.824C2587.179,4850.371,2587.179,4850.371,2589.840,4847.751C2590.323,4847.269,2590.806,4846.787,2591.303,4846.291C2592.902,4844.700,2594.517,4843.128,2596.132,4841.555C2597.252,4840.447,2598.370,4839.338,2599.487,4838.228C2602.435,4835.304,2605.396,4832.395,2608.362,4829.489C2612.517,4825.411,2616.655,4821.314,2620.793,4817.219C2622.995,4815.041,2625.203,4812.867,2627.415,4810.699C2632.742,4805.462,2637.881,4800.147,2642.712,4794.443C2643.930,4793.129,2645.161,4791.826,2646.421,4790.551C2646.969,4789.989,2647.518,4789.427,2648.082,4788.848C2649.523,4787.632,2649.523,4787.632,2651.469,4787.632C2651.438,4786.565,2651.438,4786.565,2651.407,4785.476C2651.326,4782.242,2651.275,4779.008,2651.226,4775.773C2651.193,4774.654,2651.160,4773.535,2651.127,4772.381C2651.108,4770.759,2651.108,4770.759,2651.089,4769.103C2651.058,4767.613,2651.058,4767.613,2651.027,4766.092C2651.592,4762.532,2652.847,4760.986,2655.361,4758.442C2658.350,4756.416,2660.559,4756.319,2664.118,4756.503C2675.371,4757.202,2675.371,4757.202,2685.429,4753.105C2687.892,4750.758,2689.944,4748.142,2691.992,4745.425C2693.392,4743.746,2694.868,4742.449,2696.550,4741.055C2702.070,4736.291,2707.112,4731.061,2712.218,4725.864C2714.694,4723.346,2717.180,4720.838,2719.665,4718.330C2724.277,4713.674,2728.884,4709.014,2733.476,4704.338C2736.686,4701.071,2739.908,4697.815,2743.137,4694.567C2744.362,4693.330,2745.583,4692.089,2746.799,4690.844C2748.495,4689.109,2750.204,4687.390,2751.918,4685.673C2752.416,4685.156,2752.914,4684.639,2753.427,4684.106C2755.648,4681.910,2757.064,4680.677,2760.189,4680.162ZM2688.443,4766.226L2688.443,4766.226ZC2685.184,4766.226,2685.184,4766.226,2681.485,4769.760C2680.952,4770.286,2680.435,4770.797,2679.918,4771.307C2678.817,4772.383,2677.718,4773.461,2676.621,4774.540C2674.902,4776.254,2673.181,4777.961,2671.432,4779.644C2670.291,4780.741,2669.158,4781.845,2668.033,4782.958C2667.484,4783.504,2666.951,4784.035,2666.418,4784.565C2665.879,4785.077,2665.356,4785.574,2664.833,4786.071C2661.199,4789.772,2661.199,4789.772,2661.199,4797.362C2670.462,4797.362,2679.453,4797.362,2688.443,4797.362C2688.443,4786.776,2688.443,4776.501,2688.443,4766.226ZM2661.199,4766.226C2661.199,4769.534,2661.199,4772.745,2661.199,4775.956C2665.206,4772.951,2667.754,4770.051,2670.929,4766.226M2674.700,4680.000C2679.088,4680.867,2681.178,4683.254,2684.247,4686.378C2685.451,4687.551,2686.657,4688.722,2687.866,4689.890C2688.458,4690.466,2689.050,4691.042,2689.660,4691.636C2691.971,4693.826,2694.410,4695.824,2696.896,4697.811C2701.664,4701.623,2706.146,4705.667,2710.614,4709.821C2712.610,4711.763,2712.610,4711.763,2714.715,4712.710C2713.311,4715.985,2711.472,4718.072,2708.877,4720.494C2705.238,4718.955,2702.750,4716.668,2699.876,4713.987C2698.919,4713.102,2697.961,4712.218,2697.003,4711.334C2696.105,4710.504,2695.207,4709.673,2694.281,4708.818C2688.287,4703.423,2682.058,4698.327,2675.794,4693.250C2671.454,4694.631,2668.663,4697.012,2665.456,4700.122C2661.730,4703.640,2657.969,4707.014,2653.962,4710.217C2648.150,4714.895,2642.741,4719.964,2637.287,4725.048C2635.529,4726.677,2633.747,4728.276,2631.948,4729.859C2631.402,4730.351,2630.856,4730.843,2630.293,4731.349C2628.116,4733.143,2628.116,4733.143,2625.225,4735.016C2620.447,4738.343,2617.045,4740.716,2615.434,4746.465C2615.075,4749.971,2615.137,4753.452,2615.293,4756.969C2615.397,4759.316,2615.428,4761.655,2615.443,4764.005C2615.487,4768.984,2615.627,4773.959,2615.771,4778.936C2615.926,4784.713,2616.040,4790.488,2616.089,4796.267C2616.124,4798.566,2616.214,4800.858,2616.308,4803.156C2616.541,4813.259,2616.541,4813.259,2613.507,4817.829C2611.348,4820.028,2609.260,4821.909,2606.710,4823.634C2606.389,4823.634,2606.068,4823.634,2605.737,4823.634C2605.256,4788.955,2605.256,4788.955,2604.764,4753.577C2601.874,4756.145,2598.984,4758.714,2596.007,4761.361C2594.080,4761.361,2592.154,4761.361,2590.169,4761.361C2588.223,4759.415,2588.223,4759.415,2587.912,4757.071C2588.290,4754.008,2588.996,4753.237,2591.252,4751.190C2591.900,4750.592,2592.547,4749.994,2593.214,4749.378C2593.915,4748.757,2594.616,4748.135,2595.338,4747.495C2596.052,4746.845,2596.765,4746.195,2597.500,4745.525C2602.137,4741.332,2606.904,4737.332,2611.796,4733.440C2615.086,4730.705,2618.192,4727.805,2621.305,4724.873C2626.086,4720.371,2630.988,4716.142,2636.117,4712.037C2639.233,4709.448,2642.189,4706.721,2645.144,4703.953C2649.811,4699.583,2654.605,4695.463,2659.610,4691.479C2663.115,4688.577,2666.352,4685.414,2669.580,4682.208C2671.902,4680.601,2671.902,4680.601,2674.700,4680.000ZZ" style="fill: rgb(159, 92, 57);"/></g></g></svg>