<svg width="170.106" xmlns="http://www.w3.org/2000/svg" height="180" id="screenshot-9cb78f69-99ab-8025-8006-235324d77a86" viewBox="0 0 170.106 180" xmlns:xlink="http://www.w3.org/1999/xlink" fill="none" version="1.1"><g id="shape-9cb78f69-99ab-8025-8006-235324d77a86" rx="0" ry="0"><g id="shape-9cb78f69-99ab-8025-8006-23528dc1a4c4"><g class="fills" id="fills-9cb78f69-99ab-8025-8006-23528dc1a4c4"><path d="M84.784,86.077C85.662,86.070,85.662,86.070,86.557,86.062C88.474,86.049,90.390,86.052,92.306,86.056C93.649,86.052,94.992,86.048,96.336,86.044C99.144,86.038,101.952,86.039,104.761,86.047C108.346,86.055,111.932,86.040,115.517,86.019C118.289,86.005,121.061,86.005,123.833,86.010C125.154,86.010,126.476,86.005,127.797,85.996C141.106,85.917,141.106,85.917,146.225,89.314C146.639,89.585,147.054,89.857,147.481,90.137C150.905,92.683,152.442,95.870,154.308,99.601C154.360,101.720,154.376,103.820,154.354,105.938C154.350,106.527,154.347,107.117,154.344,107.724C154.335,109.180,154.322,110.636,154.308,112.092C154.778,112.058,155.249,112.024,155.734,111.989C160.405,111.794,163.047,112.180,166.799,115.031C169.494,117.795,169.961,120.061,170.106,123.803C169.970,127.860,169.249,130.181,166.799,133.401C166.072,133.886,165.344,134.371,164.595,134.871C164.267,136.900,164.267,136.900,164.322,139.283C164.303,140.623,164.303,140.623,164.283,141.991C164.277,143.868,164.273,145.745,164.272,147.622C164.172,154.201,163.393,158.984,159.222,164.171C156.366,166.429,153.630,167.937,149.899,167.937C150.020,168.407,150.141,168.877,150.266,169.361C150.745,172.295,150.977,175.262,150.634,178.224C150.149,178.709,149.664,179.194,149.164,179.694C146.741,179.451,145.767,179.236,144.020,177.489C142.991,174.001,142.551,171.624,142.551,167.937C120.485,168.179,98.419,168.422,75.684,168.672C74.957,171.582,74.229,174.491,73.480,177.489C72.752,178.217,72.025,178.944,71.275,179.694C68.027,179.384,68.027,179.384,66.867,178.224C66.671,174.383,66.888,171.559,68.336,167.937C67.578,167.876,66.821,167.816,66.040,167.753C61.320,166.840,58.562,164.470,55.845,160.589C54.109,157.886,54.206,155.548,54.232,152.380C54.234,151.878,54.236,151.377,54.238,150.860C54.246,149.266,54.264,147.671,54.283,146.077C54.291,144.993,54.297,143.909,54.303,142.825C54.319,140.173,54.345,137.522,54.375,134.871C53.697,134.563,53.697,134.563,53.006,134.248C50.205,132.738,48.751,130.490,47.762,127.523C47.320,123.562,47.052,119.901,49.369,116.501C51.116,114.484,52.566,113.032,55.110,112.092C57.815,111.924,60.486,111.964,63.193,112.092C63.150,111.382,63.107,110.671,63.063,109.940C62.819,102.887,63.361,97.661,68.213,92.210C73.070,87.601,78.232,86.037,84.784,86.077ZZ" style="fill: rgb(159, 92, 57);"/></g></g><g id="shape-9cb78f69-99ab-8025-8006-23528dc33b0d"><g class="fills" id="fills-9cb78f69-99ab-8025-8006-23528dc33b0d"><path d="M99.538,0.023C100.594,0.015,100.594,0.015,101.671,0.007C103.999,-0.006,106.327,0.003,108.655,0.013C110.273,0.011,111.891,0.008,113.509,0.004C116.901,-0.000,120.293,0.006,123.685,0.020C128.032,0.036,132.379,0.027,136.726,0.009C140.067,-0.001,143.409,0.002,146.750,0.010C148.353,0.012,149.956,0.009,151.559,0.002C153.800,-0.005,156.040,0.006,158.281,0.023C159.275,0.014,159.275,0.014,160.289,0.005C163.144,0.043,164.985,0.234,167.577,1.507C169.585,4.090,169.519,6.424,169.479,9.565C169.485,10.191,169.492,10.818,169.498,11.463C169.515,13.533,169.504,15.601,169.492,17.671C169.494,19.109,169.498,20.548,169.502,21.986C169.508,25.001,169.500,28.015,169.483,31.029C169.462,34.894,169.474,38.758,169.496,42.623C169.509,45.593,169.505,48.563,169.495,51.533C169.493,52.958,169.496,54.383,169.504,55.808C169.514,57.800,169.499,59.790,169.479,61.782C169.490,62.666,169.490,62.666,169.502,63.568C169.451,66.215,169.219,67.728,167.577,69.839C164.429,71.386,161.747,71.355,158.281,71.324C157.576,71.329,156.871,71.334,156.144,71.339C153.816,71.352,151.489,71.344,149.161,71.334C147.543,71.336,145.924,71.339,144.305,71.342C140.915,71.347,137.524,71.340,134.134,71.327C129.786,71.310,125.438,71.320,121.090,71.337C117.748,71.348,114.407,71.344,111.065,71.337C109.462,71.335,107.859,71.337,106.255,71.344C104.016,71.352,101.777,71.340,99.538,71.324C98.874,71.330,98.210,71.336,97.526,71.342C94.808,71.305,93.075,71.232,90.704,69.839C89.184,67.205,89.235,64.740,89.265,61.782C89.260,61.155,89.255,60.529,89.249,59.883C89.237,57.814,89.245,55.745,89.255,53.676C89.253,52.237,89.250,50.799,89.247,49.360C89.242,46.346,89.248,43.332,89.262,40.317C89.279,36.453,89.269,32.589,89.252,28.724C89.241,25.754,89.244,22.784,89.252,19.813C89.254,18.388,89.252,16.963,89.245,15.538C89.237,13.547,89.249,11.556,89.265,9.565C89.259,8.975,89.253,8.386,89.247,7.779C89.284,5.354,89.483,3.623,90.704,1.507C93.586,-0.185,96.252,-0.007,99.538,0.023ZZ" style="fill: rgb(159, 92, 57);"/></g></g><g id="shape-9cb78f69-99ab-8025-8006-23528dc41656"><g class="fills" id="fills-9cb78f69-99ab-8025-8006-23528dc41656"><path d="M18.002,12.598C19.003,12.584,19.003,12.584,20.024,12.569C21.102,12.573,21.102,12.573,22.202,12.576C23.312,12.570,23.312,12.570,24.445,12.564C26.010,12.560,27.576,12.561,29.142,12.567C31.539,12.573,33.934,12.552,36.331,12.529C37.852,12.527,39.372,12.528,40.893,12.530C41.969,12.518,41.969,12.518,43.067,12.505C47.999,12.556,47.999,12.556,50.368,14.168C51.487,15.913,52.096,17.334,52.616,19.338C52.804,20.041,52.993,20.744,53.188,21.468C53.480,22.612,53.480,22.612,53.778,23.779C54.216,25.429,54.657,27.078,55.098,28.727C55.450,30.048,55.450,30.048,55.809,31.395C56.625,34.369,57.494,37.324,58.382,40.277C58.688,41.301,58.994,42.325,59.300,43.349C59.749,44.851,60.201,46.352,60.660,47.851C63.764,58.001,63.764,58.001,63.193,62.861C62.708,63.346,62.223,63.831,61.723,64.330C52.994,64.330,44.264,64.330,35.270,64.330C35.270,96.338,35.270,128.346,35.270,161.324C39.393,161.324,43.515,161.324,47.762,161.324C53.106,164.864,53.106,164.864,54.375,168.672C54.481,170.139,54.537,171.610,54.559,173.081C54.578,173.853,54.597,174.626,54.616,175.423C54.375,177.489,54.375,177.489,53.502,178.703C51.692,180.050,50.502,179.973,48.257,179.979C47.058,179.989,47.058,179.989,45.835,180.000C44.971,179.996,44.108,179.991,43.218,179.986C41.888,179.990,41.888,179.990,40.530,179.993C38.653,179.994,36.776,179.990,34.899,179.981C32.024,179.969,29.149,179.981,26.273,179.995C24.451,179.994,22.629,179.991,20.807,179.986C19.945,179.991,19.083,179.995,18.195,180.000C16.992,179.990,16.992,179.990,15.765,179.979C15.061,179.977,14.356,179.975,13.630,179.974C11.426,179.644,10.413,179.025,8.818,177.489C8.023,173.822,8.277,169.872,10.012,166.513C11.757,164.263,11.757,164.263,16.166,161.324C20.045,161.324,23.925,161.324,27.922,161.324C27.922,129.316,27.922,97.308,27.922,64.330C19.435,64.330,10.948,64.330,2.204,64.330C1.477,63.603,0.749,62.875,0.000,62.126C0.152,56.830,1.600,51.940,3.077,46.879C3.305,46.081,3.534,45.283,3.769,44.461C4.240,42.820,4.712,41.180,5.186,39.541C5.839,37.278,6.483,35.013,7.121,32.746C7.503,31.395,7.885,30.044,8.266,28.693C8.438,28.084,8.610,27.475,8.787,26.848C9.276,25.132,9.777,23.421,10.287,21.712C10.465,21.110,10.642,20.507,10.825,19.887C11.008,19.299,11.190,18.712,11.378,18.107C11.539,17.582,11.699,17.057,11.865,16.515C13.208,13.480,14.739,12.620,18.002,12.598ZZ" style="fill: rgb(159, 92, 57);"/></g></g><g id="shape-9cb78f69-99ab-8025-8006-23528dc4c5d6"><g class="fills" id="fills-9cb78f69-99ab-8025-8006-23528dc4c5d6"><path d="M84.307,93.592C84.894,93.587,85.481,93.583,86.085,93.578C88.033,93.563,89.980,93.555,91.927,93.547C92.592,93.544,93.257,93.541,93.943,93.538C97.465,93.523,100.987,93.512,104.509,93.505C108.143,93.497,111.776,93.472,115.410,93.443C118.207,93.424,121.004,93.417,123.801,93.415C125.140,93.411,126.479,93.403,127.818,93.389C129.696,93.371,131.574,93.372,133.453,93.377C134.277,93.363,134.277,93.363,135.118,93.348C139.123,93.388,141.442,94.397,144.755,96.662C148.038,100.281,148.169,103.484,148.108,108.143C148.134,109.075,148.134,109.075,148.161,110.026C148.157,111.777,148.094,113.326,147.694,115.031C145.935,116.765,145.935,116.765,144.020,117.971C141.055,121.965,140.545,126.344,140.346,131.197C139.423,130.840,139.423,130.840,138.481,130.475C135.700,129.658,133.411,129.536,130.516,129.526C129.730,129.520,129.730,129.520,128.928,129.514C127.208,129.504,125.488,129.505,123.768,129.506C122.565,129.504,121.363,129.500,120.161,129.497C117.646,129.491,115.131,129.492,112.616,129.495C109.399,129.500,106.182,129.487,102.965,129.470C100.484,129.459,98.003,129.459,95.522,129.461C94.336,129.461,93.150,129.457,91.964,129.449C90.304,129.440,88.645,129.445,86.985,129.454C86.042,129.453,85.099,129.453,84.127,129.452C81.353,129.750,79.550,130.538,77.154,131.932C77.125,131.159,77.125,131.159,77.096,130.370C76.818,125.708,76.245,121.825,73.480,117.971C72.848,117.421,72.216,116.872,71.565,116.306C68.792,113.139,69.310,109.922,69.499,105.927C70.022,101.404,71.621,99.003,75.041,96.019C78.257,93.642,80.418,93.606,84.307,93.592ZZ" style="fill: rgb(236, 234, 230);"/></g></g><g id="shape-9cb78f69-99ab-8025-8006-23528dc5646e"><g class="fills" id="fills-9cb78f69-99ab-8025-8006-23528dc5646e"><path d="M96.259,7.751C118.082,7.751,139.906,7.751,162.390,7.751C162.390,22.057,162.390,36.364,162.390,51.104C160.482,49.196,158.579,47.282,156.745,45.303C156.070,44.588,155.396,43.874,154.721,43.159C154.389,42.790,154.057,42.421,153.715,42.041C151.940,40.191,150.877,39.387,148.320,38.971C146.003,39.387,145.353,39.772,143.883,41.552C142.841,42.792,142.841,42.792,141.816,43.756C139.612,43.756,139.612,43.756,138.607,42.832C138.241,42.379,137.876,41.926,137.499,41.460C137.055,40.935,136.611,40.410,136.153,39.870C135.597,39.212,135.041,38.555,134.468,37.878C132.882,36.021,131.271,34.190,129.646,32.367C129.248,31.900,128.850,31.432,128.439,30.951C128.049,30.517,127.658,30.082,127.255,29.634C126.911,29.241,126.566,28.847,126.211,28.442C124.186,27.111,122.877,27.226,120.507,27.590C118.930,28.771,117.732,29.830,116.400,31.242C115.840,31.808,115.840,31.808,115.269,32.385C114.081,33.594,112.908,34.817,111.735,36.041C110.950,36.841,110.164,37.641,109.377,38.440C105.685,42.207,102.073,46.023,98.685,50.069C97.728,51.104,97.728,51.104,96.259,51.839C96.259,37.290,96.259,22.741,96.259,7.751ZZ" style="fill: rgb(236, 234, 230);"/></g></g><g id="shape-9cb78f69-99ab-8025-8006-23528dc64e39"><g class="fills" id="fills-9cb78f69-99ab-8025-8006-23528dc64e39"><path d="M62.248,118.450C64.888,118.852,66.375,119.870,68.336,121.645C70.402,125.011,70.872,127.889,70.891,131.762C70.902,132.293,70.914,132.823,70.925,133.369C70.960,135.049,70.981,136.728,71.000,138.407C71.027,140.100,71.056,141.792,71.090,143.485C71.110,144.534,71.126,145.585,71.137,146.635C70.970,149.043,70.970,149.043,72.010,151.037C74.284,151.114,76.541,151.144,78.816,151.143C79.887,151.147,79.887,151.147,80.981,151.151C83.355,151.158,85.730,151.159,88.104,151.160C89.747,151.162,91.390,151.165,93.033,151.167C96.481,151.172,99.930,151.173,103.379,151.173C107.808,151.173,112.237,151.183,116.666,151.195C120.060,151.203,123.455,151.205,126.849,151.205C128.482,151.205,130.116,151.209,131.749,151.214C134.029,151.222,136.309,151.220,138.590,151.215C139.611,151.221,139.611,151.221,140.652,151.228C141.581,151.223,141.581,151.223,142.529,151.218C143.338,151.219,143.338,151.219,144.164,151.219C145.675,151.147,145.675,151.147,146.960,149.567C147.086,147.733,147.128,145.973,147.109,144.139C147.117,143.029,147.125,141.919,147.135,140.808C147.142,139.060,147.143,137.313,147.129,135.565C147.058,124.574,147.058,124.574,149.841,121.263C152.968,118.743,154.652,118.441,158.570,118.505C160.186,118.705,160.186,118.705,162.069,119.854C163.616,122.477,163.736,123.787,163.125,126.788C162.169,127.484,161.184,128.140,160.183,128.769C157.923,130.662,157.307,131.610,156.754,134.548C156.566,137.733,156.645,140.915,156.742,144.102C156.780,145.752,156.809,147.401,156.816,149.051C156.824,150.546,156.863,152.041,156.903,153.535C156.389,157.013,155.301,158.134,152.838,160.589C151.078,161.469,149.979,161.422,148.013,161.432C147.307,161.437,146.600,161.442,145.872,161.448C145.094,161.450,144.316,161.452,143.515,161.454C142.289,161.461,142.289,161.461,141.038,161.468C138.324,161.483,135.609,161.492,132.895,161.499C131.970,161.502,131.044,161.505,130.091,161.508C125.698,161.522,121.306,161.532,116.913,161.538C111.845,161.546,106.778,161.565,101.711,161.595C97.320,161.620,92.929,161.628,88.538,161.631C86.671,161.635,84.804,161.643,82.937,161.657C80.325,161.675,77.713,161.674,75.101,161.669C74.329,161.678,73.557,161.688,72.761,161.698C68.357,161.666,65.816,161.318,62.458,158.385C60.546,155.854,60.791,153.181,60.761,150.092C60.743,149.040,60.724,147.988,60.706,146.936C60.684,145.285,60.667,143.634,60.653,141.983C60.637,140.384,60.608,138.786,60.578,137.187C60.568,136.233,60.558,135.278,60.548,134.294C60.457,131.975,60.457,131.975,59.257,130.604C58.859,130.315,58.460,130.026,58.049,129.727C56.028,128.074,56.028,128.074,54.375,126.053C54.375,123.474,54.462,121.753,56.060,119.673C58.059,118.131,59.804,118.359,62.248,118.450ZZ" style="fill: rgb(236, 234, 230);"/></g></g><g id="shape-9cb78f69-99ab-8025-8006-23528dc6ee63"><g class="fills" id="fills-9cb78f69-99ab-8025-8006-23528dc6ee63"><path d="M20.949,20.159C22.096,20.159,23.242,20.163,24.389,20.171C24.991,20.172,25.594,20.173,26.214,20.174C28.146,20.178,30.078,20.187,32.010,20.197C33.316,20.200,34.623,20.204,35.929,20.207C39.139,20.215,42.348,20.227,45.557,20.242C45.698,20.745,45.838,21.248,45.983,21.766C46.637,24.105,47.291,26.445,47.946,28.785C48.299,30.049,48.299,30.049,48.660,31.338C50.070,36.377,51.494,41.412,52.963,46.434C53.991,50.177,54.903,53.951,55.845,57.717C40.083,57.717,24.322,57.717,8.083,57.717C8.553,54.423,8.991,51.646,9.885,48.518C10.096,47.772,10.308,47.027,10.525,46.259C10.750,45.478,10.974,44.698,11.206,43.894C11.671,42.259,12.136,40.624,12.601,38.988C12.946,37.780,12.946,37.780,13.297,36.547C13.907,34.396,14.503,32.242,15.092,30.085C15.259,29.472,15.427,28.860,15.599,28.229C15.910,27.090,16.218,25.952,16.525,24.813C17.772,20.262,17.772,20.262,20.949,20.159ZZ" style="fill: rgb(236, 234, 230);"/></g></g><g id="shape-9cb78f69-99ab-8025-8006-23528dc76dc4"><g class="fills" id="fills-9cb78f69-99ab-8025-8006-23528dc76dc4"><path d="M121.977,34.938C124.422,35.754,124.927,36.353,126.523,38.291C128.850,41.042,131.318,43.572,133.897,46.087C135.203,47.430,135.203,47.430,136.764,49.588C138.082,51.267,138.082,51.267,140.301,51.931C142.697,52.069,142.697,52.069,144.480,50.140C145.056,49.488,145.631,48.836,146.225,48.165C147.804,47.307,147.804,47.307,149.164,46.695C152.671,50.139,156.173,53.590,159.497,57.212C160.101,57.867,160.101,57.867,160.717,58.535C161.656,59.922,161.656,59.922,162.390,63.596C140.567,63.596,118.743,63.596,96.259,63.596C97.067,60.361,97.772,59.623,100.099,57.361C100.737,56.734,101.374,56.107,102.031,55.461C102.702,54.811,103.374,54.162,104.066,53.492C108.114,49.544,112.096,45.612,115.772,41.313C117.028,39.856,118.353,38.488,119.726,37.143C120.157,36.719,120.588,36.294,121.032,35.857C121.344,35.554,121.655,35.251,121.977,34.938ZZ" style="fill: rgb(236, 234, 230);"/></g></g><g id="shape-9cb78f69-99ab-8025-8006-23528dc79ac8"><g class="fills" id="fills-9cb78f69-99ab-8025-8006-23528dc79ac8"><path d="M86.901,135.865C87.687,135.856,87.687,135.856,88.488,135.846C90.213,135.830,91.936,135.840,93.661,135.853C94.864,135.850,96.068,135.847,97.271,135.842C99.790,135.837,102.310,135.844,104.829,135.862C108.052,135.883,111.274,135.871,114.497,135.849C116.981,135.835,119.466,135.839,121.950,135.849C123.138,135.851,124.326,135.848,125.514,135.840C127.178,135.830,128.840,135.845,130.504,135.865C131.922,135.870,131.922,135.870,133.368,135.874C136.852,136.507,138.010,137.347,140.346,140.015C140.346,141.712,140.346,143.409,140.346,145.158C119.493,145.158,98.639,145.158,77.154,145.158C77.889,140.015,77.889,140.015,79.438,137.886C82.111,135.942,83.614,135.875,86.901,135.865ZZ" style="fill: rgb(236, 234, 230);"/></g></g><g id="shape-9cb78f69-99ab-8025-8006-23528dc7ddba"><g class="fills" id="fills-9cb78f69-99ab-8025-8006-23528dc7ddba"><path d="M149.899,15.099C152.008,16.417,153.199,17.291,154.308,19.508C154.611,22.663,154.491,24.310,152.976,27.131C150.955,29.557,149.822,29.720,146.730,30.070C143.136,29.705,142.131,28.641,139.612,26.121C138.473,23.843,138.664,22.021,138.877,19.508C141.838,14.967,144.710,14.427,149.899,15.099ZZ" style="fill: rgb(159, 92, 57);"/></g></g><g id="shape-9cb78f69-99ab-8025-8006-23528dc97c28"><g class="fills" id="fills-9cb78f69-99ab-8025-8006-23528dc97c28"><path d="M23.924,167.814C24.556,167.811,25.187,167.809,25.838,167.806C27.176,167.802,28.515,167.801,29.854,167.801C31.907,167.799,33.959,167.786,36.012,167.772C37.310,167.770,38.608,167.768,39.906,167.768C40.831,167.760,40.831,167.760,41.775,167.752C46.124,167.769,46.124,167.769,47.762,169.407C47.762,170.376,47.762,171.346,47.762,172.346C37.335,172.346,26.908,172.346,16.166,172.346C17.286,166.742,18.832,167.820,23.924,167.814ZZ" style="fill: rgb(236, 234, 230);"/></g></g><g id="shape-9cb78f69-99ab-8025-8006-23528dc98332"><g class="fills" id="fills-9cb78f69-99ab-8025-8006-23528dc98332"><path d="M153.573,42.286C154.437,42.967,155.292,43.658,156.145,44.353C156.622,44.737,157.099,45.120,157.591,45.516C158.716,46.695,158.716,46.695,158.716,48.900C157.853,48.219,156.997,47.528,156.145,46.833C155.429,46.258,155.429,46.258,154.698,45.671C153.573,44.491,153.573,44.491,153.573,42.286ZZ" style="fill: rgb(159, 92, 57);"/></g></g><g id="shape-9cb78f69-99ab-8025-8006-23528dc98333"><g class="fills" id="fills-9cb78f69-99ab-8025-8006-23528dc98333"><path d="M66.867,172.346C67.753,174.059,68.458,175.650,69.071,177.489C70.541,178.378,70.541,178.378,72.010,178.959C70.678,179.418,70.678,179.418,69.071,179.694C68.344,179.209,67.616,178.724,66.867,178.224C66.567,176.231,66.769,174.371,66.867,172.346ZZ" style="fill: rgb(159, 92, 57);"/></g></g></g></svg>