<svg width="92.222" xmlns="http://www.w3.org/2000/svg" height="93.035" id="screenshot-2cb83338-012c-8020-8006-32e8c247e495" viewBox="0 0 92.222 93.035" xmlns:xlink="http://www.w3.org/1999/xlink" fill="none" version="1.1"><g id="shape-2cb83338-012c-8020-8006-32e8c247e495" rx="0" ry="0"><g id="shape-2cb83338-012c-8020-8006-32e89376267f"><g class="fills" id="fills-2cb83338-012c-8020-8006-32e89376267f"><path d="M31.360,0.097C33.044,0.089,33.044,0.089,34.763,0.081C37.131,0.074,39.500,0.076,41.868,0.084C45.474,0.093,49.078,0.064,52.684,0.032C54.993,0.030,57.301,0.031,59.610,0.034C60.679,0.023,61.748,0.012,62.849,0.000C71.189,0.077,76.932,2.120,83.868,6.655C90.982,14.093,92.363,21.820,92.212,31.819C92.212,32.962,92.212,34.106,92.212,35.284C92.206,37.686,92.189,40.087,92.160,42.489C92.118,46.152,92.119,49.813,92.126,53.475C92.115,55.819,92.102,58.163,92.087,60.507C92.086,62.137,92.086,62.137,92.086,63.800C91.944,72.983,90.349,79.799,83.618,86.530C75.943,92.112,68.013,92.845,58.786,92.866C57.238,92.876,57.238,92.876,55.659,92.886C53.483,92.896,51.307,92.901,49.131,92.901C45.826,92.905,42.522,92.941,39.217,92.979C37.094,92.985,34.971,92.989,32.848,92.991C31.872,93.005,30.896,93.020,29.890,93.035C21.234,92.978,12.902,90.814,6.618,84.530C0.764,76.837,0.292,70.057,0.247,60.702C0.238,59.558,0.229,58.414,0.219,57.235C0.205,54.817,0.196,52.400,0.192,49.983C0.180,46.306,0.131,42.632,0.081,38.956C0.071,36.600,0.064,34.245,0.059,31.890C0.040,30.801,0.020,29.712,0.000,28.590C0.047,20.493,1.783,13.712,7.373,7.616C14.595,0.824,21.817,0.070,31.360,0.097ZZM12.805,15.280C8.640,21.468,8.309,27.616,8.317,34.831C8.313,35.707,8.308,36.584,8.304,37.487C8.298,39.333,8.298,41.180,8.302,43.026C8.305,45.824,8.282,48.621,8.256,51.419C7.860,66.385,7.860,66.385,14.055,79.530C18.714,83.166,22.389,83.907,28.243,84.155C29.010,84.192,29.778,84.228,30.569,84.266C37.749,84.566,44.932,84.668,52.118,84.718C53.203,84.731,54.288,84.744,55.405,84.757C67.321,84.901,67.321,84.901,78.055,80.405C83.686,74.088,84.070,67.308,84.016,59.222C84.019,58.255,84.022,57.289,84.025,56.294C84.027,54.261,84.021,52.228,84.009,50.195C83.993,47.105,84.009,44.016,84.028,40.927C84.026,38.942,84.022,36.957,84.016,34.972C84.022,34.059,84.028,33.146,84.035,32.206C83.959,25.223,83.301,18.213,78.180,13.093C74.182,10.655,71.524,9.282,66.777,9.255C65.819,9.246,64.860,9.236,63.873,9.227C62.844,9.228,61.815,9.228,60.755,9.229C59.156,9.223,59.156,9.223,57.526,9.216C55.273,9.211,53.019,9.210,50.765,9.214C47.329,9.218,43.892,9.194,40.456,9.169C38.264,9.167,36.072,9.166,33.880,9.167C32.856,9.158,31.833,9.148,30.779,9.139C23.377,9.187,18.290,9.917,12.805,15.280ZZ" style="fill: rgb(255, 255, 255);"/></g></g><g id="shape-2cb83338-012c-8020-8006-32e8b0dbf138"><g class="fills" id="fills-2cb83338-012c-8020-8006-32e8b0dbf138"><path d="M56.868,24.530C62.808,27.869,67.013,32.320,70.055,38.405C71.527,46.583,71.128,53.381,66.618,60.530C62.926,65.236,58.635,69.303,52.618,70.530C44.957,71.315,37.896,71.418,31.618,66.530C26.809,61.996,23.131,56.889,22.114,50.233C21.972,41.863,22.890,35.875,28.618,29.530C37.049,22.519,46.485,19.792,56.868,24.530ZM53.805,33.218C48.508,30.413,42.758,30.666,37.618,33.718C34.319,36.707,31.961,39.416,31.227,43.932C30.988,49.615,31.681,53.179,35.618,57.530C39.156,60.657,41.667,61.775,46.305,61.843C51.574,61.670,54.814,60.239,58.618,56.530C60.891,52.616,61.906,48.866,61.555,44.343C60.226,38.936,58.034,36.694,53.805,33.218Z" style="fill: rgb(255, 255, 255); fill-opacity: 1;"/></g></g></g></svg>