<svg width="192.659" xmlns="http://www.w3.org/2000/svg" height="165.828" id="screenshot-ac5c97d8-4cc0-804e-8006-2407431422e9" viewBox="0 0 192.659 165.828" xmlns:xlink="http://www.w3.org/1999/xlink" fill="none" version="1.1"><g id="shape-ac5c97d8-4cc0-804e-8006-2407431422e9" rx="0" ry="0"><g id="shape-ac5c97d8-4cc0-804e-8006-2406c71b2880"><g class="fills" id="fills-ac5c97d8-4cc0-804e-8006-2406c71b2880"><path d="M190.385,24.408C192.955,26.978,192.642,27.997,192.651,31.564C192.655,33.098,192.655,33.098,192.658,34.662C192.651,35.733,192.643,36.804,192.635,37.908C192.647,39.515,192.647,39.515,192.658,41.154C192.656,42.176,192.653,43.199,192.651,44.252C192.648,45.192,192.646,46.132,192.644,47.101C192.385,49.408,192.385,49.408,190.385,51.408C188.323,51.158,188.323,51.158,186.385,50.408C185.237,48.112,185.077,46.331,184.823,43.783C184.697,42.557,184.697,42.557,184.569,41.306C184.508,40.680,184.447,40.053,184.385,39.408C183.567,40.334,183.567,40.334,182.733,41.279C166.423,59.596,148.221,73.475,126.885,85.470C126.048,85.948,125.211,86.426,124.349,86.918C119.608,89.525,115.801,91.051,110.385,91.408C109.890,88.933,109.890,88.933,109.385,86.408C109.978,86.092,110.571,85.775,111.182,85.449C136.310,72.005,162.439,57.053,179.385,33.408C175.095,33.738,170.805,34.068,166.385,34.408C165.890,31.933,165.890,31.933,165.385,29.408C167.620,27.173,168.331,27.044,171.342,26.556C172.517,26.363,172.517,26.363,173.715,26.166C174.534,26.039,175.353,25.913,176.198,25.783C177.005,25.649,177.813,25.515,178.645,25.377C186.908,24.050,186.908,24.050,190.385,24.408ZZ" style="fill: rgb(159, 92, 57);"/></g></g><g id="shape-ac5c97d8-4cc0-804e-8006-2406c71c4392"><g class="fills" id="fills-ac5c97d8-4cc0-804e-8006-2406c71c4392"><path d="M80.385,76.408C81.705,76.408,83.025,76.408,84.385,76.408C84.447,77.274,84.447,77.274,84.510,78.158C85.825,81.540,88.361,82.557,91.385,84.408C93.385,86.408,93.385,86.408,93.510,89.033C93.469,89.817,93.428,90.600,93.385,91.408C91.698,92.220,91.698,92.220,89.385,92.408C87.718,90.741,86.052,89.075,84.385,87.408C81.756,86.823,81.756,86.823,79.385,87.408C77.035,89.306,77.035,89.306,77.260,92.533C77.322,93.956,77.322,93.956,77.385,95.408C78.210,95.655,79.035,95.903,79.885,96.158C84.758,97.898,89.457,99.721,93.385,103.158C94.907,106.583,95.013,109.775,94.385,113.408C92.698,116.845,92.698,116.845,90.385,119.408C87.635,120.283,87.635,120.283,85.385,120.408C85.385,122.058,85.385,123.708,85.385,125.408C83.729,125.790,82.060,126.122,80.385,126.408C79.385,125.408,79.385,125.408,79.323,122.845C79.343,122.041,79.364,121.237,79.385,120.408C78.643,120.325,77.900,120.243,77.135,120.158C73.772,119.241,72.468,118.186,70.385,115.408C70.135,112.658,70.135,112.658,70.385,110.408C72.860,109.913,72.860,109.913,75.385,109.408C75.901,110.254,76.416,111.099,76.948,111.970C77.752,112.775,78.556,113.579,79.385,114.408C83.741,114.450,83.741,114.450,87.385,112.408C87.426,110.742,87.428,109.074,87.385,107.408C86.493,106.961,85.601,106.513,84.682,106.052C83.511,105.448,82.341,104.843,81.135,104.220C79.975,103.629,78.815,103.037,77.619,102.427C73.830,100.062,71.033,97.768,69.819,93.345C69.827,89.314,70.087,87.797,72.635,84.470C75.065,82.648,76.418,81.738,79.385,81.408C79.715,79.758,80.045,78.108,80.385,76.408ZZ" style="fill: rgb(159, 92, 57);"/></g></g><g id="shape-ac5c97d8-4cc0-804e-8006-24073a665395"><g class="fills" id="fills-ac5c97d8-4cc0-804e-8006-24073a665395"><path d="M171.541,68.142C173.075,68.138,173.075,68.138,174.639,68.135C175.710,68.142,176.781,68.150,177.885,68.158C179.492,68.146,179.492,68.146,181.131,68.135C182.153,68.137,183.176,68.140,184.229,68.142C185.169,68.145,186.110,68.147,187.078,68.149C189.385,68.408,189.385,68.408,191.385,70.408C191.589,73.350,191.668,76.197,191.660,79.140C191.667,80.497,191.667,80.497,191.675,81.880C191.689,84.879,191.688,87.878,191.686,90.877C191.690,92.954,191.694,95.032,191.699,97.109C191.706,101.467,191.706,105.825,191.701,110.183C191.695,115.779,191.712,121.374,191.735,126.970C191.750,131.261,191.751,135.552,191.748,139.843C191.748,141.907,191.753,143.971,191.763,146.034C191.776,148.915,191.769,151.795,191.757,154.676C191.769,155.964,191.769,155.964,191.780,157.279C191.759,159.650,191.759,159.650,191.385,163.408C187.013,166.323,183.027,165.738,177.885,165.720C176.441,165.745,176.441,165.745,174.967,165.769C174.043,165.770,173.119,165.771,172.166,165.771C170.899,165.776,170.899,165.776,169.606,165.780C166.847,165.318,166.121,164.561,164.385,162.408C164.094,159.420,163.986,156.642,164.013,153.654C164.009,152.759,164.005,151.865,164.002,150.943C163.994,147.982,164.007,145.021,164.022,142.060C164.022,140.007,164.022,137.953,164.020,135.900C164.020,131.595,164.031,127.290,164.049,122.985C164.072,117.457,164.072,111.930,164.065,106.403C164.062,102.162,164.069,97.922,164.078,93.682C164.082,91.643,164.083,89.604,164.082,87.566C164.081,84.721,164.094,81.877,164.110,79.033C164.108,78.184,164.105,77.336,164.103,76.462C164.163,69.930,164.938,68.158,171.541,68.142ZM171.385,74.408C171.385,102.968,171.385,130.688,171.385,158.408C175.805,158.408,180.095,158.408,184.385,158.408C184.385,129.848,184.385,102.128,184.385,74.408C179.965,74.408,175.675,74.408,171.385,74.408Z" style="fill: rgb(159, 92, 57);"/></g></g><g id="shape-ac5c97d8-4cc0-804e-8006-24072e4d6c84"><g class="fills" id="fills-ac5c97d8-4cc0-804e-8006-24072e4d6c84"><path d="M139.323,92.142C140.788,92.138,140.788,92.138,142.283,92.135C143.307,92.142,144.330,92.150,145.385,92.158C146.409,92.150,147.432,92.142,148.487,92.135C149.464,92.137,150.441,92.140,151.448,92.142C152.346,92.145,153.244,92.147,154.170,92.149C156.385,92.408,156.385,92.408,158.385,94.408C158.639,97.255,158.639,97.255,158.644,100.937C158.647,101.607,158.651,102.277,158.654,102.968C158.663,105.188,158.657,107.407,158.651,109.627C158.652,111.166,158.654,112.705,158.656,114.245C158.659,117.473,158.655,120.701,158.646,123.929C158.634,128.072,158.641,132.215,158.653,136.358C158.660,139.537,158.658,142.716,158.653,145.896C158.651,147.423,158.653,148.951,158.658,150.479C158.663,152.612,158.655,154.745,158.644,156.879C158.641,158.702,158.641,158.702,158.639,160.561C158.385,163.408,158.385,163.408,156.385,165.408C154.170,165.667,154.170,165.667,151.448,165.674C150.470,165.676,149.493,165.679,148.487,165.681C147.463,165.674,146.440,165.666,145.385,165.658C144.361,165.666,143.338,165.673,142.283,165.681C141.306,165.679,140.329,165.676,139.323,165.674C138.424,165.671,137.526,165.669,136.600,165.667C134.385,165.408,134.385,165.408,132.385,163.408C132.131,160.561,132.131,160.561,132.126,156.879C132.123,156.209,132.119,155.539,132.116,154.848C132.107,152.628,132.113,150.409,132.119,148.189C132.118,146.650,132.116,145.111,132.114,143.571C132.111,140.343,132.115,137.115,132.124,133.887C132.136,129.744,132.129,125.601,132.117,121.458C132.110,118.279,132.112,115.100,132.117,111.920C132.119,110.393,132.117,108.865,132.112,107.337C132.107,105.203,132.115,103.071,132.126,100.937C132.128,99.722,132.129,98.507,132.131,97.255C132.578,92.240,134.870,92.154,139.323,92.142ZM138.385,99.408C138.385,119.468,138.385,138.938,138.385,158.408C143.145,158.408,147.765,158.408,152.385,158.408C152.385,138.348,152.385,118.878,152.385,99.408C147.625,99.408,143.005,99.408,138.385,99.408Z" style="fill: rgb(159, 92, 57);"/></g></g><g id="shape-ac5c97d8-4cc0-804e-8006-2407174b457b"><g class="fills" id="fills-ac5c97d8-4cc0-804e-8006-2407174b457b"><path d="M62.010,1.908C63.124,2.403,64.238,2.898,65.385,3.408C69.713,4.080,72.742,3.694,76.760,1.908C81.439,-0.028,85.386,-0.336,90.385,0.408C94.740,2.585,97.858,5.229,100.385,9.408C101.307,16.191,98.601,20.630,95.385,26.345C94.908,27.220,94.431,28.095,93.940,28.996C92.768,31.141,91.583,33.277,90.385,35.408C91.133,36.062,91.133,36.062,91.896,36.729C92.388,37.283,92.879,37.837,93.385,38.408C93.296,39.821,93.296,39.821,93.205,41.263C93.062,44.632,93.062,44.632,95.877,47.084C96.991,47.980,98.120,48.858,99.260,49.720C100.456,50.678,101.652,51.636,102.846,52.595C103.444,53.067,104.042,53.539,104.657,54.025C117.209,64.072,117.209,64.072,121.385,70.408C121.198,73.283,121.198,73.283,120.385,75.408C115.358,75.042,113.007,72.429,109.760,68.908C105.123,64.077,100.370,59.683,95.053,55.588C92.385,53.408,92.385,53.408,90.061,50.853C84.007,44.595,78.447,43.397,70.010,43.220C59.868,43.384,53.809,45.733,46.815,52.954C45.365,54.428,43.855,55.782,42.291,57.135C24.857,72.291,9.163,91.851,7.100,115.705C6.774,127.781,10.013,138.377,18.237,147.451C25.839,154.554,34.251,157.464,44.552,157.613C45.773,157.633,46.994,157.653,48.252,157.674C49.560,157.690,50.869,157.707,52.217,157.724C53.578,157.745,54.938,157.766,56.299,157.787C59.867,157.842,63.437,157.892,67.006,157.940C70.652,157.991,74.299,158.046,77.946,158.101C85.092,158.209,92.238,158.310,99.385,158.408C99.369,157.121,99.354,155.834,99.337,154.508C99.283,149.739,99.249,144.970,99.220,140.201C99.205,138.136,99.185,136.071,99.159,134.006C99.122,131.040,99.105,128.074,99.092,125.107C99.077,124.182,99.061,123.257,99.045,122.304C99.045,121.443,99.045,120.583,99.044,119.696C99.034,118.560,99.034,118.560,99.024,117.401C99.485,114.856,100.366,113.976,102.385,112.408C104.606,112.020,104.606,112.020,107.166,112.010C108.091,112.006,109.015,112.002,109.967,111.998C110.930,112.009,111.893,112.021,112.885,112.033C113.848,112.021,114.811,112.010,115.803,111.998C117.189,112.004,117.189,112.004,118.604,112.010C119.449,112.013,120.294,112.016,121.164,112.020C123.934,112.504,124.663,113.216,126.385,115.408C126.766,117.533,126.766,117.533,126.773,120.015C126.783,120.946,126.792,121.878,126.802,122.837C126.796,123.840,126.790,124.843,126.783,125.877C126.786,126.909,126.789,127.940,126.792,129.004C126.794,131.186,126.789,133.368,126.776,135.550C126.760,138.895,126.776,142.239,126.795,145.584C126.793,147.702,126.789,149.821,126.783,151.939C126.790,152.942,126.796,153.946,126.802,154.979C126.788,156.376,126.788,156.376,126.773,157.801C126.771,158.620,126.768,159.439,126.766,160.283C126.385,162.408,126.385,162.408,125.353,164.172C122.260,166.115,119.049,165.825,115.508,165.796C114.305,165.804,114.305,165.804,113.078,165.812C110.419,165.825,107.762,165.817,105.104,165.806C103.251,165.808,101.398,165.811,99.546,165.815C95.655,165.820,91.765,165.813,87.874,165.799C82.913,165.782,77.951,165.792,72.990,165.810C69.158,165.821,65.327,165.817,61.495,165.809C59.668,165.807,57.840,165.810,56.013,165.817C40.706,165.863,28.129,164.095,15.198,155.220C4.011,144.034,0.061,131.477,0.000,116.056C0.461,89.713,18.534,69.753,36.311,52.279C44.487,44.408,44.487,44.408,47.385,44.408C46.890,41.438,46.890,41.438,46.385,38.408C47.375,38.078,48.365,37.748,49.385,37.408C48.831,36.395,48.276,35.382,47.705,34.338C46.973,32.986,46.242,31.635,45.510,30.283C45.145,29.618,44.780,28.953,44.405,28.267C41.078,22.098,38.617,16.578,39.385,9.408C44.265,0.009,52.444,-2.050,62.010,1.908ZM106.385,119.408C106.385,132.668,106.385,145.538,106.385,158.408C110.805,158.408,115.095,158.408,119.385,158.408C119.385,145.148,119.385,132.278,119.385,119.408C114.965,119.408,110.675,119.408,106.385,119.408ZM59.385,8.408C54.614,7.388,49.656,5.999,46.385,10.408C45.546,15.803,45.546,15.803,52.492,27.912C52.860,28.548,53.216,29.166,53.573,29.783C54.842,31.992,56.112,34.201,57.385,36.408C59.004,36.649,60.625,36.866,62.248,37.076C69.228,37.744,77.762,39.319,83.585,34.640C88.862,28.068,92.517,19.813,93.385,11.408C92.343,10.398,92.343,10.398,91.323,9.408C87.614,6.883,85.804,6.875,81.385,7.408C74.835,10.374,68.815,12.029,61.823,9.470C60.994,9.109,60.189,8.759,59.385,8.408Z" style="fill: rgb(159, 92, 57);"/></g></g><g id="shape-ac5c97d8-4cc0-804e-8006-2406fd51e2cd"><g class="fills" id="fills-ac5c97d8-4cc0-804e-8006-2406fd51e2cd"><path d="M41.385,81.408C57.326,80.375,57.326,80.375,61.823,84.283C63.881,86.509,65.374,88.270,65.405,91.396C64.948,96.521,64.303,99.727,60.385,103.408C59.725,103.408,59.065,103.408,58.385,103.408C58.986,104.372,59.586,105.336,60.205,106.330C60.974,107.605,61.743,108.881,62.510,110.158C62.908,110.792,63.307,111.426,63.717,112.080C64.830,113.955,64.830,113.955,66.385,117.408C65.627,119.861,65.627,119.861,64.385,121.408C62.104,121.314,62.104,121.314,59.385,120.408C57.326,117.163,55.836,113.802,54.229,110.314C52.673,107.186,52.673,107.186,49.666,106.502C48.537,106.455,48.537,106.455,47.385,106.408C47.397,107.407,47.408,108.406,47.420,109.435C47.429,110.726,47.438,112.016,47.448,113.345C47.459,114.633,47.471,115.921,47.483,117.248C47.385,120.408,47.385,120.408,46.385,121.408C43.885,121.533,43.885,121.533,41.385,121.408C39.574,119.597,40.256,117.115,40.246,114.705C40.248,113.907,40.250,113.109,40.252,112.287C40.251,111.472,40.250,110.657,40.249,109.817C40.249,108.089,40.250,106.362,40.255,104.634C40.260,101.985,40.255,99.336,40.248,96.687C40.249,95.012,40.250,93.337,40.252,91.662C40.250,90.866,40.248,90.070,40.246,89.250C40.270,83.638,40.270,83.638,41.385,81.408ZM47.385,87.408C47.385,91.828,47.385,96.118,47.385,100.408C50.635,100.658,50.635,100.658,54.385,100.408C56.823,98.783,56.823,98.783,58.385,96.408C58.834,93.264,58.889,91.353,57.385,88.533C54.742,87.046,54.742,87.046,47.385,87.408Z" style="fill: rgb(159, 92, 57);"/></g></g></g></svg>