<svg width="191.289" xmlns="http://www.w3.org/2000/svg" height="181.228" id="screenshot-ac5c97d8-4cc0-804e-8006-24094f7ace7b" viewBox="0 -0 191.289 181.228" xmlns:xlink="http://www.w3.org/1999/xlink" fill="none" version="1.1"><g id="shape-ac5c97d8-4cc0-804e-8006-24094f7ace7b" rx="0" ry="0"><g id="shape-ac5c97d8-4cc0-804e-8006-2408fb7952b0"><g class="fills" id="fills-ac5c97d8-4cc0-804e-8006-2408fb7952b0"><path d="M55.644,0.598C60.244,3.056,62.330,5.969,64.644,10.598C64.644,14.228,64.644,17.858,64.644,21.598C85.104,21.598,105.564,21.598,126.644,21.598C126.644,18.628,126.644,15.658,126.644,12.598C127.810,8.232,129.993,5.234,133.207,2.098C138.094,-0.035,142.393,-0.161,147.644,0.598C152.059,2.605,154.683,5.188,156.965,9.516C158.254,13.464,157.941,17.500,157.644,21.598C159.597,21.545,159.597,21.545,161.590,21.492C163.316,21.464,165.043,21.437,166.769,21.410C167.625,21.385,168.481,21.360,169.363,21.334C175.473,21.264,179.802,21.980,184.472,26.281C184.942,26.860,185.411,27.439,185.894,28.035C186.374,28.611,186.853,29.188,187.347,29.781C190.027,33.534,190.895,36.275,190.918,40.909C190.928,41.985,190.938,43.062,190.949,44.171C190.949,45.347,190.950,46.523,190.951,47.735C190.959,48.978,190.967,50.220,190.976,51.501C190.996,54.908,191.007,58.315,191.012,61.723C191.015,63.855,191.022,65.987,191.029,68.119C191.053,75.568,191.066,83.016,191.070,90.465C191.073,97.390,191.103,104.316,191.145,111.241C191.180,117.199,191.195,123.156,191.196,129.114C191.197,132.667,191.206,136.220,191.234,139.772C191.265,143.743,191.256,147.713,191.244,151.684C191.266,153.430,191.266,153.430,191.289,155.211C191.222,162.650,189.959,168.424,185.644,174.598C180.269,179.817,175.378,180.717,168.143,180.752C167.166,180.758,167.166,180.758,166.170,180.765C163.990,180.778,161.810,180.784,159.630,180.791C158.066,180.798,156.502,180.807,154.938,180.815C149.804,180.842,144.669,180.857,139.535,180.871C137.766,180.876,135.996,180.882,134.227,180.887C126.867,180.909,119.506,180.928,112.146,180.939C101.606,180.955,91.067,180.988,80.527,181.045C73.111,181.084,65.696,181.104,58.280,181.109C53.853,181.112,49.426,181.124,44.999,181.157C40.833,181.187,36.667,181.193,32.500,181.182C30.975,181.181,29.449,181.190,27.924,181.207C19.796,181.296,12.947,181.353,6.644,175.598C0.001,168.779,0.343,161.187,0.338,152.202C0.330,150.955,0.321,149.709,0.313,148.425C0.293,145.018,0.282,141.611,0.277,138.204C0.273,136.072,0.267,133.940,0.260,131.808C0.235,124.362,0.222,116.916,0.219,109.470C0.215,102.543,0.185,95.617,0.143,88.690C0.109,82.730,0.093,76.771,0.093,70.812C0.092,67.258,0.083,63.704,0.055,60.150C0.023,56.184,0.032,52.219,0.045,48.252C0.030,47.084,0.015,45.916,0.000,44.713C0.063,37.730,0.991,32.950,5.644,27.598C9.723,23.603,12.684,21.465,18.433,21.500C19.374,21.503,20.315,21.506,21.285,21.510C22.762,21.522,22.762,21.522,24.269,21.535C25.262,21.540,26.254,21.544,27.277,21.549C29.733,21.561,32.189,21.577,34.644,21.598C34.603,20.815,34.562,20.032,34.519,19.225C34.242,13.122,34.374,9.330,38.644,4.598C39.304,3.814,39.964,3.030,40.644,2.223C45.495,-0.405,50.268,-0.355,55.644,0.598ZM10.644,70.598C10.582,85.654,10.521,100.710,10.457,116.223C10.430,120.971,10.402,125.720,10.374,130.612C10.364,134.880,10.364,134.880,10.358,139.149C10.353,141.045,10.343,142.941,10.328,144.838C10.306,147.716,10.303,150.593,10.304,153.471C10.293,154.312,10.282,155.152,10.271,156.018C10.297,160.942,10.850,164.367,13.644,168.598C16.966,171.773,19.410,171.974,23.931,171.979C25.224,171.987,26.517,171.996,27.848,172.004C29.279,171.998,30.709,171.992,32.140,171.986C33.648,171.990,35.156,171.995,36.664,172.002C40.759,172.015,44.854,172.010,48.949,172.001C53.236,171.993,57.523,172.000,61.809,172.005C69.010,172.010,76.211,172.003,83.412,171.989C91.733,171.972,100.053,171.978,108.374,171.994C115.520,172.008,122.666,172.010,129.811,172.002C134.078,171.997,138.345,171.997,142.612,172.007C146.626,172.015,150.639,172.009,154.653,171.992C156.124,171.988,157.596,171.989,159.067,171.996C161.079,172.004,163.091,171.992,165.103,171.979C166.791,171.977,166.791,171.977,168.512,171.975C173.065,171.426,176.463,169.947,179.498,166.479C181.109,162.431,181.040,158.812,180.985,154.493C180.985,153.571,180.986,152.648,180.986,151.698C180.984,148.720,180.961,145.743,180.937,142.766C180.933,140.924,180.930,139.082,180.928,137.241C180.912,130.422,180.871,123.604,180.832,116.785C180.770,101.543,180.708,86.301,180.644,70.598C124.544,70.598,68.444,70.598,10.644,70.598ZM53.410,10.247C50.367,9.923,48.296,9.612,45.744,11.440C44.410,13.247,44.410,13.247,44.022,15.651C44.018,16.608,44.015,17.537,44.012,18.466C44.006,20.018,44.006,20.018,44.000,21.540C44.012,22.630,44.024,23.689,44.035,24.747C44.023,25.837,44.012,26.896,44.000,27.954C44.004,28.999,44.008,30.014,44.012,31.028C44.023,34.030,43.951,35.624,45.744,38.053C48.186,39.803,48.186,39.803,53.410,39.247C55.410,37.247,55.410,37.247,55.669,34.757C55.671,33.701,55.674,32.677,55.676,31.653C55.678,30.507,55.681,29.394,55.684,28.282C55.676,27.080,55.668,25.913,55.660,24.747C55.668,23.545,55.676,22.378,55.684,21.212C55.681,20.066,55.678,18.953,55.676,17.841C55.668,14.151,56.057,12.894,53.410,10.247ZM139.273,10.234C137.273,13.234,137.273,13.234,137.015,15.639C137.012,16.596,137.010,17.524,137.008,18.453C137.004,20.006,137.004,20.006,137.000,21.527C137.008,22.618,137.016,23.676,137.023,24.734C137.015,25.825,137.008,26.883,137.000,27.941C137.003,28.987,137.005,30.001,137.008,31.016C137.017,34.867,137.068,35.926,139.273,39.234C142.773,39.609,142.773,39.609,146.273,39.234C148.273,36.234,148.273,36.234,148.532,33.722C148.535,32.716,148.537,31.739,148.539,30.762C148.542,29.665,148.544,28.601,148.547,27.537C148.539,26.393,148.531,25.282,148.523,24.172C148.531,23.024,148.539,21.909,148.547,20.795C148.544,19.700,148.542,18.637,148.539,17.574C148.531,13.954,148.876,12.837,146.273,10.234C142.773,9.922,142.773,9.922,139.273,10.234ZM26.625,30.206C22.991,30.168,19.310,29.614,16.000,31.269C11.000,37.269,11.000,37.269,11.000,61.269C68.800,61.269,124.900,61.269,181.000,61.269C181.000,37.269,181.000,37.269,178.000,33.269C174.462,30.473,171.722,29.939,167.229,30.005C166.198,30.044,166.198,30.044,165.188,30.081C162.790,30.128,160.397,30.187,158.000,30.269C157.571,36.388,156.631,40.264,153.000,45.269C148.088,48.894,142.885,48.819,137.000,48.269C132.381,45.021,132.381,45.021,129.000,40.269C127.990,35.219,127.990,35.219,127.000,30.269C105.920,30.269,85.460,30.269,65.000,30.269C64.320,34.009,63.660,37.639,63.000,41.269C59.892,45.412,58.734,46.547,54.000,48.269C48.995,48.776,45.265,49.112,41.000,46.269C36.312,41.804,35.394,38.678,35.043,32.245C35.028,31.573,35.014,30.921,35.000,30.269C33.018,30.250,31.036,30.232,29.055,30.220C28.229,30.215,27.427,30.211,26.625,30.206Z" style="fill: rgb(159, 92, 57);"/></g></g><g id="shape-ac5c97d8-4cc0-804e-8006-24093c6b1d6d"><g class="fills" id="fills-ac5c97d8-4cc0-804e-8006-24093c6b1d6d"><path d="M57.242,128.421C60.438,129.686,61.778,130.908,64.055,133.421C66.326,139.159,66.019,145.130,64.055,150.921C61.421,154.553,58.786,156.172,54.340,156.890C45.134,156.984,45.134,156.984,41.555,154.108C37.734,149.668,37.961,145.701,38.027,140.081C38.297,136.736,39.024,134.945,41.242,132.421C41.902,131.658,42.562,130.895,43.242,130.108C47.807,127.541,52.122,127.789,57.242,128.421ZM52.063,138.056C49.160,137.792,48.505,138.413,47.000,140.869C47.313,144.056,47.313,144.056,48.000,146.869C50.375,147.494,50.375,147.494,53.000,147.869C55.377,145.491,55.670,144.166,56.000,140.869C54.000,138.869,54.000,138.869,52.063,138.056Z" style="fill: rgb(159, 92, 57);"/></g></g><g id="shape-ac5c97d8-4cc0-804e-8006-24092febf885"><g class="fills" id="fills-ac5c97d8-4cc0-804e-8006-24092febf885"><path d="M144.637,85.374C148.492,87.370,150.235,88.771,152.637,92.374C153.312,98.938,153.781,105.898,149.637,111.374C144.807,114.471,139.150,114.117,133.637,113.374C130.408,111.744,128.276,109.652,126.637,106.374C125.600,94.069,125.600,94.069,128.387,89.686C133.125,84.816,138.098,84.518,144.637,85.374ZM141.313,95.152C139.188,94.839,139.188,94.839,136.188,96.839C135.938,99.902,135.938,99.902,136.188,102.839C137.632,104.284,137.632,104.284,142.188,104.839C142.868,104.159,143.528,103.499,144.188,102.839C144.375,99.777,144.375,99.777,144.188,96.839C143.188,95.839,143.188,95.839,141.313,95.152Z" style="fill: rgb(159, 92, 57);"/></g></g><g id="shape-ac5c97d8-4cc0-804e-8006-24091fddc09c"><g class="fills" id="fills-ac5c97d8-4cc0-804e-8006-24091fddc09c"><path d="M56.578,85.417C60.613,87.634,63.118,90.038,64.578,94.417C65.093,99.796,65.247,104.102,62.765,108.979C60.147,111.897,58.561,113.305,54.617,113.752C53.490,113.765,52.364,113.778,51.203,113.792C49.521,113.834,49.521,113.834,47.804,113.877C43.896,113.319,42.337,112.195,39.578,109.417C36.384,104.713,36.742,98.845,37.578,93.417C41.937,85.528,47.979,84.139,56.578,85.417ZM52.332,95.135C50.207,94.885,50.207,94.885,48.457,96.010C46.814,98.474,46.834,99.977,47.207,102.885C49.207,104.885,49.207,104.885,51.769,105.072C54.207,104.885,54.207,104.885,55.207,103.885C55.332,100.385,55.332,100.385,55.207,96.885C54.207,95.885,54.207,95.885,52.332,95.135Z" style="fill: rgb(159, 92, 57);"/></g></g><g id="shape-ac5c97d8-4cc0-804e-8006-240929de327e"><g class="fills" id="fills-ac5c97d8-4cc0-804e-8006-240929de327e"><path d="M100.776,85.386C103.955,87.030,106.154,89.142,107.776,92.386C107.953,94.840,108.053,97.241,108.089,99.698C108.126,101.014,108.163,102.330,108.202,103.686C107.718,107.888,106.745,109.449,103.776,112.386C99.343,114.602,93.588,113.923,88.776,113.386C85.486,111.788,83.432,109.697,81.776,106.386C80.586,95.615,80.586,95.615,83.046,91.007C88.172,85.032,93.042,84.383,100.776,85.386ZM95.750,95.000C93.188,95.187,93.188,95.187,91.188,97.187C90.938,99.687,90.938,99.687,91.188,102.187C93.188,104.187,93.188,104.187,95.750,104.375C98.188,104.187,98.188,104.187,99.188,103.187C99.313,99.687,99.313,99.687,99.188,96.187C98.188,95.187,98.188,95.187,95.750,95.000Z" style="fill: rgb(159, 92, 57);"/></g></g><g id="shape-ac5c97d8-4cc0-804e-8006-2409466be99b"><g class="fills" id="fills-ac5c97d8-4cc0-804e-8006-2409466be99b"><path d="M101.328,128.458C104.500,130.121,106.704,132.209,108.328,135.458C108.478,137.725,108.550,139.998,108.578,142.271C108.604,143.494,108.630,144.717,108.656,145.978C108.302,149.730,107.662,151.530,105.328,154.458C100.721,157.711,94.694,157.182,89.328,156.458C86.099,154.828,83.967,152.737,82.328,149.458C82.179,147.357,82.107,145.251,82.078,143.146C82.052,142.015,82.027,140.885,82.000,139.720C82.451,135.236,84.020,132.643,87.328,129.646C91.977,127.805,96.405,127.665,101.328,128.458ZM93.000,138.000C92.320,138.680,91.660,139.340,91.000,140.000C91.375,143.625,91.375,143.625,92.000,147.000C92.999,147.021,93.968,147.042,94.938,147.062C98.000,147.000,98.000,147.000,99.000,146.000C99.125,143.000,99.125,143.000,99.000,140.000C97.556,138.556,97.556,138.556,93.000,138.000Z" style="fill: rgb(159, 92, 57);"/></g></g></g></svg>