<svg width="196.006" xmlns="http://www.w3.org/2000/svg" height="162.804" id="screenshot-ac5c97d8-4cc0-804e-8006-24065a949f19" viewBox="0 0 196.006 162.804" xmlns:xlink="http://www.w3.org/1999/xlink" fill="none" version="1.1"><g id="shape-ac5c97d8-4cc0-804e-8006-24065a949f19" rx="0" ry="0"><g id="shape-ac5c97d8-4cc0-804e-8006-2406402fa785" rx="0" ry="0"><g id="shape-ac5c97d8-4cc0-804e-8006-2405dad84cd4"><g class="fills" id="fills-ac5c97d8-4cc0-804e-8006-2405dad84cd4"><path d="M128.417,3.391C130.417,5.391,130.417,5.391,130.647,8.833C130.643,10.206,130.629,11.580,130.604,12.954C130.604,13.652,130.603,14.350,130.602,15.069C130.557,20.251,130.557,20.251,129.417,21.391C128.082,21.442,126.744,21.427,125.409,21.383C124.175,21.358,124.175,21.358,122.917,21.333C121.190,21.289,119.463,21.237,117.737,21.176C112.141,21.081,108.363,21.713,103.417,24.391C100.227,27.670,98.338,31.260,96.417,35.391C97.257,34.907,98.098,34.422,98.964,33.922C105.616,30.972,113.450,31.271,120.405,33.235C126.465,35.957,130.080,39.719,133.417,45.391C134.036,46.402,134.654,47.412,135.292,48.454C138.294,56.375,137.333,66.066,134.417,73.829C130.496,81.999,124.511,87.779,116.261,91.547C108.963,93.713,100.213,93.642,93.214,90.426C84.111,85.182,77.975,78.315,74.417,68.391C70.513,51.880,72.720,33.100,80.628,18.219C86.088,9.589,93.621,3.833,103.362,0.782C111.778,-0.818,120.480,0.290,128.417,3.391ZZM89.417,17.391C79.155,30.863,78.186,45.932,79.417,62.391C80.231,66.438,81.425,69.786,83.417,73.391C83.779,74.062,84.141,74.732,84.514,75.422C88.000,80.999,93.245,84.334,99.417,86.391C107.763,87.280,114.583,86.502,121.417,81.391C127.514,75.136,130.695,69.401,130.792,60.579C130.665,53.462,129.683,48.768,124.698,43.614C118.716,38.227,113.762,38.053,105.815,38.102C100.515,38.553,98.430,40.301,94.792,44.079C93.088,45.705,91.685,45.896,89.417,46.391C89.697,38.895,90.823,32.997,94.417,26.391C94.974,25.319,95.531,24.246,96.104,23.141C99.745,18.811,103.591,15.798,109.396,15.181C114.081,14.968,118.737,15.133,123.417,15.391C123.417,13.411,123.417,11.431,123.417,9.391C110.903,4.841,98.115,6.760,89.417,17.391ZZ" style="fill: rgb(159, 92, 57);"/></g></g><g id="shape-ac5c97d8-4cc0-804e-8006-2405f9adfaf0"><g class="fills" id="fills-ac5c97d8-4cc0-804e-8006-2405f9adfaf0"><path d="M20.932,0.117C22.299,0.102,22.299,0.102,23.693,0.088C24.675,0.089,25.656,0.089,26.667,0.090C27.676,0.086,28.686,0.082,29.726,0.077C31.861,0.072,33.997,0.071,36.132,0.076C39.404,0.079,42.676,0.055,45.948,0.030C48.021,0.028,50.094,0.027,52.167,0.028C53.148,0.019,54.129,0.009,55.140,0.000C56.052,0.006,56.963,0.012,57.901,0.019C58.703,0.018,59.504,0.018,60.330,0.017C62.966,0.490,63.847,1.245,65.417,3.391C65.688,6.008,65.791,8.346,65.729,10.954C65.733,11.639,65.736,12.324,65.739,13.030C65.684,18.124,65.684,18.124,63.417,20.391C60.528,20.710,60.528,20.710,56.878,20.805C55.576,20.844,54.274,20.883,52.932,20.922C51.552,20.954,50.172,20.985,48.792,21.016C47.404,21.054,46.016,21.093,44.628,21.133C41.224,21.228,37.821,21.313,34.417,21.391C34.087,25.021,33.757,28.651,33.417,32.391C34.239,32.345,35.062,32.298,35.909,32.251C45.483,31.941,53.072,32.956,60.292,39.641C61.370,40.860,62.414,42.110,63.417,43.391C63.851,43.930,64.286,44.469,64.733,45.024C69.019,51.685,68.305,60.786,67.417,68.391C65.402,76.977,61.001,82.940,53.542,87.641C43.856,93.434,32.468,93.724,21.542,91.704C16.718,90.445,12.662,87.952,8.417,85.391C8.417,79.781,8.417,74.171,8.417,68.391C13.417,67.391,13.417,67.391,16.917,69.266C17.463,69.635,18.010,70.004,18.573,70.383C22.585,72.576,26.934,72.550,31.417,72.579C32.933,72.600,32.933,72.600,34.479,72.622C37.557,72.380,39.689,71.825,42.417,70.391C44.318,66.408,44.976,62.770,44.417,58.391C42.601,55.318,41.196,53.765,37.972,52.219C32.952,51.050,28.277,51.512,23.167,51.891C21.183,52.036,19.199,52.172,17.214,52.297C16.341,52.363,15.468,52.428,14.568,52.495C12.417,52.391,12.417,52.391,10.417,50.391C9.496,41.983,10.746,33.106,11.354,24.704C11.441,23.437,11.528,22.171,11.618,20.866C11.865,17.372,12.135,13.882,12.417,10.391C12.478,9.532,12.538,8.673,12.601,7.787C12.796,5.622,12.796,5.622,13.417,2.391C16.569,0.290,17.333,0.137,20.932,0.117ZM19.417,7.391C18.065,20.154,17.114,32.566,17.417,45.391C26.502,45.058,37.938,43.156,45.417,49.391C48.790,53.030,50.684,56.576,50.854,61.579C50.188,67.381,48.584,71.224,44.417,75.391C36.227,79.710,27.007,79.343,18.104,77.391C16.851,77.051,15.634,76.721,14.417,76.391C14.417,78.431,14.417,80.411,14.417,82.391C18.016,84.037,21.594,85.358,25.417,86.391C35.635,87.476,45.535,86.808,53.792,80.266C58.786,75.404,61.161,70.794,61.686,63.809C61.791,54.569,60.681,49.265,54.417,42.391C49.473,38.084,49.473,38.084,35.144,37.630C33.234,37.575,31.325,37.486,29.417,37.391C27.883,33.848,27.883,33.848,28.231,29.647C28.231,28.731,28.230,27.842,28.229,26.954C28.217,26.042,28.204,25.157,28.192,24.272C28.189,22.977,28.189,22.977,28.186,21.708C28.124,19.409,28.124,19.409,28.417,17.391C30.291,15.100,30.291,15.100,33.306,15.072C34.547,15.040,35.751,15.009,36.956,14.977C38.956,14.918,40.957,14.859,42.958,14.813C44.351,14.782,45.744,14.747,47.137,14.709C50.353,14.616,53.570,14.529,56.786,14.451C57.681,14.431,58.549,14.411,59.417,14.391C59.417,12.011,59.417,9.701,59.417,7.391C45.817,7.391,32.617,7.391,19.417,7.391Z" style="fill: rgb(159, 92, 57);"/></g></g><g id="shape-ac5c97d8-4cc0-804e-8006-2405dadb7e23"><g class="fills" id="fills-ac5c97d8-4cc0-804e-8006-2405dadb7e23"><path d="M186.171,28.040C187.242,28.156,188.313,28.272,189.417,28.391C187.903,34.178,184.898,38.555,181.604,43.454C180.425,45.236,179.248,47.020,178.073,48.805C177.469,49.723,176.864,50.642,176.241,51.587C173.290,56.123,170.445,60.723,167.604,65.329C167.060,66.203,166.517,67.077,165.956,67.978C163.579,71.812,161.245,75.650,159.069,79.602C158.720,80.220,158.371,80.837,158.012,81.473C157.119,83.066,156.255,84.675,155.393,86.286C153.417,88.391,153.417,88.391,149.690,88.715C148.610,88.608,147.530,88.501,146.417,88.391C147.044,85.348,148.045,83.055,149.647,80.399C150.114,79.623,150.580,78.846,151.060,78.046C151.570,77.211,152.079,76.376,152.604,75.516C153.134,74.641,153.663,73.767,154.209,72.865C159.398,64.336,164.739,55.905,170.151,47.516C172.192,44.345,174.165,41.153,176.057,37.891C176.452,37.228,176.846,36.564,177.252,35.881C178.271,34.157,179.265,32.419,180.257,30.680C182.417,28.391,182.417,28.391,186.171,28.040ZZ" style="fill: rgb(159, 92, 57);"/></g></g><g id="shape-ac5c97d8-4cc0-804e-8006-24060804864a"><g class="fills" id="fills-ac5c97d8-4cc0-804e-8006-24060804864a"><path d="M109.417,44.391C114.372,46.964,117.908,50.374,120.417,55.391C120.919,61.837,121.379,67.976,117.417,73.391C113.348,77.857,110.007,79.344,103.948,79.645C99.536,79.202,96.571,77.451,93.417,74.391C89.969,69.901,88.731,65.251,89.042,59.626C89.851,54.806,91.544,51.099,95.182,47.782C99.997,44.408,103.609,43.548,109.417,44.391ZM105.792,50.454C100.042,50.347,97.883,53.548,95.417,58.391C95.068,62.889,95.943,66.424,97.917,70.454C101.119,72.936,101.119,72.936,107.393,72.665C110.223,72.282,111.196,71.654,113.042,69.454C115.012,65.067,115.233,61.123,114.417,56.391C111.834,52.557,110.257,51.609,105.792,50.454Z" style="fill: rgb(159, 92, 57);"/></g></g><g id="shape-ac5c97d8-4cc0-804e-8006-240639be7391"><g class="fills" id="fills-ac5c97d8-4cc0-804e-8006-240639be7391"><path d="M188.604,62.579C191.848,64.669,193.538,65.995,195.417,69.391C196.279,73.767,196.452,77.640,194.136,81.559C189.437,87.145,189.437,87.145,185.464,87.629C179.930,87.808,176.692,87.259,172.417,83.391C169.506,79.026,168.766,75.596,169.417,70.391C173.683,62.176,179.710,59.265,188.604,62.579ZM185.417,67.391C180.185,66.476,177.150,68.284,175.417,73.266C175.417,76.391,175.417,76.391,176.917,79.266C179.417,81.391,179.417,81.391,182.979,81.954C186.417,81.391,186.417,81.391,188.354,79.766C189.732,76.686,189.904,74.734,189.417,71.391C187.729,69.016,187.729,69.016,185.417,67.391Z" style="fill: rgb(159, 92, 57);"/></g></g><g id="shape-ac5c97d8-4cc0-804e-8006-24062ef456e5"><g class="fills" id="fills-ac5c97d8-4cc0-804e-8006-24062ef456e5"><path d="M158.417,28.391C161.621,29.686,163.007,30.911,165.229,33.516C166.900,37.562,167.094,41.076,166.417,45.391C164.049,50.310,161.544,52.545,156.417,54.391C152.426,54.973,150.793,54.598,147.229,52.641C143.094,49.333,141.373,47.250,140.479,42.016C140.184,38.429,140.417,37.391,142.104,34.016C147.179,28.256,150.906,27.501,158.417,28.391ZM157.417,34.391C154.007,34.026,151.537,33.777,148.479,35.454C146.803,38.511,147.052,40.982,147.417,44.391C148.479,46.329,148.479,46.329,150.417,47.391C153.826,47.756,156.297,48.005,159.354,46.329C161.031,43.271,160.782,40.801,160.417,37.391C159.354,35.454,159.354,35.454,157.417,34.391Z" style="fill: rgb(159, 92, 57);"/></g></g></g><g id="shape-ac5c97d8-4cc0-804e-8006-240653f5e8bf"><g class="fills" id="fills-ac5c97d8-4cc0-804e-8006-240653f5e8bf"><path d="M10.977,108.017C12.143,108.011,12.143,108.011,13.332,108.005C15.944,107.995,18.555,108.007,21.167,108.019C23.036,108.016,24.905,108.013,26.774,108.008C31.857,107.998,36.939,108.008,42.022,108.021C47.333,108.032,52.643,108.028,57.954,108.026C66.873,108.026,75.791,108.037,84.710,108.055C95.033,108.076,105.356,108.080,115.679,108.073C125.596,108.068,135.513,108.073,145.429,108.085C149.656,108.089,153.883,108.090,158.110,108.088C163.083,108.086,168.056,108.094,173.029,108.110C174.859,108.114,176.688,108.115,178.517,108.112C181.006,108.109,183.495,108.118,185.983,108.130C186.715,108.127,187.446,108.123,188.200,108.119C193.189,108.163,193.189,108.163,195.417,110.391C195.678,112.472,195.678,112.472,195.691,115.069C195.701,116.040,195.711,117.011,195.720,118.012C195.719,119.590,195.719,119.590,195.718,121.200C195.722,122.277,195.726,123.355,195.731,124.465C195.736,126.748,195.737,129.030,195.733,131.312C195.729,134.811,195.753,138.309,195.778,141.807C195.780,144.021,195.781,146.236,195.780,148.450C195.789,149.500,195.799,150.550,195.808,151.632C195.802,152.606,195.796,153.580,195.789,154.584C195.790,155.442,195.790,156.300,195.791,157.184C195.307,160.040,194.780,160.708,192.417,162.391C189.832,162.686,187.487,162.796,184.901,162.772C184.129,162.777,183.357,162.782,182.561,162.786C179.965,162.798,177.370,162.789,174.774,162.779C172.917,162.783,171.059,162.789,169.201,162.795C164.150,162.809,159.098,162.804,154.047,162.794C148.767,162.787,143.487,162.794,138.208,162.798C129.340,162.804,120.473,162.797,111.606,162.782C101.345,162.766,91.085,162.771,80.824,162.788C72.024,162.801,63.224,162.803,54.424,162.795C49.164,162.791,43.904,162.790,38.644,162.800C33.700,162.809,28.756,162.803,23.811,162.785C21.993,162.781,20.176,162.783,18.358,162.789C15.883,162.797,13.408,162.787,10.933,162.772C10.208,162.779,9.483,162.786,8.737,162.792C5.821,162.758,3.885,162.725,1.471,161.003C0.040,158.815,0.036,157.298,0.029,154.692C0.019,153.741,0.010,152.790,0.000,151.810C0.006,150.785,0.012,149.760,0.018,148.704C0.016,147.650,0.013,146.596,0.010,145.510C0.008,143.280,0.013,141.051,0.026,138.822C0.042,135.404,0.026,131.988,0.007,128.571C0.009,126.407,0.013,124.243,0.018,122.079C0.012,121.054,0.006,120.029,0.000,118.972C0.014,117.546,0.014,117.546,0.029,116.090C0.031,115.253,0.033,114.416,0.036,113.554C1.092,107.559,5.868,107.965,10.977,108.017ZM94.417,143.391C93.822,144.092,93.244,144.773,92.667,145.454C90.889,147.774,89.073,149.992,87.167,152.204C86.232,153.287,85.324,154.339,84.417,155.391C88.497,155.391,92.457,155.391,96.417,155.391C96.417,151.311,96.417,147.351,96.417,143.391C95.737,143.391,95.077,143.391,94.417,143.391ZM7.417,115.391C7.417,120.151,7.417,124.771,7.417,129.391C7.757,129.391,8.087,129.391,8.417,129.391C8.825,128.954,9.220,128.530,9.616,128.106C10.122,127.502,10.613,126.915,11.104,126.329C11.653,125.678,12.185,125.046,12.718,124.415C13.855,123.061,14.998,121.712,16.147,120.368C17.572,118.710,18.994,117.051,20.417,115.391C15.997,115.391,11.707,115.391,7.417,115.391ZM34.104,115.204C31.073,115.097,29.185,114.796,26.749,116.684C26.296,117.265,25.856,117.828,25.417,118.391C24.928,118.954,24.454,119.501,23.979,120.047C21.284,123.228,18.618,126.210,15.514,129.008C12.581,131.648,9.849,134.265,7.417,137.391C6.566,140.933,6.655,143.844,7.417,147.391C8.532,147.391,8.532,147.391,12.188,143.759C12.727,143.218,13.249,142.693,13.772,142.169C14.881,141.061,15.990,139.954,17.098,138.846C18.843,137.096,20.588,135.345,22.338,133.600C28.253,127.708,34.128,121.864,39.417,115.391C38.255,115.338,38.255,115.338,37.116,115.286C36.092,115.258,35.098,115.231,34.104,115.204ZM96.417,123.391C95.301,123.391,95.301,123.391,91.086,127.558C90.467,128.176,89.866,128.776,89.264,129.376C88.000,130.633,86.737,131.891,85.473,133.149C83.478,135.145,81.481,137.140,79.476,139.127C78.171,140.419,76.869,141.713,75.570,143.009C74.626,143.952,74.626,143.952,73.702,144.876C73.085,145.485,72.486,146.077,71.887,146.669C71.034,147.526,71.034,147.526,70.198,148.367C68.020,150.539,66.695,152.589,65.417,155.391C67.196,155.631,68.986,155.797,70.776,155.934C77.434,155.921,80.545,153.838,85.225,149.272C86.056,148.399,86.861,147.551,87.667,146.704C90.222,144.312,92.586,141.933,94.829,139.245C97.652,134.170,97.113,129.009,96.417,123.391ZM96.417,115.391C89.022,114.537,84.655,114.901,79.293,120.243C78.304,121.314,78.304,121.314,77.335,122.364C75.144,124.595,72.964,126.832,70.817,129.106C69.344,130.669,67.860,132.222,66.364,133.764C59.499,140.798,52.757,147.877,46.417,155.391C48.077,155.583,49.744,155.716,51.412,155.827C57.080,155.812,59.586,154.479,63.541,150.539C64.206,149.818,64.853,149.118,65.499,148.419C67.689,146.187,69.870,143.951,72.016,141.677C73.490,140.113,74.974,138.561,76.469,137.018C83.335,129.984,90.077,122.906,96.417,115.391ZM58.417,115.391C50.153,114.378,45.506,114.918,39.672,121.031C38.948,121.854,38.245,122.654,37.542,123.454C35.996,125.106,34.452,126.760,32.909,128.415C30.734,130.826,28.563,133.236,26.340,135.603C20.192,142.061,14.184,148.590,8.417,155.391C10.077,155.583,11.744,155.716,13.412,155.827C19.080,155.812,21.586,154.479,25.541,150.539C26.206,149.818,26.853,149.118,27.499,148.419C29.689,146.187,31.870,143.951,34.016,141.677C35.490,140.113,36.974,138.561,38.469,137.018C45.335,129.984,52.077,122.906,58.417,115.391ZM77.417,115.391C71.224,114.572,66.765,114.255,62.229,118.954C59.605,122.012,57.019,124.685,53.917,127.266C51.886,128.946,51.886,128.946,50.417,130.391C50.417,131.071,50.417,131.731,50.417,132.391C48.417,132.391,48.417,132.391,46.816,133.749C46.176,134.394,45.554,135.019,44.932,135.645C43.879,136.701,43.879,136.701,42.847,137.737C42.105,138.491,41.386,139.222,40.667,139.954C35.692,144.933,30.931,149.989,26.417,155.391C29.582,155.869,32.605,156.047,35.808,156.044C41.742,154.971,41.742,154.971,49.412,146.431C50.330,145.407,51.260,144.394,52.203,143.394C56.060,139.355,59.813,135.231,63.483,131.021C65.851,128.282,68.148,125.639,70.815,123.184C73.949,120.639,76.113,119.301,77.417,115.391ZM101.417,115.391C101.417,128.991,101.417,142.191,101.417,155.391C131.337,155.391,160.377,155.391,189.417,155.391C189.417,141.791,189.417,128.591,189.417,115.391C159.497,115.391,130.457,115.391,101.417,115.391Z" style="fill: rgb(159, 92, 57);"/></g></g></g></svg>