<svg width="216.765" xmlns="http://www.w3.org/2000/svg" height="122.076" id="screenshot-ac5c97d8-4cc0-804e-8006-240590e3a5aa" viewBox="0 0 216.765 122.076" xmlns:xlink="http://www.w3.org/1999/xlink" fill="none" version="1.1"><g id="shape-ac5c97d8-4cc0-804e-8006-240590e3a5aa" rx="0" ry="0"><g id="shape-ac5c97d8-4cc0-804e-8006-24054ce48988"><g class="fills" id="fills-ac5c97d8-4cc0-804e-8006-24054ce48988"><path d="M193.728,40.059C209.704,40.206,217.371,48.373,216.728,64.559C216.787,71.945,214.954,78.778,211.228,85.059C205.959,89.804,199.792,91.304,192.728,89.559C186.606,86.172,182.773,81.005,181.228,74.059C180.126,65.880,180.793,57.880,183.228,50.059C185.966,45.819,189.466,42.485,193.728,40.059ZM194.728,47.059C191.617,49.245,189.450,52.245,188.228,56.059C187.561,62.059,187.561,68.059,188.228,74.059C188.699,75.805,189.366,77.472,190.228,79.059C197.022,86.090,203.022,85.423,208.228,77.059C209.734,70.126,210.067,63.126,209.228,56.059C206.847,49.118,202.014,46.118,194.728,47.059Z" style="fill: rgb(159, 92, 57);"/></g></g><g id="shape-ac5c97d8-4cc0-804e-8006-2405629d1011"><g class="fills" id="fills-ac5c97d8-4cc0-804e-8006-2405629d1011"><path d="M163.728,41.059C166.347,40.791,168.847,41.124,171.228,42.059C171.728,52.387,171.894,62.720,171.728,73.059C173.728,73.059,175.728,73.059,177.728,73.059C177.728,75.059,177.728,77.059,177.728,79.059C175.728,79.059,173.728,79.059,171.728,79.059C171.893,82.077,171.726,85.077,171.228,88.059C169.561,89.392,167.895,89.392,166.228,88.059C165.730,85.077,165.563,82.077,165.728,79.059C159.719,79.225,153.719,79.058,147.728,78.559C147.131,77.497,146.798,76.331,146.728,75.059C151.855,63.473,157.521,52.139,163.728,41.059ZM164.728,51.059C161.217,58.246,157.551,65.413,153.728,72.559C157.714,73.058,161.714,73.225,165.728,73.059C166.053,65.540,165.720,58.207,164.728,51.059Z" style="fill: rgb(159, 92, 57);"/></g></g><g id="shape-ac5c97d8-4cc0-804e-8006-2404d9caae48" style="opacity: 1;"><g class="fills" id="fills-ac5c97d8-4cc0-804e-8006-2404d9caae48"><path d="M130.728,60.059C132.728,60.059,134.728,60.059,136.728,60.059C136.728,62.392,136.728,64.726,136.728,67.059C138.728,67.059,140.728,67.059,142.728,67.059C143.728,72.059,141.728,74.059,136.728,73.059C137.736,78.226,135.903,79.893,131.228,78.059C130.734,76.425,130.568,74.758,130.728,73.059C125.297,74.465,122.963,72.465,123.728,67.059C126.061,67.059,128.395,67.059,130.728,67.059C130.728,64.726,130.728,62.392,130.728,60.059ZZ" style="shape-rendering: geometricprecision; text-rendering: geometricprecision; fill-rule: evenodd; clip-rule: evenodd; fill: rgb(159, 92, 57);"/></g></g><g id="shape-ac5c97d8-4cc0-804e-8006-2405803867a6"><g class="fills" id="fills-ac5c97d8-4cc0-804e-8006-2405803867a6"><path d="M58.728,0.059C60.427,-0.101,62.094,0.065,63.728,0.559C83.228,20.059,102.728,39.559,122.228,59.059C122.951,61.684,121.951,63.351,119.228,64.059C116.947,62.783,114.947,61.116,113.228,59.059C112.895,79.392,112.561,99.726,112.228,120.059C111.728,120.559,111.228,121.059,110.728,121.559C77.156,122.388,43.656,122.221,10.228,121.059C9.894,100.392,9.561,79.726,9.228,59.059C7.508,61.116,5.508,62.783,3.228,64.059C0.504,63.351,-0.496,61.684,0.228,59.059C19.875,39.578,39.375,19.911,58.728,0.059ZM51.728,80.059C51.728,92.059,51.728,104.059,51.728,116.059C57.728,116.059,63.728,116.059,69.728,116.059C69.728,104.059,69.728,92.059,69.728,80.059C63.728,80.059,57.728,80.059,51.728,80.059ZM60.728,8.059C46.430,22.858,31.930,37.524,17.228,52.059C16.728,73.390,16.561,94.723,16.728,116.059C26.061,116.059,35.394,116.059,44.728,116.059C44.561,102.388,44.728,88.722,45.228,75.059C45.728,74.559,46.228,74.059,46.728,73.559C56.395,72.892,66.061,72.892,75.728,73.559C76.228,74.059,76.728,74.559,77.228,75.059C77.728,88.722,77.895,102.388,77.728,116.059C87.061,116.059,96.395,116.059,105.728,116.059C105.895,94.390,105.728,72.723,105.228,51.059C90.809,36.137,75.976,21.804,60.728,8.059Z" style="fill: rgb(159, 92, 57);"/></g></g></g></svg>