<svg width="83" xmlns="http://www.w3.org/2000/svg" height="154" id="screenshot-ac5c97d8-4cc0-804e-8006-2407aa75a0a2" viewBox="0 0 83 154" xmlns:xlink="http://www.w3.org/1999/xlink" fill="none" version="1.1"><g id="shape-ac5c97d8-4cc0-804e-8006-2407aa75a0a2" rx="0" ry="0"><g id="shape-ac5c97d8-4cc0-804e-8006-24078322422d"><g class="fills" id="fills-ac5c97d8-4cc0-804e-8006-24078322422d"><path d="M0.388,0.000C27.292,0.000,54.195,0.000,81.914,0.000C82.095,11.018,82.276,22.036,82.463,33.387C82.543,36.855,82.623,40.322,82.706,43.895C82.745,48.158,82.745,48.158,82.753,50.160C82.766,51.545,82.797,52.931,82.842,54.316C83.201,66.003,83.201,66.003,80.022,70.120C77.804,71.942,75.598,73.391,73.122,74.835C71.930,75.775,70.752,76.734,69.600,77.721C69.060,78.164,68.520,78.608,67.964,79.064C67.424,79.508,66.884,79.951,66.328,80.408C62.457,83.587,58.580,86.758,54.689,89.912C51.573,92.438,48.555,95.047,45.594,97.752C44.348,98.719,44.348,98.719,42.749,98.719C42.749,99.244,42.749,99.770,42.749,100.311C39.812,99.973,38.233,98.486,36.065,96.588C34.749,95.528,33.446,94.743,31.959,93.942C29.096,92.379,26.764,90.582,24.366,88.369C24.366,87.844,24.366,87.318,24.366,86.777C23.950,86.599,23.534,86.422,23.105,86.239C20.443,84.789,18.139,82.933,15.774,81.055C15.029,80.466,15.029,80.466,14.268,79.865C0.667,69.065,0.667,69.065,0.004,63.856C-0.006,62.665,0.003,61.474,0.025,60.283C0.025,59.620,0.024,58.957,0.024,58.273C0.026,56.134,0.051,53.996,0.076,51.857C0.081,50.533,0.084,49.209,0.086,47.885C0.102,42.986,0.147,38.087,0.188,33.188C0.254,22.236,0.320,11.284,0.388,0.000ZZ" style="fill: rgb(159, 92, 57);"/></g></g><g id="shape-ac5c97d8-4cc0-804e-8006-24078322d339"><g class="fills" id="fills-ac5c97d8-4cc0-804e-8006-24078322d339"><path d="M37.503,104.295C38.167,104.294,38.831,104.293,39.515,104.292C40.545,104.296,40.545,104.296,41.596,104.301C42.630,104.296,42.630,104.296,43.686,104.292C44.349,104.293,45.012,104.294,45.695,104.295C46.298,104.296,46.902,104.296,47.523,104.297C51.062,104.523,52.341,105.997,54.734,108.381C55.809,109.170,56.892,109.949,57.981,110.720C60.529,112.591,62.242,114.181,63.526,117.138C63.526,117.926,63.526,118.715,63.526,119.527C64.053,119.527,64.581,119.527,65.124,119.527C66.168,122.645,66.102,125.630,66.123,128.881C66.140,129.507,66.156,130.133,66.173,130.778C66.202,135.082,65.483,137.977,63.526,141.818C63.130,142.606,63.130,142.606,62.726,143.410C62.199,143.410,61.671,143.410,61.128,143.410C60.963,143.853,60.798,144.297,60.628,144.754C59.068,147.367,57.178,148.749,54.734,150.575C54.206,150.575,53.679,150.575,53.135,150.575C53.135,151.101,53.135,151.626,53.135,152.167C45.493,154.232,37.499,154.963,29.956,152.167C29.956,151.642,29.956,151.117,29.956,150.575C29.116,150.551,29.116,150.551,28.258,150.525C24.907,149.437,23.103,147.080,21.164,144.206C21.164,143.681,21.164,143.155,21.164,142.614C20.637,142.614,20.109,142.614,19.566,142.614C16.536,135.890,14.829,128.967,16.887,121.669C17.518,120.173,17.518,120.173,18.767,117.934C19.030,117.409,19.294,116.883,19.566,116.342C20.093,116.342,20.621,116.342,21.164,116.342C21.447,115.448,21.447,115.448,21.736,114.535C22.935,111.997,24.136,111.044,26.410,109.426C29.008,107.675,29.008,107.675,30.756,105.196C33.015,104.419,35.126,104.298,37.503,104.295ZZ" style="fill: rgb(159, 92, 57);"/></g></g></g></svg>