<svg width="86" xmlns="http://www.w3.org/2000/svg" height="93.03" id="screenshot-2cb83338-012c-8020-8006-32e8fb39e2a1" viewBox="0 0 86 93.03" xmlns:xlink="http://www.w3.org/1999/xlink" fill="none" version="1.1"><g id="shape-2cb83338-012c-8020-8006-32e8fb39e2a1" rx="0" ry="0"><g id="shape-2cb83338-012c-8020-8006-32e89339a0fd"><g class="fills" id="fills-2cb83338-012c-8020-8006-32e89339a0fd"><path d="M30.645,62.996C32.165,65.938,33.685,68.881,35.205,71.823C35.618,72.615,35.618,72.615,36.040,73.424C36.606,74.529,37.153,75.644,37.684,76.766C37.945,77.310,38.207,77.854,38.476,78.414C38.706,78.906,38.936,79.399,39.172,79.907C39.999,81.359,39.999,81.359,42.514,81.827C43.220,81.827,43.926,81.827,44.654,81.827C48.804,75.927,51.710,69.466,54.771,62.996C65.012,62.665,75.349,65.312,83.428,71.638C85.457,73.649,85.898,74.927,86.000,77.731C84.392,82.488,81.475,84.091,77.098,86.393C58.192,95.158,33.537,94.492,13.814,88.747C8.525,86.873,3.376,84.276,0.292,79.567C-0.097,76.978,-0.097,76.978,0.292,74.295C7.125,65.615,19.932,62.820,30.645,62.996ZZ" style="fill: rgb(255, 255, 255);"/></g></g><g id="shape-2cb83338-012c-8020-8006-32e8f213554f"><g class="fills" id="fills-2cb83338-012c-8020-8006-32e8f213554f"><path d="M52.388,1.656C58.971,5.057,64.011,10.173,66.446,17.050C68.689,28.502,63.822,37.366,58.570,47.382C55.944,52.391,53.503,57.479,51.066,62.576C50.358,64.052,49.645,65.526,48.931,67.000C48.496,67.899,48.060,68.799,47.612,69.725C47.228,70.518,46.844,71.311,46.448,72.127C45.530,74.086,44.681,76.056,43.876,78.061C43.362,78.061,42.848,78.061,42.319,78.061C37.018,67.488,31.767,56.896,26.656,46.237C26.022,44.915,26.022,44.915,25.374,43.566C24.270,41.258,23.174,38.947,22.084,36.633C21.828,36.094,21.573,35.555,21.309,34.999C18.415,28.721,17.739,21.859,20.284,15.355C23.553,8.413,27.675,4.509,34.792,1.123C40.084,-0.517,47.218,-0.379,52.388,1.656ZM46.989,10.271C42.722,9.926,38.958,9.427,35.314,11.777C31.327,15.154,29.305,18.383,28.845,23.546C29.347,28.797,31.766,31.922,35.801,35.362C39.770,37.283,43.522,37.275,47.813,36.251C51.749,34.825,53.729,32.682,55.532,29.095C57.320,24.774,57.399,21.370,55.550,17.050C53.499,13.650,50.853,11.495,46.989,10.271Z" style="fill: rgb(255, 255, 255);"/></g></g></g></svg>