<svg width="487" xmlns="http://www.w3.org/2000/svg" height="523" id="screenshot-2ea5408f-294c-8069-8006-32da0b9af0f9" viewBox="0 0 487 523" xmlns:xlink="http://www.w3.org/1999/xlink" fill="none" version="1.1"><g id="shape-2ea5408f-294c-8069-8006-32da0b9af0f9" rx="0" ry="0"><g id="shape-2ea5408f-294c-8069-8006-32d9cc13df9d"><g class="fills" id="fills-2ea5408f-294c-8069-8006-32d9cc13df9d"><path d="M0.000,0.000C0.016,0.000,0.032,0.000,0.000,0.000ZC0.723,0.000,1.398,0.000,2.073,0.000C2.732,0.000,3.391,0.000,4.049,0.000C4.724,0.000,5.399,0.000,6.074,0.000C6.733,0.000,7.392,0.000,8.051,0.000C8.726,0.000,9.401,0.000,10.076,0.000C10.734,0.000,11.393,0.000,12.052,0.000C12.727,0.000,13.402,0.000,14.077,0.000C14.736,0.000,15.395,0.000,16.054,0.000C16.728,0.000,17.403,0.000,18.078,0.000C18.737,0.000,19.396,0.000,20.055,0.000C20.730,0.000,21.405,0.000,22.080,0.000C22.739,0.000,23.398,0.000,24.056,0.000C24.731,0.000,25.406,0.000,26.081,0.000C26.740,0.000,27.399,0.000,28.058,0.000C28.733,0.000,29.408,0.000,30.083,0.000C30.742,0.000,31.401,0.000,32.060,0.000C32.735,0.000,33.410,0.000,34.085,0.000C34.744,0.000,35.403,0.000,36.062,0.000C36.737,0.000,37.412,0.000,38.087,0.000C38.746,0.000,39.405,0.000,40.064,0.000C40.739,0.000,41.414,0.000,42.089,0.000C42.748,0.000,43.407,0.000,44.066,0.000C44.741,0.000,45.416,0.000,46.091,0.000C46.750,0.000,47.409,0.000,48.068,0.000C48.743,0.000,49.419,0.000,50.094,0.000C50.753,0.000,51.412,0.000,52.071,0.000C52.746,0.000,53.421,0.000,54.096,0.000C54.756,0.000,55.415,0.000,56.074,0.000C56.749,0.000,57.424,0.000,58.099,0.000C58.759,0.000,59.418,0.000,60.077,0.000C60.752,0.000,61.427,0.000,62.103,0.000C62.762,0.000,63.421,0.000,64.080,0.000C64.755,0.000,65.431,0.000,66.106,0.000C66.765,0.000,67.424,0.000,68.084,0.000C68.759,0.000,69.434,0.000,70.110,0.000C70.769,0.000,71.428,0.000,72.087,0.000C72.763,0.000,73.438,0.000,74.114,0.000C74.773,0.000,75.432,0.000,76.092,0.000C76.767,0.000,77.442,0.000,78.118,0.000C78.777,0.000,79.437,0.000,80.096,0.000C80.772,0.000,81.447,0.000,82.123,0.000C82.782,0.000,83.441,0.000,84.101,0.000C84.776,0.000,85.452,0.000,86.128,0.000C86.787,0.000,87.447,0.000,88.106,0.000C88.782,0.000,89.457,0.000,90.133,0.000C90.792,0.000,91.452,0.000,92.112,0.000C92.787,0.000,93.463,0.000,94.139,0.000C94.798,0.000,95.458,0.000,96.117,0.000C96.793,0.000,97.469,0.000,98.145,0.000C98.804,0.000,99.464,0.000,100.124,0.000C100.800,0.000,101.475,0.000,102.151,0.000C102.811,0.000,103.471,0.000,104.130,0.000C104.806,0.000,105.482,0.000,106.158,0.000C106.818,0.000,107.478,0.000,108.138,0.000C108.814,0.000,109.490,0.000,110.165,0.000C110.825,0.000,111.485,0.000,112.145,0.000C112.821,0.000,113.497,0.000,114.173,0.000C114.833,0.000,115.493,0.000,116.153,0.000C116.829,0.000,117.505,0.000,118.182,0.000C118.842,0.000,119.502,0.000,120.162,0.000C120.838,0.000,121.514,0.000,122.190,0.000C122.851,0.000,123.511,0.000,124.171,0.000C124.847,0.000,125.523,0.000,126.200,0.000C126.860,0.000,127.520,0.000,128.180,0.000C128.857,0.000,129.533,0.000,130.210,0.000C130.870,0.000,131.530,0.000,132.191,0.000C132.867,0.000,133.543,0.000,134.220,0.000C134.880,0.000,135.541,0.000,136.201,0.000C136.878,0.000,137.554,0.000,138.231,0.000C138.891,0.000,139.552,0.000,140.212,0.000C140.889,0.000,141.566,0.000,142.242,0.000C142.919,0.000,143.596,0.000,144.273,0.000C144.933,0.000,145.594,0.000,146.255,0.000C146.931,0.000,147.608,0.000,148.285,0.000C148.946,0.000,149.607,0.000,150.267,0.000C150.944,0.000,151.621,0.000,152.298,0.000C152.959,0.000,153.620,0.000,154.281,0.000C154.958,0.000,155.635,0.000,156.312,0.000C156.973,0.000,157.634,0.000,158.295,0.000C158.972,0.000,159.649,0.000,160.326,0.000C160.987,0.000,161.648,0.000,162.309,0.000C162.987,0.000,163.664,0.000,164.341,0.000C165.002,0.000,165.663,0.000,166.325,0.000C167.002,0.000,167.679,0.000,168.357,0.000C169.018,0.000,169.679,0.000,170.341,0.000C171.018,0.000,171.696,0.000,172.373,0.000C173.034,0.000,173.696,0.000,174.357,0.000C175.035,0.000,175.713,0.000,176.390,0.000C177.052,0.000,177.713,0.000,178.375,0.000C179.053,0.000,179.730,0.000,180.408,0.000C181.070,0.000,181.731,0.000,182.393,0.000C183.071,0.000,183.749,0.000,184.427,0.000C185.088,0.000,185.750,0.000,186.412,0.000C187.090,0.000,187.768,0.000,188.446,0.000C189.108,0.000,189.770,0.000,190.432,0.000C191.110,0.000,191.788,0.000,192.466,0.000C193.128,0.000,193.790,0.000,194.452,0.000C195.131,0.000,195.809,0.000,196.487,0.000C197.149,0.000,197.811,0.000,198.474,0.000C199.152,0.000,199.830,0.000,200.509,0.000C201.171,0.000,201.833,0.000,202.496,0.000C203.174,0.000,203.853,0.000,204.531,0.000C205.194,0.000,205.856,0.000,206.519,0.000C207.197,0.000,207.876,0.000,208.555,0.000C209.217,0.000,209.880,0.000,210.543,0.000C211.221,0.000,211.900,0.000,212.579,0.000C213.242,0.000,213.905,0.000,214.567,0.000C215.246,0.000,215.925,0.000,216.604,0.000C217.267,0.000,217.930,0.000,218.593,0.000C219.272,0.000,219.951,0.000,220.631,0.000C221.294,0.000,221.957,0.000,222.620,0.000C223.299,0.000,223.978,0.000,224.658,0.000C225.321,0.000,225.984,0.000,226.647,0.000C227.327,0.000,228.006,0.000,228.685,0.000C229.349,0.000,230.012,0.000,230.676,0.000C231.355,0.000,232.035,0.000,232.714,0.000C233.378,0.000,234.041,0.000,234.705,0.000C235.385,0.000,236.064,0.000,236.744,0.000C237.408,0.000,238.072,0.000,238.735,0.000C239.415,0.000,240.095,0.000,240.775,0.000C241.439,0.000,242.103,0.000,242.767,0.000C243.447,0.000,244.127,0.000,244.807,0.000C245.471,0.000,246.135,0.000,246.799,0.000C247.479,0.000,248.160,0.000,248.840,0.000C249.504,0.000,250.168,0.000,250.832,0.000C251.513,0.000,252.193,0.000,252.874,0.000C253.538,0.000,254.203,0.000,254.867,0.000C255.548,0.000,256.228,0.000,256.909,0.000C257.573,0.000,258.238,0.000,258.902,0.000C259.583,0.000,260.264,0.000,260.945,0.000C261.610,0.000,262.274,0.000,262.939,0.000C263.620,0.000,264.301,0.000,264.982,0.000C265.647,0.000,266.312,0.000,266.977,0.000C267.658,0.000,268.339,0.000,269.020,0.000C269.685,0.000,270.350,0.000,271.015,0.000C271.697,0.000,272.378,0.000,273.060,0.000C273.725,0.000,274.390,0.000,275.055,0.000C275.737,0.000,276.418,0.000,277.100,0.000C277.766,0.000,278.431,0.000,279.096,0.000C279.778,0.000,280.460,0.000,281.142,0.000C281.807,0.000,282.473,0.000,283.139,0.000C283.821,0.000,284.503,0.000,285.185,0.000C285.850,0.000,286.516,0.000,287.182,0.000C287.864,0.000,288.546,0.000,289.229,0.000C289.895,0.000,290.561,0.000,291.227,0.000C291.909,0.000,292.591,0.000,293.274,0.000C293.940,0.000,294.606,0.000,295.272,0.000C295.955,0.000,296.638,0.000,297.320,0.000C297.987,0.000,298.653,0.000,299.319,0.000C300.002,0.000,300.685,0.000,301.368,0.000C302.034,0.000,302.701,0.000,303.368,0.000C304.051,0.000,304.734,0.000,305.417,0.000C306.084,0.000,306.750,0.000,307.417,0.000C308.100,0.000,308.784,0.000,309.467,0.000C310.134,0.000,310.801,0.000,311.468,0.000C312.152,0.000,312.835,0.000,313.518,0.000C314.186,0.000,314.853,0.000,315.520,0.000C316.204,0.000,316.887,0.000,317.571,0.000C318.239,0.000,318.906,0.000,319.574,0.000C320.257,0.000,320.941,0.000,321.625,0.000C322.293,0.000,322.961,0.000,323.628,0.000C324.312,0.000,324.997,0.000,325.681,0.000C326.349,0.000,327.017,0.000,327.685,0.000C328.369,0.000,329.053,0.000,329.738,0.000C330.406,0.000,331.074,0.000,331.742,0.000C332.426,0.000,333.111,0.000,333.796,0.000C334.464,0.000,335.132,0.000,335.801,0.000C336.486,0.000,337.170,0.000,337.855,0.000C338.524,0.000,339.192,0.000,339.861,0.000C340.546,0.000,341.231,0.000,341.916,0.000C342.585,0.000,343.254,0.000,343.923,0.000C344.608,0.000,345.293,0.000,345.979,0.000C346.648,0.000,347.317,0.000,347.986,0.000C348.671,0.000,349.357,0.000,350.042,0.000C350.712,0.000,351.381,0.000,352.050,0.000C352.736,0.000,353.422,0.000,354.108,0.000C354.777,0.000,355.447,0.000,356.116,0.000C356.802,0.000,357.488,0.000,358.174,0.000C358.844,0.000,359.514,0.000,360.184,0.000C360.870,0.000,361.556,0.000,362.243,0.000C362.912,0.000,363.583,0.000,364.253,0.000C364.939,0.000,365.626,0.000,366.312,0.000C366.982,0.000,367.653,0.000,368.323,0.000C369.010,0.000,369.697,0.000,370.383,0.000C371.054,0.000,371.725,0.000,372.395,0.000C373.082,0.000,373.769,0.000,374.456,0.000C375.127,0.000,375.798,0.000,376.469,0.000C377.156,0.000,377.843,0.000,378.531,0.000C379.202,0.000,379.873,0.000,380.544,0.000C381.231,0.000,381.919,0.000,382.606,0.000C383.278,0.000,383.949,0.000,384.620,0.000C385.308,0.000,385.996,0.000,386.684,0.000C387.355,0.000,388.027,0.000,388.699,0.000C389.387,0.000,390.075,0.000,390.763,0.000C391.435,0.000,392.107,0.000,392.779,0.000C393.451,0.000,394.123,0.000,394.795,0.000C395.467,0.000,396.139,0.000,396.811,0.000C397.483,0.000,398.155,0.000,398.828,0.000C399.500,0.000,400.172,0.000,400.845,0.000C401.517,0.000,402.190,0.000,402.862,0.000C403.535,0.000,404.208,0.000,404.880,0.000C405.553,0.000,406.226,0.000,406.899,0.000C407.572,0.000,408.245,0.000,408.918,0.000C409.591,0.000,410.264,0.000,410.937,0.000C411.594,0.000,412.250,0.000,412.907,0.000C413.580,0.000,414.254,0.000,414.927,0.000C415.601,0.000,416.274,0.000,416.948,0.000C417.621,0.000,418.295,0.000,418.969,0.000C419.642,0.000,420.316,0.000,420.990,0.000C421.664,0.000,422.338,0.000,423.012,0.000C423.686,0.000,424.360,0.000,425.034,0.000C425.708,0.000,426.382,0.000,427.056,0.000C427.731,0.000,428.405,0.000,429.079,0.000C429.737,0.000,430.395,0.000,431.053,0.000C431.728,0.000,432.403,0.000,433.077,0.000C433.752,0.000,434.427,0.000,435.102,0.000C435.777,0.000,436.451,0.000,437.126,0.000C437.801,0.000,438.476,0.000,439.152,0.000C439.827,0.000,440.502,0.000,441.177,0.000C441.853,0.000,442.528,0.000,443.203,0.000C443.879,0.000,444.554,0.000,445.230,0.000C445.905,0.000,446.581,0.000,447.257,0.000C447.933,0.000,448.608,0.000,449.284,0.000C449.944,0.000,450.603,0.000,451.263,0.000C451.939,0.000,452.615,0.000,453.291,0.000C453.967,0.000,454.644,0.000,455.320,0.000C455.996,0.000,456.673,0.000,457.349,0.000C458.026,0.000,458.702,0.000,459.379,0.000C460.055,0.000,460.732,0.000,461.409,0.000C462.086,0.000,462.763,0.000,463.440,0.000C464.117,0.000,464.794,0.000,465.471,0.000C466.148,0.000,466.825,0.000,467.502,0.000C468.163,0.000,468.824,0.000,469.485,0.000C470.162,0.000,470.840,0.000,471.517,0.000C472.195,0.000,472.873,0.000,473.550,0.000C474.228,0.000,474.906,0.000,475.584,0.000C476.262,0.000,476.940,0.000,477.618,0.000C478.296,0.000,478.974,0.000,479.652,0.000C480.330,0.000,481.009,0.000,481.687,0.000C482.365,0.000,483.044,0.000,483.722,0.000C484.384,0.000,485.047,0.000,485.709,0.000C486.123,0.000,486.536,0.000,486.950,0.000C486.967,0.000,486.983,0.000,487.000,0.000C487.000,0.017,487.000,0.035,487.000,0.052C487.000,0.725,487.000,1.398,487.000,2.071C487.000,2.744,487.000,3.417,487.000,4.090C487.000,4.763,487.000,5.436,487.000,6.109C487.000,6.782,487.000,7.455,487.000,8.128C487.000,8.818,487.000,9.509,487.000,10.199C487.000,10.872,487.000,11.545,487.000,12.218C487.000,12.891,487.000,13.564,487.000,14.237C487.000,14.910,487.000,15.583,487.000,16.257C487.000,16.930,487.000,17.603,487.000,18.276C487.000,18.949,487.000,19.622,487.000,20.295C487.000,20.968,487.000,21.641,487.000,22.314C487.000,22.987,487.000,23.660,487.000,24.333C487.000,25.006,487.000,25.679,487.000,26.353C487.000,27.026,487.000,27.699,487.000,28.372C487.000,29.045,487.000,29.718,487.000,30.391C487.000,31.064,487.000,31.737,487.000,32.410C487.000,33.084,487.000,33.757,487.000,34.430C487.000,35.103,487.000,35.776,487.000,36.449C487.000,37.122,487.000,37.795,487.000,38.469C487.000,39.142,487.000,39.815,487.000,40.488C487.000,41.178,487.000,41.869,487.000,42.559C487.000,43.233,487.000,43.906,487.000,44.579C487.000,45.252,487.000,45.925,487.000,46.598C487.000,47.272,487.000,47.945,487.000,48.618C487.000,49.291,487.000,49.965,487.000,50.638C487.000,51.311,487.000,51.984,487.000,52.657C487.000,53.331,487.000,54.004,487.000,54.677C487.000,55.350,487.000,56.024,487.000,56.697C487.000,57.370,487.000,58.044,487.000,58.717C487.000,59.390,487.000,60.063,487.000,60.737C487.000,61.410,487.000,62.083,487.000,62.757C487.000,63.430,487.000,64.103,487.000,64.777C487.000,65.450,487.000,66.124,487.000,66.797C487.000,67.470,487.000,68.144,487.000,68.817C487.000,69.490,487.000,70.164,487.000,70.837C487.000,71.511,487.000,72.184,487.000,72.858C487.000,73.548,487.000,74.239,487.000,74.930C487.000,75.603,487.000,76.277,487.000,76.950C487.000,77.624,487.000,78.297,487.000,78.971C487.000,79.644,487.000,80.318,487.000,80.991C487.000,81.665,487.000,82.338,487.000,83.012C487.000,83.685,487.000,84.359,487.000,85.032C487.000,85.706,487.000,86.380,487.000,87.053C487.000,87.727,487.000,88.401,487.000,89.074C487.000,89.748,487.000,90.421,487.000,91.095C487.000,91.769,487.000,92.442,487.000,93.116C487.000,93.790,487.000,94.464,487.000,95.137C487.000,95.811,487.000,96.485,487.000,97.158C487.000,97.832,487.000,98.506,487.000,99.180C487.000,99.854,487.000,100.527,487.000,101.201C487.000,101.875,487.000,102.549,487.000,103.223C487.000,103.896,487.000,104.570,487.000,105.244C487.000,105.935,487.000,106.627,487.000,107.318C487.000,107.992,487.000,108.666,487.000,109.340C487.000,110.013,487.000,110.687,487.000,111.361C487.000,112.035,487.000,112.709,487.000,113.383C487.000,114.057,487.000,114.731,487.000,115.405C487.000,116.079,487.000,116.754,487.000,117.428C487.000,118.102,487.000,118.776,487.000,119.450C487.000,120.124,487.000,120.798,487.000,121.472C487.000,122.147,487.000,122.821,487.000,123.495C487.000,124.169,487.000,124.843,487.000,125.518C487.000,126.192,487.000,126.866,487.000,127.540C487.000,128.215,487.000,128.889,487.000,129.563C487.000,130.237,487.000,130.912,487.000,131.586C487.000,132.260,487.000,132.935,487.000,133.609C487.000,134.284,487.000,134.958,487.000,135.632C487.000,136.307,487.000,136.981,487.000,137.656C487.000,138.348,487.000,139.039,487.000,139.731C487.000,140.406,487.000,141.080,487.000,141.755C487.000,142.429,487.000,143.104,487.000,143.779C487.000,144.453,487.000,145.128,487.000,145.802C487.000,146.477,487.000,147.152,487.000,147.826C487.000,148.501,487.000,149.176,487.000,149.851C487.000,150.525,487.000,151.200,487.000,151.875C487.000,152.550,487.000,153.224,487.000,153.899C487.000,154.574,487.000,155.249,487.000,155.924C487.000,156.599,487.000,157.274,487.000,157.949C487.000,158.623,487.000,159.298,487.000,159.973C487.000,160.648,487.000,161.323,487.000,161.998C487.000,162.673,487.000,163.349,487.000,164.024C487.000,164.699,487.000,165.374,487.000,166.049C487.000,166.724,487.000,167.399,487.000,168.074C487.000,168.750,487.000,169.425,487.000,170.100C487.000,170.793,487.000,171.485,487.000,172.178C487.000,172.853,487.000,173.528,487.000,174.204C487.000,174.879,487.000,175.554,487.000,176.230C487.000,176.905,487.000,177.581,487.000,178.256C487.000,178.931,487.000,179.607,487.000,180.282C487.000,180.958,487.000,181.633,487.000,182.309C487.000,182.985,487.000,183.660,487.000,184.336C487.000,185.011,487.000,185.687,487.000,186.363C487.000,187.038,487.000,187.714,487.000,188.390C487.000,189.065,487.000,189.741,487.000,190.417C487.000,191.093,487.000,191.769,487.000,192.444C487.000,193.120,487.000,193.796,487.000,194.472C487.000,195.148,487.000,195.824,487.000,196.500C487.000,197.176,487.000,197.852,487.000,198.528C487.000,199.204,487.000,199.880,487.000,200.556C487.000,201.232,487.000,201.908,487.000,202.584C487.000,203.278,487.000,203.971,487.000,204.665C487.000,205.341,487.000,206.017,487.000,206.694C487.000,207.370,487.000,208.046,487.000,208.723C487.000,209.399,487.000,210.075,487.000,210.752C487.000,211.428,487.000,212.104,487.000,212.781C487.000,213.457,487.000,214.134,487.000,214.810C487.000,215.487,487.000,216.164,487.000,216.840C487.000,217.517,487.000,218.193,487.000,218.870C487.000,219.547,487.000,220.223,487.000,220.900C487.000,221.577,487.000,222.254,487.000,222.930C487.000,223.607,487.000,224.284,487.000,224.961C487.000,225.638,487.000,226.315,487.000,226.992C487.000,227.669,487.000,228.346,487.000,229.023C487.000,229.700,487.000,230.377,487.000,231.054C487.000,231.731,487.000,232.408,487.000,233.085C487.000,233.762,487.000,234.439,487.000,235.117C487.000,235.811,487.000,236.506,487.000,237.200C487.000,237.878,487.000,238.555,487.000,239.232C487.000,239.910,487.000,240.587,487.000,241.265C487.000,241.942,487.000,242.620,487.000,243.297C487.000,243.975,487.000,244.652,487.000,245.330C487.000,246.007,487.000,246.685,487.000,247.363C487.000,248.040,487.000,248.718,487.000,249.396C487.000,250.074,487.000,250.751,487.000,251.429C487.000,252.107,487.000,252.785,487.000,253.463C487.000,254.141,487.000,254.819,487.000,255.497C487.000,256.174,487.000,256.852,487.000,257.531C487.000,258.209,487.000,258.887,487.000,259.565C487.000,260.243,487.000,260.921,487.000,261.599C487.000,262.278,487.000,262.956,487.000,263.634C487.000,264.312,487.000,264.991,487.000,265.669C487.000,266.347,487.000,267.026,487.000,267.704C487.000,268.400,487.000,269.096,487.000,269.792C487.000,270.471,487.000,271.149,487.000,271.828C487.000,272.506,487.000,273.185,487.000,273.864C487.000,274.543,487.000,275.221,487.000,275.900C487.000,276.579,487.000,277.258,487.000,277.937C487.000,278.615,487.000,279.294,487.000,279.973C487.000,280.652,487.000,281.331,487.000,282.010C487.000,282.689,487.000,283.368,487.000,284.048C487.000,284.727,487.000,285.406,487.000,286.085C487.000,286.764,487.000,287.444,487.000,288.123C487.000,288.802,487.000,289.482,487.000,290.161C487.000,290.840,487.000,291.520,487.000,292.199C487.000,292.879,487.000,293.558,487.000,294.238C487.000,294.917,487.000,295.597,487.000,296.277C487.000,296.956,487.000,297.636,487.000,298.316C487.000,298.996,487.000,299.675,487.000,300.355C487.000,301.053,487.000,301.750,487.000,302.447C487.000,303.127,487.000,303.807,487.000,304.487C487.000,305.167,487.000,305.847,487.000,306.528C487.000,307.208,487.000,307.888,487.000,308.568C487.000,309.248,487.000,309.929,487.000,310.609C487.000,311.289,487.000,311.970,487.000,312.650C487.000,313.330,487.000,314.011,487.000,314.691C487.000,315.372,487.000,316.052,487.000,316.733C487.000,317.414,487.000,318.094,487.000,318.775C487.000,319.456,487.000,320.137,487.000,320.817C487.000,321.498,487.000,322.179,487.000,322.860C487.000,323.541,487.000,324.222,487.000,324.903C487.000,325.584,487.000,326.265,487.000,326.946C487.000,327.627,487.000,328.308,487.000,328.989C487.000,329.671,487.000,330.352,487.000,331.033C487.000,331.714,487.000,332.396,487.000,333.077C487.000,333.776,487.000,334.475,487.000,335.174C487.000,335.855,487.000,336.537,487.000,337.219C487.000,337.900,487.000,338.582,487.000,339.264C487.000,339.945,487.000,340.627,487.000,341.309C487.000,341.991,487.000,342.673,487.000,343.355C487.000,344.036,487.000,344.718,487.000,345.400C487.000,346.083,487.000,346.765,487.000,347.447C487.000,348.129,487.000,348.811,487.000,349.493C487.000,350.176,487.000,350.858,487.000,351.540C487.000,352.223,487.000,352.905,487.000,353.587C487.000,354.270,487.000,354.952,487.000,355.635C487.000,356.317,487.000,357.000,487.000,357.683C487.000,358.348,487.000,359.013,487.000,359.678C487.000,360.361,487.000,361.044,487.000,361.727C487.000,362.392,487.000,363.058,487.000,363.723C487.000,364.389,487.000,365.054,487.000,365.720C487.000,366.403,487.000,367.086,487.000,367.769C487.000,368.435,487.000,369.101,487.000,369.767C487.000,370.450,487.000,371.133,487.000,371.817C487.000,372.483,487.000,373.149,487.000,373.815C487.000,374.498,487.000,375.182,487.000,375.866C487.000,376.532,487.000,377.198,487.000,377.864C487.000,378.548,487.000,379.232,487.000,379.916C487.000,380.582,487.000,381.248,487.000,381.915C487.000,382.581,487.000,383.248,487.000,383.914C487.000,384.599,487.000,385.283,487.000,385.967C487.000,386.634,487.000,387.300,487.000,387.967C487.000,388.652,487.000,389.336,487.000,390.021C487.000,390.687,487.000,391.354,487.000,392.021C487.000,392.706,487.000,393.391,487.000,394.075C487.000,394.743,487.000,395.410,487.000,396.077C487.000,396.762,487.000,397.447,487.000,398.132C487.000,398.799,487.000,399.467,487.000,400.134C487.000,400.819,487.000,401.504,487.000,402.189C487.000,402.857,487.000,403.525,487.000,404.193C487.000,404.860,487.000,405.528,487.000,406.196C487.000,406.881,487.000,407.567,487.000,408.252C487.000,408.920,487.000,409.588,487.000,410.257C487.000,410.942,487.000,411.628,487.000,412.314C487.000,412.982,487.000,413.650,487.000,414.319C487.000,415.005,487.000,415.691,487.000,416.377C487.000,417.045,487.000,417.714,487.000,418.382C487.000,419.068,487.000,419.755,487.000,420.441C487.000,421.110,487.000,421.778,487.000,422.447C487.000,423.134,487.000,423.820,487.000,424.507C487.000,425.176,487.000,425.845,487.000,426.514C487.000,427.183,487.000,427.852,487.000,428.521C487.000,429.208,487.000,429.895,487.000,430.582C487.000,431.251,487.000,431.921,487.000,432.590C487.000,433.259,487.000,433.929,487.000,434.599C487.000,435.268,487.000,435.938,487.000,436.607C487.000,437.277,487.000,437.947,487.000,438.617C487.000,439.287,487.000,439.957,487.000,440.626C487.000,441.296,487.000,441.966,487.000,442.637C487.000,443.289,487.000,443.942,487.000,444.594C487.000,445.264,487.000,445.935,487.000,446.605C487.000,447.275,487.000,447.946,487.000,448.616C487.000,449.287,487.000,449.957,487.000,450.628C487.000,451.298,487.000,451.969,487.000,452.640C487.000,453.311,487.000,453.981,487.000,454.652C487.000,455.305,487.000,455.959,487.000,456.612C487.000,457.283,487.000,457.954,487.000,458.625C487.000,459.296,487.000,459.968,487.000,460.639C487.000,461.310,487.000,461.981,487.000,462.653C487.000,463.324,487.000,463.996,487.000,464.667C487.000,465.339,487.000,466.010,487.000,466.682C487.000,467.336,487.000,467.990,487.000,468.644C487.000,469.316,487.000,469.988,487.000,470.660C487.000,471.332,487.000,472.004,487.000,472.676C487.000,473.348,487.000,474.020,487.000,474.692C487.000,475.364,487.000,476.037,487.000,476.709C487.000,477.381,487.000,478.054,487.000,478.726C487.000,479.399,487.000,480.071,487.000,480.744C487.000,481.399,487.000,482.054,487.000,482.709C487.000,483.381,487.000,484.054,487.000,484.727C487.000,485.400,487.000,486.073,487.000,486.746C487.000,487.419,487.000,488.092,487.000,488.765C487.000,489.439,487.000,490.112,487.000,490.785C487.000,491.458,487.000,492.132,487.000,492.805C487.000,493.461,487.000,494.117,487.000,494.773C487.000,495.446,487.000,496.120,487.000,496.794C487.000,497.467,487.000,498.141,487.000,498.815C487.000,499.489,487.000,500.163,487.000,500.837C487.000,501.511,487.000,502.185,487.000,502.859C487.000,503.534,487.000,504.208,487.000,504.882C487.000,505.539,487.000,506.195,487.000,506.852C487.000,507.526,487.000,508.201,487.000,508.876C487.000,509.550,487.000,510.225,487.000,510.900C487.000,511.574,487.000,512.249,487.000,512.924C487.000,513.599,487.000,514.274,487.000,514.949C487.000,515.624,487.000,516.299,487.000,516.974C487.000,517.650,487.000,518.325,487.000,519.000C487.000,519.658,487.000,520.316,487.000,520.973C487.000,521.631,487.000,522.289,487.000,522.947C487.000,522.964,487.000,522.982,487.000,523.000C486.984,523.000,486.968,523.000,486.952,523.000C486.277,523.000,485.602,523.000,484.927,523.000C484.268,523.000,483.609,523.000,482.951,523.000C482.276,523.000,481.601,523.000,480.926,523.000C480.267,523.000,479.608,523.000,478.949,523.000C478.274,523.000,477.599,523.000,476.924,523.000C476.266,523.000,475.607,523.000,474.948,523.000C474.273,523.000,473.598,523.000,472.923,523.000C472.264,523.000,471.605,523.000,470.946,523.000C470.272,523.000,469.597,523.000,468.922,523.000C468.263,523.000,467.604,523.000,466.945,523.000C466.270,523.000,465.595,523.000,464.920,523.000C464.261,523.000,463.602,523.000,462.944,523.000C462.269,523.000,461.594,523.000,460.919,523.000C460.260,523.000,459.601,523.000,458.942,523.000C458.267,523.000,457.592,523.000,456.917,523.000C456.258,523.000,455.599,523.000,454.940,523.000C454.265,523.000,453.590,523.000,452.915,523.000C452.256,523.000,451.597,523.000,450.938,523.000C450.263,523.000,449.588,523.000,448.913,523.000C448.254,523.000,447.595,523.000,446.936,523.000C446.261,523.000,445.586,523.000,444.911,523.000C444.252,523.000,443.593,523.000,442.934,523.000C442.259,523.000,441.584,523.000,440.909,523.000C440.250,523.000,439.591,523.000,438.932,523.000C438.257,523.000,437.581,523.000,436.906,523.000C436.247,523.000,435.588,523.000,434.929,523.000C434.254,523.000,433.579,523.000,432.904,523.000C432.244,523.000,431.585,523.000,430.926,523.000C430.251,523.000,429.576,523.000,428.901,523.000C428.241,523.000,427.582,523.000,426.923,523.000C426.248,523.000,425.573,523.000,424.897,523.000C424.238,523.000,423.579,523.000,422.920,523.000C422.245,523.000,421.569,523.000,420.894,523.000C420.235,523.000,419.576,523.000,418.916,523.000C418.241,523.000,417.566,523.000,416.890,523.000C416.231,523.000,415.572,523.000,414.913,523.000C414.237,523.000,413.562,523.000,412.886,523.000C412.227,523.000,411.568,523.000,410.908,523.000C410.233,523.000,409.558,523.000,408.882,523.000C408.223,523.000,407.563,523.000,406.904,523.000C406.228,523.000,405.553,523.000,404.877,523.000C404.218,523.000,403.559,523.000,402.899,523.000C402.224,523.000,401.548,523.000,400.872,523.000C400.213,523.000,399.553,523.000,398.894,523.000C398.218,523.000,397.543,523.000,396.867,523.000C396.208,523.000,395.548,523.000,394.888,523.000C394.213,523.000,393.537,523.000,392.861,523.000C392.202,523.000,391.542,523.000,390.883,523.000C390.207,523.000,389.531,523.000,388.855,523.000C388.196,523.000,387.536,523.000,386.876,523.000C386.200,523.000,385.525,523.000,384.849,523.000C384.189,523.000,383.529,523.000,382.870,523.000C382.194,523.000,381.518,523.000,380.842,523.000C380.182,523.000,379.522,523.000,378.862,523.000C378.186,523.000,377.510,523.000,376.835,523.000C376.175,523.000,375.515,523.000,374.855,523.000C374.179,523.000,373.503,523.000,372.827,523.000C372.167,523.000,371.507,523.000,370.847,523.000C370.171,523.000,369.495,523.000,368.818,523.000C368.158,523.000,367.498,523.000,366.838,523.000C366.162,523.000,365.486,523.000,364.810,523.000C364.149,523.000,363.489,523.000,362.829,523.000C362.153,523.000,361.477,523.000,360.800,523.000C360.140,523.000,359.480,523.000,358.820,523.000C358.143,523.000,357.467,523.000,356.790,523.000C356.130,523.000,355.470,523.000,354.809,523.000C354.133,523.000,353.457,523.000,352.780,523.000C352.120,523.000,351.459,523.000,350.799,523.000C350.122,523.000,349.446,523.000,348.769,523.000C348.109,523.000,347.448,523.000,346.788,523.000C346.111,523.000,345.434,523.000,344.758,523.000C344.081,523.000,343.404,523.000,342.727,523.000C342.067,523.000,341.406,523.000,340.745,523.000C340.069,523.000,339.392,523.000,338.715,523.000C338.054,523.000,337.393,523.000,336.733,523.000C336.056,523.000,335.379,523.000,334.702,523.000C334.041,523.000,333.380,523.000,332.719,523.000C332.042,523.000,331.365,523.000,330.688,523.000C330.027,523.000,329.366,523.000,328.705,523.000C328.028,523.000,327.351,523.000,326.674,523.000C326.013,523.000,325.352,523.000,324.691,523.000C324.013,523.000,323.336,523.000,322.659,523.000C321.998,523.000,321.337,523.000,320.675,523.000C319.998,523.000,319.321,523.000,318.643,523.000C317.982,523.000,317.321,523.000,316.659,523.000C315.982,523.000,315.304,523.000,314.627,523.000C313.966,523.000,313.304,523.000,312.643,523.000C311.965,523.000,311.287,523.000,310.610,523.000C309.948,523.000,309.287,523.000,308.625,523.000C307.947,523.000,307.270,523.000,306.592,523.000C305.930,523.000,305.269,523.000,304.607,523.000C303.929,523.000,303.251,523.000,302.573,523.000C301.912,523.000,301.250,523.000,300.588,523.000C299.910,523.000,299.232,523.000,298.554,523.000C297.892,523.000,297.230,523.000,296.568,523.000C295.890,523.000,295.212,523.000,294.534,523.000C293.872,523.000,293.210,523.000,292.548,523.000C291.869,523.000,291.191,523.000,290.513,523.000C289.851,523.000,289.189,523.000,288.526,523.000C287.848,523.000,287.170,523.000,286.491,523.000C285.829,523.000,285.167,523.000,284.504,523.000C283.826,523.000,283.147,523.000,282.469,523.000C281.806,523.000,281.144,523.000,280.481,523.000C279.803,523.000,279.124,523.000,278.445,523.000C277.783,523.000,277.120,523.000,276.457,523.000C275.779,523.000,275.100,523.000,274.421,523.000C273.758,523.000,273.095,523.000,272.433,523.000C271.754,523.000,271.075,523.000,270.396,523.000C269.733,523.000,269.070,523.000,268.407,523.000C267.728,523.000,267.049,523.000,266.369,523.000C265.706,523.000,265.043,523.000,264.380,523.000C263.701,523.000,263.022,523.000,262.342,523.000C261.679,523.000,261.016,523.000,260.353,523.000C259.673,523.000,258.994,523.000,258.315,523.000C257.651,523.000,256.988,523.000,256.324,523.000C255.645,523.000,254.965,523.000,254.286,523.000C253.622,523.000,252.959,523.000,252.295,523.000C251.615,523.000,250.936,523.000,250.256,523.000C249.592,523.000,248.928,523.000,248.265,523.000C247.585,523.000,246.905,523.000,246.225,523.000C245.561,523.000,244.897,523.000,244.233,523.000C243.553,523.000,242.873,523.000,242.193,523.000C241.529,523.000,240.865,523.000,240.201,523.000C239.521,523.000,238.840,523.000,238.160,523.000C237.496,523.000,236.832,523.000,236.168,523.000C235.487,523.000,234.807,523.000,234.126,523.000C233.462,523.000,232.797,523.000,232.133,523.000C231.452,523.000,230.772,523.000,230.091,523.000C229.427,523.000,228.762,523.000,228.098,523.000C227.417,523.000,226.736,523.000,226.055,523.000C225.390,523.000,224.726,523.000,224.061,523.000C223.380,523.000,222.699,523.000,222.018,523.000C221.353,523.000,220.688,523.000,220.023,523.000C219.342,523.000,218.661,523.000,217.980,523.000C217.315,523.000,216.650,523.000,215.985,523.000C215.303,523.000,214.622,523.000,213.940,523.000C213.275,523.000,212.610,523.000,211.945,523.000C211.263,523.000,210.582,523.000,209.900,523.000C209.234,523.000,208.569,523.000,207.904,523.000C207.222,523.000,206.540,523.000,205.858,523.000C205.193,523.000,204.527,523.000,203.861,523.000C203.179,523.000,202.497,523.000,201.815,523.000C201.150,523.000,200.484,523.000,199.818,523.000C199.136,523.000,198.454,523.000,197.771,523.000C197.105,523.000,196.439,523.000,195.773,523.000C195.091,523.000,194.409,523.000,193.726,523.000C193.060,523.000,192.394,523.000,191.728,523.000C191.045,523.000,190.362,523.000,189.680,523.000C189.013,523.000,188.347,523.000,187.681,523.000C186.998,523.000,186.315,523.000,185.632,523.000C184.966,523.000,184.299,523.000,183.632,523.000C182.949,523.000,182.266,523.000,181.583,523.000C180.916,523.000,180.250,523.000,179.583,523.000C178.900,523.000,178.216,523.000,177.533,523.000C176.866,523.000,176.199,523.000,175.532,523.000C174.848,523.000,174.165,523.000,173.482,523.000C172.814,523.000,172.147,523.000,171.480,523.000C170.796,523.000,170.113,523.000,169.429,523.000C168.761,523.000,168.094,523.000,167.426,523.000C166.743,523.000,166.059,523.000,165.375,523.000C164.707,523.000,164.039,523.000,163.372,523.000C162.688,523.000,162.003,523.000,161.319,523.000C160.651,523.000,159.983,523.000,159.315,523.000C158.631,523.000,157.947,523.000,157.262,523.000C156.594,523.000,155.926,523.000,155.258,523.000C154.574,523.000,153.889,523.000,153.204,523.000C152.536,523.000,151.868,523.000,151.199,523.000C150.514,523.000,149.830,523.000,149.145,523.000C148.476,523.000,147.808,523.000,147.139,523.000C146.454,523.000,145.769,523.000,145.084,523.000C144.415,523.000,143.746,523.000,143.077,523.000C142.392,523.000,141.707,523.000,141.021,523.000C140.352,523.000,139.683,523.000,139.014,523.000C138.329,523.000,137.643,523.000,136.958,523.000C136.288,523.000,135.619,523.000,134.950,523.000C134.264,523.000,133.578,523.000,132.892,523.000C132.223,523.000,131.553,523.000,130.884,523.000C130.198,523.000,129.512,523.000,128.826,523.000C128.156,523.000,127.486,523.000,126.816,523.000C126.130,523.000,125.444,523.000,124.757,523.000C124.088,523.000,123.417,523.000,122.747,523.000C122.061,523.000,121.374,523.000,120.688,523.000C120.018,523.000,119.347,523.000,118.677,523.000C117.990,523.000,117.303,523.000,116.617,523.000C115.946,523.000,115.275,523.000,114.605,523.000C113.918,523.000,113.231,523.000,112.544,523.000C111.873,523.000,111.202,523.000,110.531,523.000C109.844,523.000,109.157,523.000,108.469,523.000C107.798,523.000,107.127,523.000,106.456,523.000C105.769,523.000,105.081,523.000,104.394,523.000C103.722,523.000,103.051,523.000,102.380,523.000C101.692,523.000,101.004,523.000,100.316,523.000C99.645,523.000,98.973,523.000,98.301,523.000C97.613,523.000,96.925,523.000,96.237,523.000C95.565,523.000,94.893,523.000,94.221,523.000C93.549,523.000,92.877,523.000,92.205,523.000C91.533,523.000,90.861,523.000,90.189,523.000C89.517,523.000,88.845,523.000,88.172,523.000C87.500,523.000,86.828,523.000,86.155,523.000C85.483,523.000,84.810,523.000,84.138,523.000C83.465,523.000,82.792,523.000,82.120,523.000C81.447,523.000,80.774,523.000,80.101,523.000C79.428,523.000,78.755,523.000,78.082,523.000C77.409,523.000,76.736,523.000,76.063,523.000C75.406,523.000,74.750,523.000,74.093,523.000C73.420,523.000,72.746,523.000,72.073,523.000C71.399,523.000,70.726,523.000,70.052,523.000C69.379,523.000,68.705,523.000,68.031,523.000C67.358,523.000,66.684,523.000,66.010,523.000C65.336,523.000,64.662,523.000,63.988,523.000C63.314,523.000,62.640,523.000,61.966,523.000C61.292,523.000,60.618,523.000,59.944,523.000C59.269,523.000,58.595,523.000,57.921,523.000C57.263,523.000,56.605,523.000,55.947,523.000C55.272,523.000,54.597,523.000,53.923,523.000C53.248,523.000,52.573,523.000,51.898,523.000C51.223,523.000,50.549,523.000,49.874,523.000C49.199,523.000,48.524,523.000,47.848,523.000C47.173,523.000,46.498,523.000,45.823,523.000C45.147,523.000,44.472,523.000,43.797,523.000C43.121,523.000,42.446,523.000,41.770,523.000C41.095,523.000,40.419,523.000,39.743,523.000C39.067,523.000,38.392,523.000,37.716,523.000C37.056,523.000,36.397,523.000,35.737,523.000C35.061,523.000,34.385,523.000,33.709,523.000C33.033,523.000,32.356,523.000,31.680,523.000C31.004,523.000,30.327,523.000,29.651,523.000C28.974,523.000,28.298,523.000,27.621,523.000C26.945,523.000,26.268,523.000,25.591,523.000C24.914,523.000,24.237,523.000,23.560,523.000C22.883,523.000,22.206,523.000,21.529,523.000C20.852,523.000,20.175,523.000,19.498,523.000C18.837,523.000,18.176,523.000,17.515,523.000C16.838,523.000,16.160,523.000,15.483,523.000C14.805,523.000,14.127,523.000,13.450,523.000C12.772,523.000,12.094,523.000,11.416,523.000C10.738,523.000,10.060,523.000,9.382,523.000C8.704,523.000,8.026,523.000,7.348,523.000C6.670,523.000,5.991,523.000,5.313,523.000C4.635,523.000,3.956,523.000,3.278,523.000C2.616,523.000,1.953,523.000,1.291,523.000C0.877,523.000,0.464,523.000,0.050,523.000C0.033,523.000,0.017,523.000,0.000,523.000C0.000,522.983,0.000,522.965,0.000,522.948C0.000,522.275,0.000,521.602,0.000,520.929C0.000,520.256,0.000,519.583,0.000,518.910C0.000,518.237,0.000,517.563,0.000,516.890C0.000,516.217,0.000,515.544,0.000,514.871C0.000,514.181,0.000,513.490,0.000,512.800C0.000,512.092,0.000,511.385,0.000,510.677C0.000,510.004,0.000,509.331,0.000,508.658C0.000,507.985,0.000,507.311,0.000,506.638C0.000,505.965,0.000,505.292,0.000,504.619C0.000,503.946,0.000,503.273,0.000,502.600C0.000,501.926,0.000,501.253,0.000,500.580C0.000,499.907,0.000,499.234,0.000,498.561C0.000,497.836,0.000,497.111,0.000,496.386C0.000,495.713,0.000,495.040,0.000,494.366C0.000,493.693,0.000,493.020,0.000,492.347C0.000,491.674,0.000,491.001,0.000,490.327C0.000,489.654,0.000,488.981,0.000,488.308C0.000,487.635,0.000,486.961,0.000,486.288C0.000,485.615,0.000,484.942,0.000,484.269C0.000,483.595,0.000,482.922,0.000,482.249C0.000,481.524,0.000,480.799,0.000,480.074C0.000,479.401,0.000,478.727,0.000,478.054C0.000,477.346,0.000,476.639,0.000,475.931C0.000,475.206,0.000,474.481,0.000,473.756C0.000,473.082,0.000,472.409,0.000,471.736C0.000,471.028,0.000,470.320,0.000,469.612C0.000,468.887,0.000,468.162,0.000,467.437C0.000,466.763,0.000,466.090,0.000,465.417C0.000,464.692,0.000,463.966,0.000,463.241C0.000,462.533,0.000,461.825,0.000,461.118C0.000,460.444,0.000,459.771,0.000,459.097C0.000,458.424,0.000,457.751,0.000,457.077C0.000,456.404,0.000,455.730,0.000,455.057C0.000,454.332,0.000,453.606,0.000,452.881C0.000,452.173,0.000,451.465,0.000,450.757C0.000,450.083,0.000,449.410,0.000,448.736C0.000,448.011,0.000,447.286,0.000,446.560C0.000,445.852,0.000,445.144,0.000,444.436C0.000,443.762,0.000,443.089,0.000,442.415C0.000,441.690,0.000,440.964,0.000,440.239C0.000,439.531,0.000,438.823,0.000,438.114C0.000,437.441,0.000,436.767,0.000,436.093C0.000,435.368,0.000,434.642,0.000,433.917C0.000,433.209,0.000,432.500,0.000,431.792C0.000,431.101,0.000,430.410,0.000,429.719C0.000,429.011,0.000,428.302,0.000,427.594C0.000,426.903,0.000,426.212,0.000,425.521C0.000,424.812,0.000,424.104,0.000,423.396C0.000,422.722,0.000,422.048,0.000,421.374C0.000,420.700,0.000,420.026,0.000,419.352C0.000,418.678,0.000,418.004,0.000,417.331C0.000,416.657,0.000,415.983,0.000,415.309C0.000,414.635,0.000,413.961,0.000,413.287C0.000,412.613,0.000,411.939,0.000,411.265C0.000,410.590,0.000,409.916,0.000,409.242C0.000,408.568,0.000,407.894,0.000,407.220C0.000,406.546,0.000,405.872,0.000,405.198C0.000,404.523,0.000,403.849,0.000,403.175C0.000,402.449,0.000,401.723,0.000,400.997C0.000,400.323,0.000,399.648,0.000,398.974C0.000,398.265,0.000,397.556,0.000,396.847C0.000,396.173,0.000,395.499,0.000,394.825C0.000,394.150,0.000,393.476,0.000,392.801C0.000,392.041,0.000,391.280,0.000,390.519C0.000,389.844,0.000,389.170,0.000,388.495C0.000,387.821,0.000,387.146,0.000,386.472C0.000,385.711,0.000,384.950,0.000,384.189C0.000,383.497,0.000,382.805,0.000,382.113C0.000,381.439,0.000,380.764,0.000,380.089C0.000,379.328,0.000,378.567,0.000,377.806C0.000,377.131,0.000,376.456,0.000,375.782C0.000,375.107,0.000,374.432,0.000,373.757C0.000,372.996,0.000,372.235,0.000,371.473C0.000,370.798,0.000,370.124,0.000,369.449C0.000,368.774,0.000,368.099,0.000,367.424C0.000,366.662,0.000,365.901,0.000,365.139C0.000,364.464,0.000,363.789,0.000,363.114C0.000,362.439,0.000,361.764,0.000,361.089C0.000,360.328,0.000,359.566,0.000,358.804C0.000,358.129,0.000,357.454,0.000,356.779C0.000,356.103,0.000,355.428,0.000,354.753C0.000,353.991,0.000,353.229,0.000,352.467C0.000,351.792,0.000,351.117,0.000,350.441C0.000,349.766,0.000,349.091,0.000,348.415C0.000,347.653,0.000,346.891,0.000,346.129C0.000,345.454,0.000,344.778,0.000,344.103C0.000,343.427,0.000,342.752,0.000,342.076C0.000,341.314,0.000,340.552,0.000,339.789C0.000,339.114,0.000,338.438,0.000,337.762C0.000,337.087,0.000,336.411,0.000,335.735C0.000,334.973,0.000,334.210,0.000,333.448C0.000,332.772,0.000,332.096,0.000,331.420C0.000,330.744,0.000,330.068,0.000,329.392C0.000,328.630,0.000,327.867,0.000,327.104C0.000,326.428,0.000,325.752,0.000,325.076C0.000,324.400,0.000,323.724,0.000,323.048C0.000,322.285,0.000,321.522,0.000,320.759C0.000,320.083,0.000,319.407,0.000,318.731C0.000,318.054,0.000,317.378,0.000,316.702C0.000,315.974,0.000,315.245,0.000,314.517C0.000,313.840,0.000,313.164,0.000,312.487C0.000,311.811,0.000,311.134,0.000,310.458C0.000,309.781,0.000,309.105,0.000,308.428C0.000,307.752,0.000,307.075,0.000,306.398C0.000,305.722,0.000,305.045,0.000,304.368C0.000,303.640,0.000,302.911,0.000,302.182C0.000,301.505,0.000,300.828,0.000,300.151C0.000,299.474,0.000,298.798,0.000,298.121C0.000,297.444,0.000,296.767,0.000,296.090C0.000,295.413,0.000,294.736,0.000,294.059C0.000,293.382,0.000,292.704,0.000,292.027C0.000,291.350,0.000,290.673,0.000,289.996C0.000,289.319,0.000,288.641,0.000,287.964C0.000,287.287,0.000,286.609,0.000,285.932C0.000,285.255,0.000,284.577,0.000,283.900C0.000,283.222,0.000,282.545,0.000,281.867C0.000,281.190,0.000,280.512,0.000,279.835C0.000,279.157,0.000,278.480,0.000,277.802C0.000,277.124,0.000,276.447,0.000,275.769C0.000,275.091,0.000,274.413,0.000,273.736C0.000,273.040,0.000,272.345,0.000,271.650C0.000,270.972,0.000,270.294,0.000,269.616C0.000,268.938,0.000,268.260,0.000,267.582C0.000,266.904,0.000,266.226,0.000,265.548C0.000,264.870,0.000,264.192,0.000,263.513C0.000,262.835,0.000,262.157,0.000,261.479C0.000,260.800,0.000,260.122,0.000,259.444C0.000,258.765,0.000,258.087,0.000,257.409C0.000,256.730,0.000,256.052,0.000,255.373C0.000,254.695,0.000,254.016,0.000,253.337C0.000,252.659,0.000,251.980,0.000,251.301C0.000,250.623,0.000,249.944,0.000,249.265C0.000,248.587,0.000,247.908,0.000,247.229C0.000,246.550,0.000,245.871,0.000,245.192C0.000,244.513,0.000,243.834,0.000,243.155C0.000,242.476,0.000,241.797,0.000,241.118C0.000,240.422,0.000,239.725,0.000,239.028C0.000,238.349,0.000,237.670,0.000,236.991C0.000,236.311,0.000,235.632,0.000,234.953C0.000,234.273,0.000,233.594,0.000,232.914C0.000,232.235,0.000,231.555,0.000,230.876C0.000,230.196,0.000,229.517,0.000,228.837C0.000,228.157,0.000,227.478,0.000,226.798C0.000,226.031,0.000,225.264,0.000,224.497C0.000,223.817,0.000,223.137,0.000,222.458C0.000,221.778,0.000,221.098,0.000,220.418C0.000,219.650,0.000,218.883,0.000,218.116C0.000,217.436,0.000,216.756,0.000,216.075C0.000,215.395,0.000,214.715,0.000,214.035C0.000,213.267,0.000,212.499,0.000,211.732C0.000,211.051,0.000,210.371,0.000,209.690C0.000,209.010,0.000,208.329,0.000,207.649C0.000,206.881,0.000,206.113,0.000,205.345C0.000,204.664,0.000,203.983,0.000,203.303C0.000,202.622,0.000,201.941,0.000,201.260C0.000,200.579,0.000,199.898,0.000,199.217C0.000,198.536,0.000,197.855,0.000,197.174C0.000,196.493,0.000,195.812,0.000,195.130C0.000,194.449,0.000,193.768,0.000,193.087C0.000,192.405,0.000,191.724,0.000,191.042C0.000,190.344,0.000,189.645,0.000,188.946C0.000,188.264,0.000,187.583,0.000,186.901C0.000,186.219,0.000,185.538,0.000,184.856C0.000,184.174,0.000,183.492,0.000,182.811C0.000,182.129,0.000,181.447,0.000,180.765C0.000,179.996,0.000,179.226,0.000,178.457C0.000,177.775,0.000,177.092,0.000,176.410C0.000,175.728,0.000,175.046,0.000,174.364C0.000,173.594,0.000,172.824,0.000,172.054C0.000,171.372,0.000,170.689,0.000,170.007C0.000,169.324,0.000,168.642,0.000,167.959C0.000,167.189,0.000,166.419,0.000,165.649C0.000,164.966,0.000,164.283,0.000,163.600C0.000,162.918,0.000,162.235,0.000,161.552C0.000,160.781,0.000,160.011,0.000,159.240C0.000,158.557,0.000,157.874,0.000,157.191C0.000,156.507,0.000,155.824,0.000,155.141C0.000,154.370,0.000,153.599,0.000,152.828C0.000,152.145,0.000,151.461,0.000,150.778C0.000,150.094,0.000,149.410,0.000,148.727C0.000,147.956,0.000,147.184,0.000,146.413C0.000,145.729,0.000,145.045,0.000,144.361C0.000,143.590,0.000,142.818,0.000,142.046C0.000,141.362,0.000,140.678,0.000,139.994C0.000,139.310,0.000,138.626,0.000,137.941C0.000,137.169,0.000,136.397,0.000,135.625C0.000,134.941,0.000,134.256,0.000,133.572C0.000,132.887,0.000,132.203,0.000,131.518C0.000,130.746,0.000,129.973,0.000,129.201C0.000,128.516,0.000,127.831,0.000,127.146C0.000,126.461,0.000,125.776,0.000,125.091C0.000,124.319,0.000,123.546,0.000,122.773C0.000,122.088,0.000,121.402,0.000,120.717C0.000,120.032,0.000,119.347,0.000,118.661C0.000,117.905,0.000,117.150,0.000,116.394C0.000,115.691,0.000,114.988,0.000,114.284C0.000,113.581,0.000,112.878,0.000,112.174C0.000,111.436,0.000,110.697,0.000,109.959C0.000,109.238,0.000,108.516,0.000,107.795C0.000,107.109,0.000,106.423,0.000,105.737C0.000,105.051,0.000,104.364,0.000,103.678C0.000,102.957,0.000,102.235,0.000,101.513C0.000,100.774,0.000,100.035,0.000,99.295C0.000,98.609,0.000,97.922,0.000,97.235C0.000,96.514,0.000,95.792,0.000,95.069C0.000,94.330,0.000,93.590,0.000,92.850C0.000,92.110,0.000,91.370,0.000,90.630C0.000,89.961,0.000,89.291,0.000,88.622C0.000,87.882,0.000,87.141,0.000,86.401C0.000,85.731,0.000,85.062,0.000,84.392C0.000,83.739,0.000,83.087,0.000,82.435C0.000,81.729,0.000,81.024,0.000,80.319C0.000,79.631,0.000,78.943,0.000,78.255C0.000,77.567,0.000,76.879,0.000,76.191C0.000,75.503,0.000,74.815,0.000,74.127C0.000,73.403,0.000,72.679,0.000,71.956C0.000,71.267,0.000,70.579,0.000,69.891C0.000,69.202,0.000,68.514,0.000,67.825C0.000,67.154,0.000,66.483,0.000,65.812C0.000,65.141,0.000,64.470,0.000,63.798C0.000,63.092,0.000,62.385,0.000,61.678C0.000,60.954,0.000,60.230,0.000,59.505C0.000,58.851,0.000,58.197,0.000,57.543C0.000,56.872,0.000,56.200,0.000,55.528C0.000,54.839,0.000,54.149,0.000,53.460C0.000,52.770,0.000,52.080,0.000,51.391C0.000,50.701,0.000,50.011,0.000,49.321C0.000,48.613,0.000,47.906,0.000,47.198C0.000,46.508,0.000,45.818,0.000,45.128C0.000,44.420,0.000,43.712,0.000,43.004C0.000,42.331,0.000,41.659,0.000,40.986C0.000,40.278,0.000,39.569,0.000,38.861C0.000,38.188,0.000,37.515,0.000,36.842C0.000,36.116,0.000,35.390,0.000,34.663C0.000,33.990,0.000,33.317,0.000,32.643C0.000,31.970,0.000,31.297,0.000,30.623C0.000,29.932,0.000,29.241,0.000,28.549C0.000,27.858,0.000,27.166,0.000,26.475C0.000,25.783,0.000,25.092,0.000,24.400C0.000,23.708,0.000,23.017,0.000,22.325C0.000,21.633,0.000,20.941,0.000,20.249C0.000,19.557,0.000,18.865,0.000,18.173C0.000,17.428,0.000,16.682,0.000,15.937C0.000,15.244,0.000,14.552,0.000,13.859C0.000,13.167,0.000,12.474,0.000,11.782C0.000,11.107,0.000,10.432,0.000,9.757C0.000,9.082,0.000,8.407,0.000,7.732C0.000,7.039,0.000,6.346,0.000,5.653C0.000,4.960,0.000,4.267,0.000,3.573C0.000,2.845,0.000,2.116,0.000,1.387C0.000,0.925,0.000,0.462,0.000,0.000ZC0.000,0.000,0.000,0.000,0.000,0.000ZM44.919,122.103C110.006,38.750,201.360,5.963,303.662,32.331C369.176,53.463,418.380,97.486,450.475,158.116C474.776,212.990,479.110,279.159,457.585,335.593C455.556,340.254,453.586,344.777,451.616,349.300C431.359,396.796,393.175,430.931,353.075,462.186C299.933,496.425,229.073,495.117,168.881,482.283C102.033,460.147,58.171,417.060,22.376,357.567C-2.326,306.653,-5.137,232.526,13.316,179.021C17.068,171.913,20.709,165.015,24.350,158.116C30.616,145.545,37.143,133.813,44.919,122.103ZM92.205,523.000C92.894,523.000,93.582,523.000,94.271,523.000C94.942,523.000,95.614,523.000,96.286,523.000C96.974,523.000,97.662,523.000,98.350,523.000C99.022,523.000,99.694,523.000,100.365,523.000C101.053,523.000,101.741,523.000,102.429,523.000C103.100,523.000,103.771,523.000,104.443,523.000C105.130,523.000,105.818,523.000,106.505,523.000C107.176,523.000,107.848,523.000,108.519,523.000C109.206,523.000,109.893,523.000,110.580,523.000C111.251,523.000,111.922,523.000,112.593,523.000C113.280,523.000,113.967,523.000,114.654,523.000C115.341,523.000,116.028,523.000,116.715,523.000C117.385,523.000,118.056,523.000,118.726,523.000C119.413,523.000,120.099,523.000,120.786,523.000C121.456,523.000,122.126,523.000,122.796,523.000C123.483,523.000,124.169,523.000,124.856,523.000C125.526,523.000,126.195,523.000,126.865,523.000C127.552,523.000,128.238,523.000,128.924,523.000C129.593,523.000,130.263,523.000,130.933,523.000C131.619,523.000,132.305,523.000,132.990,523.000C133.660,523.000,134.329,523.000,134.999,523.000C135.684,523.000,136.370,523.000,137.056,523.000C137.725,523.000,138.394,523.000,139.063,523.000C139.749,523.000,140.434,523.000,141.119,523.000C141.788,523.000,142.457,523.000,143.126,523.000C143.811,523.000,144.497,523.000,145.182,523.000C145.850,523.000,146.519,523.000,147.188,523.000C147.873,523.000,148.558,523.000,149.243,523.000C149.911,523.000,150.580,523.000,151.248,523.000C151.933,523.000,152.618,523.000,153.302,523.000C153.970,523.000,154.639,523.000,155.307,523.000C155.991,523.000,156.676,523.000,157.360,523.000C158.028,523.000,158.696,523.000,159.364,523.000C160.049,523.000,160.733,523.000,161.417,523.000C162.085,523.000,162.753,523.000,163.420,523.000C164.104,523.000,164.788,523.000,165.472,523.000C166.140,523.000,166.808,523.000,167.475,523.000C168.159,523.000,168.843,523.000,169.526,523.000C170.194,523.000,170.861,523.000,171.529,523.000C172.212,523.000,172.896,523.000,173.579,523.000C174.246,523.000,174.914,523.000,175.581,523.000C176.264,523.000,176.947,523.000,177.631,523.000C178.298,523.000,178.965,523.000,179.631,523.000C180.315,523.000,180.998,523.000,181.681,523.000C182.348,523.000,183.014,523.000,183.681,523.000C184.364,523.000,185.047,523.000,185.730,523.000C186.396,523.000,187.063,523.000,187.729,523.000C188.412,523.000,189.095,523.000,189.777,523.000C190.444,523.000,191.110,523.000,191.776,523.000C192.459,523.000,193.141,523.000,193.824,523.000C194.490,523.000,195.156,523.000,195.822,523.000C196.504,523.000,197.187,523.000,197.869,523.000C198.535,523.000,199.201,523.000,199.867,523.000C200.549,523.000,201.231,523.000,201.913,523.000C202.579,523.000,203.244,523.000,203.910,523.000C204.592,523.000,205.274,523.000,205.956,523.000C206.621,523.000,207.287,523.000,207.952,523.000C208.634,523.000,209.316,523.000,209.997,523.000C210.663,523.000,211.328,523.000,211.993,523.000C212.675,523.000,213.356,523.000,214.038,523.000C214.703,523.000,215.368,523.000,216.033,523.000C216.715,523.000,217.396,523.000,218.077,523.000C218.742,523.000,219.407,523.000,220.072,523.000C220.753,523.000,221.434,523.000,222.115,523.000C222.780,523.000,223.445,523.000,224.110,523.000C224.791,523.000,225.472,523.000,226.152,523.000C226.817,523.000,227.482,523.000,228.146,523.000C228.827,523.000,229.508,523.000,230.188,523.000C230.853,523.000,231.517,523.000,232.182,523.000C232.862,523.000,233.543,523.000,234.223,523.000C234.888,523.000,235.552,523.000,236.216,523.000C236.897,523.000,237.577,523.000,238.257,523.000C238.921,523.000,239.585,523.000,240.250,523.000C240.930,523.000,241.610,523.000,242.290,523.000C242.954,523.000,243.618,523.000,244.282,523.000C244.962,523.000,245.642,523.000,246.322,523.000C246.986,523.000,247.650,523.000,248.313,523.000C248.993,523.000,249.673,523.000,250.353,523.000C251.016,523.000,251.680,523.000,252.344,523.000C253.023,523.000,253.703,523.000,254.383,523.000C255.046,523.000,255.710,523.000,256.373,523.000C257.053,523.000,257.732,523.000,258.412,523.000C259.075,523.000,259.738,523.000,260.401,523.000C261.081,523.000,261.760,523.000,262.440,523.000C263.103,523.000,263.766,523.000,264.429,523.000C265.108,523.000,265.787,523.000,266.467,523.000C267.130,523.000,267.792,523.000,268.455,523.000C269.135,523.000,269.814,523.000,270.493,523.000C271.155,523.000,271.818,523.000,272.481,523.000C273.160,523.000,273.839,523.000,274.518,523.000C275.180,523.000,275.843,523.000,276.506,523.000C277.185,523.000,277.863,523.000,278.542,523.000C279.205,523.000,279.867,523.000,280.530,523.000C281.208,523.000,281.887,523.000,282.566,523.000C283.228,523.000,283.890,523.000,284.553,523.000C285.231,523.000,285.910,523.000,286.588,523.000C287.250,523.000,287.913,523.000,288.575,523.000C289.253,523.000,289.932,523.000,290.610,523.000C291.272,523.000,291.934,523.000,292.596,523.000C293.274,523.000,293.953,523.000,294.631,523.000C295.293,523.000,295.955,523.000,296.617,523.000C297.295,523.000,297.973,523.000,298.651,523.000C299.313,523.000,299.975,523.000,300.636,523.000C301.314,523.000,301.992,523.000,302.670,523.000C303.332,523.000,303.994,523.000,304.655,523.000C305.333,523.000,306.011,523.000,306.689,523.000C307.350,523.000,308.012,523.000,308.674,523.000C309.351,523.000,310.029,523.000,310.707,523.000C311.368,523.000,312.030,523.000,312.691,523.000C313.369,523.000,314.046,523.000,314.724,523.000C315.385,523.000,316.046,523.000,316.708,523.000C317.385,523.000,318.063,523.000,318.740,523.000C319.401,523.000,320.063,523.000,320.724,523.000C321.401,523.000,322.078,523.000,322.756,523.000C323.417,523.000,324.078,523.000,324.739,523.000C325.416,523.000,326.094,523.000,326.771,523.000C327.432,523.000,328.093,523.000,328.754,523.000C329.431,523.000,330.108,523.000,330.785,523.000C331.446,523.000,332.107,523.000,332.768,523.000C333.445,523.000,334.122,523.000,334.799,523.000C335.459,523.000,336.120,523.000,336.781,523.000C337.458,523.000,338.135,523.000,338.812,523.000C339.472,523.000,340.133,523.000,340.794,523.000C341.471,523.000,342.147,523.000,342.824,523.000C343.485,523.000,344.145,523.000,344.806,523.000C345.483,523.000,346.159,523.000,346.836,523.000C347.496,523.000,348.157,523.000,348.817,523.000C349.494,523.000,350.171,523.000,350.847,523.000C351.508,523.000,352.168,523.000,352.828,523.000C353.505,523.000,354.181,523.000,354.858,523.000C355.518,523.000,356.178,523.000,356.839,523.000C357.515,523.000,358.191,523.000,358.868,523.000C359.528,523.000,360.188,523.000,360.849,523.000C361.525,523.000,362.201,523.000,362.877,523.000C363.538,523.000,364.198,523.000,364.858,523.000C365.534,523.000,366.210,523.000,366.886,523.000C367.547,523.000,368.207,523.000,368.867,523.000C369.543,523.000,370.219,523.000,370.895,523.000C371.555,523.000,372.215,523.000,372.875,523.000C373.551,523.000,374.227,523.000,374.903,523.000C375.579,523.000,376.255,523.000,376.931,523.000C377.591,523.000,378.251,523.000,378.911,523.000C379.587,523.000,380.263,523.000,380.938,523.000C381.598,523.000,382.258,523.000,382.918,523.000C383.594,523.000,384.270,523.000,384.945,523.000C385.605,523.000,386.265,523.000,386.925,523.000C387.600,523.000,388.276,523.000,388.952,523.000C389.612,523.000,390.271,523.000,390.931,523.000C391.607,523.000,392.282,523.000,392.958,523.000C393.618,523.000,394.277,523.000,394.937,523.000C395.612,523.000,396.288,523.000,396.964,523.000C397.623,523.000,398.283,523.000,398.942,523.000C399.618,523.000,400.293,523.000,400.969,523.000C401.628,523.000,402.288,523.000,402.947,523.000C403.623,523.000,404.298,523.000,404.974,523.000C405.633,523.000,406.293,523.000,406.952,523.000C407.628,523.000,408.303,523.000,408.979,523.000C409.638,523.000,410.297,523.000,410.957,523.000C411.632,523.000,412.307,523.000,412.983,523.000C413.642,523.000,414.301,523.000,414.961,523.000C415.636,523.000,416.311,523.000,416.987,523.000C417.646,523.000,418.305,523.000,418.965,523.000C419.640,523.000,420.315,523.000,420.991,523.000C421.650,523.000,422.309,523.000,422.968,523.000C423.643,523.000,424.319,523.000,424.994,523.000C425.653,523.000,426.312,523.000,426.971,523.000C427.647,523.000,428.322,523.000,428.997,523.000C429.656,523.000,430.315,523.000,430.974,523.000C431.650,523.000,432.325,523.000,433.000,523.000C433.659,523.000,434.318,523.000,434.977,523.000C435.652,523.000,436.328,523.000,437.003,523.000C437.662,523.000,438.321,523.000,438.980,523.000C439.655,523.000,440.330,523.000,441.005,523.000C441.664,523.000,442.323,523.000,442.982,523.000C443.657,523.000,444.332,523.000,445.007,523.000C445.666,523.000,446.325,523.000,446.984,523.000C447.659,523.000,448.335,523.000,449.010,523.000C449.669,523.000,450.327,523.000,450.986,523.000C451.661,523.000,452.337,523.000,453.012,523.000C453.670,523.000,454.329,523.000,454.988,523.000C455.663,523.000,456.338,523.000,457.013,523.000C457.672,523.000,458.331,523.000,458.990,523.000C459.665,523.000,460.340,523.000,461.015,523.000C461.674,523.000,462.333,523.000,462.992,523.000C463.667,523.000,464.342,523.000,465.017,523.000C465.675,523.000,466.334,523.000,466.993,523.000C467.668,523.000,468.343,523.000,469.018,523.000C469.677,523.000,470.336,523.000,470.995,523.000C471.670,523.000,472.345,523.000,473.020,523.000C473.678,523.000,474.337,523.000,474.996,523.000C475.671,523.000,476.346,523.000,477.021,523.000C477.680,523.000,478.339,523.000,478.997,523.000C479.672,523.000,480.347,523.000,481.022,523.000C481.681,523.000,482.340,523.000,482.999,523.000C483.674,523.000,484.349,523.000,485.023,523.000C485.666,523.000,486.309,523.000,486.952,523.000C487.000,522.271,487.000,521.595,487.000,520.920C487.000,520.244,487.000,519.569,487.000,518.894C487.000,518.218,487.000,517.543,487.000,516.868C487.000,516.193,487.000,515.518,487.000,514.843C487.000,514.185,487.000,513.528,487.000,512.871C487.000,512.196,487.000,511.521,487.000,510.846C487.000,510.172,487.000,509.497,487.000,508.822C487.000,508.148,487.000,507.473,487.000,506.799C487.000,506.124,487.000,505.450,487.000,504.776C487.000,504.101,487.000,503.427,487.000,502.753C487.000,502.096,487.000,501.440,487.000,500.784C487.000,500.110,487.000,499.436,487.000,498.762C487.000,498.088,487.000,497.414,487.000,496.741C487.000,496.067,487.000,495.393,487.000,494.720C487.000,494.046,487.000,493.372,487.000,492.699C487.000,492.026,487.000,491.352,487.000,490.679C487.000,490.006,487.000,489.332,487.000,488.659C487.000,488.004,487.000,487.348,487.000,486.693C487.000,486.020,487.000,485.347,487.000,484.674C487.000,484.001,487.000,483.328,487.000,482.656C487.000,481.983,487.000,481.310,487.000,480.638C487.000,479.965,487.000,479.292,487.000,478.620C487.000,477.947,487.000,477.275,487.000,476.603C487.000,475.948,487.000,475.294,487.000,474.639C487.000,473.967,487.000,473.295,487.000,472.623C487.000,471.951,487.000,471.279,487.000,470.607C487.000,469.935,487.000,469.263,487.000,468.591C487.000,467.919,487.000,467.248,487.000,466.576C487.000,465.904,487.000,465.233,487.000,464.561C487.000,463.907,487.000,463.253,487.000,462.600C487.000,461.928,487.000,461.257,487.000,460.586C487.000,459.915,487.000,459.243,487.000,458.572C487.000,457.901,487.000,457.230,487.000,456.559C487.000,455.888,487.000,455.217,487.000,454.546C487.000,453.875,487.000,453.205,487.000,452.534C487.000,451.863,487.000,451.193,487.000,450.522C487.000,449.869,487.000,449.216,487.000,448.563C487.000,447.893,487.000,447.222,487.000,446.552C487.000,445.882,487.000,445.211,487.000,444.541C487.000,443.871,487.000,443.201,487.000,442.531C487.000,441.861,487.000,441.191,487.000,440.521C487.000,439.851,487.000,439.181,487.000,438.511C487.000,437.859,487.000,437.207,487.000,436.555C487.000,435.885,487.000,435.215,487.000,434.546C487.000,433.876,487.000,433.207,487.000,432.537C487.000,431.850,487.000,431.163,487.000,430.476C487.000,429.789,487.000,429.102,487.000,428.415C487.000,427.729,487.000,427.042,487.000,426.355C487.000,425.669,487.000,424.982,487.000,424.295C487.000,423.609,487.000,422.922,487.000,422.236C487.000,421.550,487.000,420.863,487.000,420.177C487.000,419.473,487.000,418.769,487.000,418.065C487.000,417.379,487.000,416.693,487.000,416.007C487.000,415.321,487.000,414.635,487.000,413.949C487.000,413.263,487.000,412.578,487.000,411.892C487.000,411.206,487.000,410.520,487.000,409.835C487.000,409.149,487.000,408.463,487.000,407.778C487.000,407.092,487.000,406.407,487.000,405.721C487.000,405.036,487.000,404.351,487.000,403.665C487.000,402.980,487.000,402.295,487.000,401.610C487.000,400.925,487.000,400.239,487.000,399.554C487.000,398.869,487.000,398.184,487.000,397.500C487.000,396.815,487.000,396.130,487.000,395.445C487.000,394.760,487.000,394.075,487.000,393.391C487.000,392.706,487.000,392.021,487.000,391.337C487.000,390.652,487.000,389.968,487.000,389.283C487.000,388.599,487.000,387.915,487.000,387.230C487.000,386.528,487.000,385.827,487.000,385.125C487.000,384.441,487.000,383.757,487.000,383.073C487.000,382.388,487.000,381.704,487.000,381.020C487.000,380.336,487.000,379.653,487.000,378.969C487.000,378.285,487.000,377.601,487.000,376.917C487.000,376.234,487.000,375.550,487.000,374.866C487.000,374.183,487.000,373.499,487.000,372.816C487.000,372.132,487.000,371.449,487.000,370.765C487.000,370.082,487.000,369.399,487.000,368.715C487.000,368.032,487.000,367.349,487.000,366.666C487.000,365.983,487.000,365.299,487.000,364.616C487.000,363.933,487.000,363.250,487.000,362.567C487.000,361.885,487.000,361.202,487.000,360.519C487.000,359.836,487.000,359.153,487.000,358.471C487.000,357.788,487.000,357.105,487.000,356.423C487.000,355.740,487.000,355.057,487.000,354.375C487.000,353.675,487.000,352.975,487.000,352.275C487.000,351.593,487.000,350.910,487.000,350.228C487.000,349.546,487.000,348.864,487.000,348.181C487.000,347.499,487.000,346.817,487.000,346.135C487.000,345.453,487.000,344.771,487.000,344.089C487.000,343.407,487.000,342.725,487.000,342.043C487.000,341.361,487.000,340.680,487.000,339.998C487.000,339.316,487.000,338.634,487.000,337.953C487.000,337.271,487.000,336.589,487.000,335.908C487.000,335.226,487.000,334.545,487.000,333.863C487.000,333.182,487.000,332.501,487.000,331.819C487.000,331.138,487.000,330.457,487.000,329.775C487.000,329.094,487.000,328.413,487.000,327.732C487.000,327.051,487.000,326.370,487.000,325.689C487.000,325.008,487.000,324.327,487.000,323.646C487.000,322.965,487.000,322.284,487.000,321.603C487.000,320.905,487.000,320.206,487.000,319.508C487.000,318.827,487.000,318.147,487.000,317.466C487.000,316.785,487.000,316.105,487.000,315.424C487.000,314.744,487.000,314.063,487.000,313.383C487.000,312.702,487.000,312.022,487.000,311.342C487.000,310.661,487.000,309.981,487.000,309.301C487.000,308.620,487.000,307.940,487.000,307.260C487.000,306.580,487.000,305.900,487.000,305.220C487.000,304.540,487.000,303.860,487.000,303.180C487.000,302.500,487.000,301.820,487.000,301.140C487.000,300.460,487.000,299.780,487.000,299.100C487.000,298.420,487.000,297.741,487.000,297.061C487.000,296.381,487.000,295.702,487.000,295.022C487.000,294.342,487.000,293.663,487.000,292.983C487.000,292.304,487.000,291.624,487.000,290.945C487.000,290.266,487.000,289.586,487.000,288.907C487.000,288.210,487.000,287.513,487.000,286.817C487.000,286.137,487.000,285.458,487.000,284.779C487.000,284.100,487.000,283.421,487.000,282.742C487.000,282.063,487.000,281.384,487.000,280.705C487.000,280.026,487.000,279.347,487.000,278.668C487.000,277.989,487.000,277.310,487.000,276.631C487.000,275.952,487.000,275.273,487.000,274.595C487.000,273.916,487.000,273.237,487.000,272.559C487.000,271.880,487.000,271.201,487.000,270.523C487.000,269.844,487.000,269.166,487.000,268.487C487.000,267.809,487.000,267.130,487.000,266.452C487.000,265.773,487.000,265.095,487.000,264.417C487.000,263.738,487.000,263.060,487.000,262.382C487.000,261.704,487.000,261.025,487.000,260.347C487.000,259.669,487.000,258.991,487.000,258.313C487.000,257.635,487.000,256.957,487.000,256.279C487.000,255.583,487.000,254.888,487.000,254.193C487.000,253.515,487.000,252.837,487.000,252.159C487.000,251.481,487.000,250.803,487.000,250.126C487.000,249.448,487.000,248.770,487.000,248.092C487.000,247.415,487.000,246.737,487.000,246.060C487.000,245.382,487.000,244.704,487.000,244.027C487.000,243.349,487.000,242.672,487.000,241.994C487.000,241.317,487.000,240.639,487.000,239.962C487.000,239.285,487.000,238.607,487.000,237.930C487.000,237.253,487.000,236.575,487.000,235.898C487.000,235.221,487.000,234.544,487.000,233.866C487.000,233.189,487.000,232.512,487.000,231.835C487.000,231.158,487.000,230.481,487.000,229.804C487.000,229.127,487.000,228.450,487.000,227.773C487.000,227.096,487.000,226.419,487.000,225.742C487.000,225.065,487.000,224.388,487.000,223.711C487.000,223.017,487.000,222.323,487.000,221.629C487.000,220.952,487.000,220.275,487.000,219.599C487.000,218.922,487.000,218.245,487.000,217.569C487.000,216.892,487.000,216.216,487.000,215.539C487.000,214.862,487.000,214.186,487.000,213.509C487.000,212.833,487.000,212.157,487.000,211.480C487.000,210.804,487.000,210.127,487.000,209.451C487.000,208.775,487.000,208.098,487.000,207.422C487.000,206.746,487.000,206.069,487.000,205.393C487.000,204.717,487.000,204.041,487.000,203.365C487.000,202.688,487.000,202.012,487.000,201.336C487.000,200.660,487.000,199.984,487.000,199.308C487.000,198.632,487.000,197.956,487.000,197.280C487.000,196.604,487.000,195.928,487.000,195.252C487.000,194.576,487.000,193.900,487.000,193.224C487.000,192.548,487.000,191.873,487.000,191.197C487.000,190.504,487.000,189.811,487.000,189.117C487.000,188.442,487.000,187.766,487.000,187.090C487.000,186.415,487.000,185.739,487.000,185.063C487.000,184.388,487.000,183.712,487.000,183.036C487.000,182.361,487.000,181.685,487.000,181.010C487.000,180.334,487.000,179.659,487.000,178.983C487.000,178.308,487.000,177.632,487.000,176.957C487.000,176.282,487.000,175.606,487.000,174.931C487.000,174.256,487.000,173.580,487.000,172.905C487.000,172.230,487.000,171.554,487.000,170.879C487.000,170.204,487.000,169.529,487.000,168.853C487.000,168.178,487.000,167.503,487.000,166.828C487.000,166.153,487.000,165.478,487.000,164.803C487.000,164.127,487.000,163.452,487.000,162.777C487.000,162.102,487.000,161.427,487.000,160.752C487.000,160.077,487.000,159.402,487.000,158.727C487.000,158.035,487.000,157.343,487.000,156.651C487.000,155.976,487.000,155.301,487.000,154.626C487.000,153.951,487.000,153.276,487.000,152.602C487.000,151.927,487.000,151.252,487.000,150.577C487.000,149.902,487.000,149.228,487.000,148.553C487.000,147.878,487.000,147.204,487.000,146.529C487.000,145.854,487.000,145.180,487.000,144.505C487.000,143.830,487.000,143.156,487.000,142.481C487.000,141.807,487.000,141.132,487.000,140.458C487.000,139.783,487.000,139.109,487.000,138.434C487.000,137.760,487.000,137.085,487.000,136.411C487.000,135.736,487.000,135.062,487.000,134.387C487.000,133.713,487.000,133.039,487.000,132.364C487.000,131.690,487.000,131.016,487.000,130.341C487.000,129.667,487.000,128.993,487.000,128.318C487.000,127.644,487.000,126.970,487.000,126.295C487.000,125.604,487.000,124.912,487.000,124.221C487.000,123.547,487.000,122.873,487.000,122.198C487.000,121.524,487.000,120.850,487.000,120.176C487.000,119.502,487.000,118.828,487.000,118.154C487.000,117.479,487.000,116.805,487.000,116.131C487.000,115.457,487.000,114.783,487.000,114.109C487.000,113.435,487.000,112.761,487.000,112.087C487.000,111.413,487.000,110.739,487.000,110.065C487.000,109.391,487.000,108.717,487.000,108.043C487.000,107.370,487.000,106.696,487.000,106.022C487.000,105.348,487.000,104.674,487.000,104.000C487.000,103.326,487.000,102.652,487.000,101.979C487.000,101.305,487.000,100.631,487.000,99.957C487.000,99.283,487.000,98.610,487.000,97.936C487.000,97.262,487.000,96.588,487.000,95.915C487.000,95.241,487.000,94.567,487.000,93.893C487.000,93.202,487.000,92.512,487.000,91.821C487.000,91.147,487.000,90.473,487.000,89.800C487.000,89.126,487.000,88.452,487.000,87.779C487.000,87.105,487.000,86.431,487.000,85.758C487.000,85.084,487.000,84.411,487.000,83.737C487.000,83.064,487.000,82.390,487.000,81.716C487.000,81.043,487.000,80.369,487.000,79.696C487.000,79.022,487.000,78.349,487.000,77.675C487.000,77.002,487.000,76.328,487.000,75.655C487.000,74.981,487.000,74.308,487.000,73.635C487.000,72.961,487.000,72.288,487.000,71.614C487.000,70.941,487.000,70.267,487.000,69.594C487.000,68.921,487.000,68.247,487.000,67.574C487.000,66.900,487.000,66.227,487.000,65.554C487.000,64.880,487.000,64.207,487.000,63.534C487.000,62.860,487.000,62.187,487.000,61.514C487.000,60.823,487.000,60.133,487.000,59.442C487.000,58.769,487.000,58.095,487.000,57.422C487.000,56.749,487.000,56.076,487.000,55.402C487.000,54.729,487.000,54.056,487.000,53.382C487.000,52.709,487.000,52.036,487.000,51.363C487.000,50.690,487.000,50.016,487.000,49.343C487.000,48.670,487.000,47.997,487.000,47.323C487.000,46.650,487.000,45.977,487.000,45.304C487.000,44.631,487.000,43.957,487.000,43.284C487.000,42.611,487.000,41.938,487.000,41.265C487.000,40.592,487.000,39.918,487.000,39.245C487.000,38.572,487.000,37.899,487.000,37.226C487.000,36.553,487.000,35.880,487.000,35.206C487.000,34.533,487.000,33.860,487.000,33.187C487.000,32.514,487.000,31.841,487.000,31.168C487.000,30.495,487.000,29.822,487.000,29.148C487.000,28.458,487.000,27.768,487.000,27.077C487.000,26.404,487.000,25.731,487.000,25.058C487.000,24.385,487.000,23.712,487.000,23.039C487.000,22.366,487.000,21.693,487.000,21.020C487.000,20.347,487.000,19.674,487.000,19.001C487.000,18.327,487.000,17.654,487.000,16.981C487.000,16.308,487.000,15.635,487.000,14.962C487.000,14.289,487.000,13.616,487.000,12.943C487.000,12.270,487.000,11.597,487.000,10.924C487.000,10.251,487.000,9.578,487.000,8.905C487.000,8.232,487.000,7.559,487.000,6.886C487.000,6.213,487.000,5.540,487.000,4.867C487.000,4.194,487.000,3.520,487.000,2.847C487.000,2.174,487.000,1.501,487.000,0.828C487.000,0.569,487.000,0.311,487.000,0.052C486.967,0.000,486.934,0.000,486.901,0.000C486.222,0.000,485.543,0.000,484.864,0.000C484.186,0.000,483.507,0.000,482.828,0.000C482.100,0.000,481.372,0.000,480.644,0.000C479.949,0.000,479.254,0.000,478.560,0.000C477.881,0.000,477.203,0.000,476.525,0.000C475.831,0.000,475.136,0.000,474.442,0.000C473.764,0.000,473.086,0.000,472.408,0.000C471.714,0.000,471.020,0.000,470.326,0.000C469.648,0.000,468.971,0.000,468.293,0.000C467.599,0.000,466.906,0.000,466.212,0.000C465.485,0.000,464.758,0.000,464.032,0.000C463.305,0.000,462.579,0.000,461.852,0.000C461.175,0.000,460.498,0.000,459.822,0.000C459.095,0.000,458.369,0.000,457.643,0.000C456.917,0.000,456.191,0.000,455.465,0.000C454.706,0.000,453.947,0.000,453.189,0.000C452.496,0.000,451.803,0.000,451.111,0.000C450.435,0.000,449.759,0.000,449.083,0.000C448.390,0.000,447.698,0.000,447.006,0.000C446.330,0.000,445.654,0.000,444.979,0.000C444.286,0.000,443.594,0.000,442.902,0.000C442.178,0.000,441.453,0.000,440.728,0.000C440.053,0.000,439.377,0.000,438.702,0.000C437.978,0.000,437.253,0.000,436.529,0.000C435.837,0.000,435.146,0.000,434.455,0.000C433.730,0.000,433.006,0.000,432.282,0.000C431.607,0.000,430.933,0.000,430.258,0.000C429.534,0.000,428.810,0.000,428.087,0.000C427.396,0.000,426.705,0.000,426.014,0.000C425.340,0.000,424.666,0.000,423.992,0.000C423.285,0.000,422.578,0.000,421.871,0.000C421.164,0.000,420.457,0.000,419.751,0.000C419.077,0.000,418.403,0.000,417.729,0.000C417.039,0.000,416.349,0.000,415.659,0.000C414.887,0.000,414.115,0.000,413.343,0.000C412.637,0.000,411.931,0.000,411.225,0.000C410.552,0.000,409.878,0.000,409.205,0.000C408.434,0.000,407.662,0.000,406.891,0.000C406.218,0.000,405.545,0.000,404.872,0.000C404.150,0.000,403.428,0.000,402.706,0.000C402.017,0.000,401.328,0.000,400.639,0.000C399.967,0.000,399.295,0.000,398.622,0.000C397.901,0.000,397.179,0.000,396.458,0.000C395.769,0.000,395.080,0.000,394.392,0.000C393.671,0.000,392.949,0.000,392.228,0.000C391.540,0.000,390.852,0.000,390.164,0.000C389.459,0.000,388.754,0.000,388.050,0.000C387.329,0.000,386.608,0.000,385.888,0.000C385.200,0.000,384.512,0.000,383.824,0.000C383.153,0.000,382.481,0.000,381.810,0.000C381.090,0.000,380.369,0.000,379.649,0.000C378.962,0.000,378.274,0.000,377.587,0.000C376.916,0.000,376.245,0.000,375.574,0.000C374.887,0.000,374.200,0.000,373.512,0.000C372.793,0.000,372.073,0.000,371.353,0.000C370.683,0.000,370.012,0.000,369.342,0.000C368.622,0.000,367.903,0.000,367.183,0.000C366.513,0.000,365.842,0.000,365.172,0.000C364.486,0.000,363.799,0.000,363.113,0.000C362.443,0.000,361.773,0.000,361.103,0.000C360.416,0.000,359.730,0.000,359.044,0.000C358.325,0.000,357.606,0.000,356.887,0.000C356.218,0.000,355.548,0.000,354.878,0.000C354.192,0.000,353.506,0.000,352.821,0.000C352.151,0.000,351.482,0.000,350.812,0.000C350.127,0.000,349.441,0.000,348.755,0.000C348.086,0.000,347.417,0.000,346.748,0.000C346.062,0.000,345.377,0.000,344.692,0.000C344.023,0.000,343.354,0.000,342.685,0.000C342.000,0.000,341.314,0.000,340.629,0.000C339.961,0.000,339.292,0.000,338.623,0.000C337.938,0.000,337.253,0.000,336.568,0.000C335.900,0.000,335.231,0.000,334.563,0.000C333.878,0.000,333.194,0.000,332.509,0.000C331.841,0.000,331.172,0.000,330.504,0.000C329.820,0.000,329.135,0.000,328.451,0.000C327.783,0.000,327.115,0.000,326.447,0.000C325.730,0.000,325.013,0.000,324.296,0.000C323.612,0.000,322.928,0.000,322.244,0.000C321.576,0.000,320.909,0.000,320.241,0.000C319.557,0.000,318.873,0.000,318.189,0.000C317.522,0.000,316.854,0.000,316.187,0.000C315.503,0.000,314.820,0.000,314.136,0.000C313.469,0.000,312.801,0.000,312.134,0.000C311.451,0.000,310.767,0.000,310.084,0.000C309.417,0.000,308.750,0.000,308.083,0.000C307.399,0.000,306.716,0.000,306.033,0.000C305.366,0.000,304.699,0.000,304.033,0.000C303.350,0.000,302.667,0.000,301.984,0.000C301.317,0.000,300.650,0.000,299.984,0.000C299.301,0.000,298.618,0.000,297.935,0.000C297.269,0.000,296.602,0.000,295.936,0.000C295.253,0.000,294.571,0.000,293.888,0.000C293.206,0.000,292.523,0.000,291.841,0.000C291.175,0.000,290.509,0.000,289.843,0.000C289.160,0.000,288.478,0.000,287.796,0.000C287.130,0.000,286.464,0.000,285.798,0.000C285.116,0.000,284.434,0.000,283.752,0.000C283.086,0.000,282.420,0.000,281.755,0.000C281.073,0.000,280.391,0.000,279.709,0.000C279.043,0.000,278.378,0.000,277.712,0.000C277.031,0.000,276.349,0.000,275.667,0.000C274.969,0.000,274.272,0.000,273.574,0.000C272.892,0.000,272.211,0.000,271.529,0.000C270.864,0.000,270.199,0.000,269.534,0.000C268.853,0.000,268.171,0.000,267.490,0.000C266.825,0.000,266.160,0.000,265.495,0.000C264.814,0.000,264.133,0.000,263.452,0.000C262.771,0.000,262.090,0.000,261.409,0.000C260.744,0.000,260.079,0.000,259.415,0.000C258.734,0.000,258.053,0.000,257.372,0.000C256.708,0.000,256.043,0.000,255.379,0.000C254.698,0.000,254.017,0.000,253.337,0.000C252.672,0.000,252.008,0.000,251.344,0.000C250.663,0.000,249.983,0.000,249.302,0.000C248.638,0.000,247.974,0.000,247.310,0.000C246.629,0.000,245.949,0.000,245.269,0.000C244.605,0.000,243.941,0.000,243.277,0.000C242.597,0.000,241.917,0.000,241.237,0.000C240.573,0.000,239.909,0.000,239.245,0.000C238.565,0.000,237.885,0.000,237.205,0.000C236.541,0.000,235.878,0.000,235.214,0.000C234.534,0.000,233.855,0.000,233.175,0.000C232.511,0.000,231.848,0.000,231.184,0.000C230.505,0.000,229.825,0.000,229.145,0.000C228.482,0.000,227.819,0.000,227.155,0.000C226.476,0.000,225.796,0.000,225.117,0.000C224.454,0.000,223.790,0.000,223.127,0.000C222.448,0.000,221.769,0.000,221.089,0.000C220.426,0.000,219.763,0.000,219.100,0.000C218.421,0.000,217.742,0.000,217.063,0.000C216.400,0.000,215.737,0.000,215.074,0.000C214.395,0.000,213.716,0.000,213.037,0.000C212.374,0.000,211.711,0.000,211.049,0.000C210.370,0.000,209.691,0.000,209.012,0.000C208.350,0.000,207.687,0.000,207.024,0.000C206.346,0.000,205.667,0.000,204.988,0.000C204.326,0.000,203.663,0.000,203.001,0.000C202.290,0.000,201.579,0.000,200.868,0.000C200.157,0.000,199.447,0.000,198.736,0.000C198.057,0.000,197.379,0.000,196.701,0.000C196.038,0.000,195.376,0.000,194.714,0.000C194.036,0.000,193.357,0.000,192.679,0.000C192.017,0.000,191.355,0.000,190.693,0.000C189.983,0.000,189.272,0.000,188.562,0.000C187.819,0.000,187.076,0.000,186.334,0.000C185.656,0.000,184.978,0.000,184.300,0.000C183.638,0.000,182.976,0.000,182.314,0.000C181.637,0.000,180.959,0.000,180.281,0.000C179.619,0.000,178.958,0.000,178.296,0.000C177.586,0.000,176.876,0.000,176.166,0.000C175.456,0.000,174.746,0.000,174.036,0.000C173.358,0.000,172.681,0.000,172.003,0.000C171.342,0.000,170.680,0.000,170.019,0.000C169.325,0.000,168.632,0.000,167.938,0.000C167.212,0.000,166.486,0.000,165.761,0.000C165.083,0.000,164.406,0.000,163.729,0.000C163.019,0.000,162.309,0.000,161.600,0.000C160.890,0.000,160.181,0.000,159.471,0.000C158.810,0.000,158.149,0.000,157.488,0.000C156.811,0.000,156.134,0.000,155.457,0.000C154.796,0.000,154.135,0.000,153.474,0.000C152.797,0.000,152.120,0.000,151.443,0.000C150.782,0.000,150.121,0.000,149.460,0.000C148.783,0.000,148.106,0.000,147.430,0.000C146.769,0.000,146.108,0.000,145.447,0.000C144.770,0.000,144.094,0.000,143.417,0.000C142.676,0.000,141.934,0.000,141.193,0.000C140.533,0.000,139.872,0.000,139.211,0.000C138.503,0.000,137.794,0.000,137.085,0.000C136.328,0.000,135.570,0.000,134.813,0.000C134.153,0.000,133.492,0.000,132.832,0.000C132.155,0.000,131.479,0.000,130.802,0.000C130.142,0.000,129.482,0.000,128.821,0.000C128.145,0.000,127.469,0.000,126.792,0.000C126.100,0.000,125.407,0.000,124.715,0.000C123.990,0.000,123.265,0.000,122.541,0.000C121.881,0.000,121.220,0.000,120.560,0.000C119.884,0.000,119.208,0.000,118.532,0.000C117.823,0.000,117.115,0.000,116.406,0.000C115.698,0.000,114.990,0.000,114.281,0.000C113.621,0.000,112.961,0.000,112.301,0.000C111.625,0.000,110.949,0.000,110.273,0.000C109.613,0.000,108.953,0.000,108.293,0.000C107.585,0.000,106.877,0.000,106.169,0.000C105.493,0.000,104.817,0.000,104.141,0.000C103.481,0.000,102.821,0.000,102.161,0.000C101.453,0.000,100.745,0.000,100.037,0.000C99.361,0.000,98.686,0.000,98.010,0.000C97.350,0.000,96.690,0.000,96.031,0.000C95.355,0.000,94.679,0.000,94.003,0.000C93.263,0.000,92.523,0.000,91.783,0.000C91.075,0.000,90.367,0.000,89.659,0.000C89.000,0.000,88.340,0.000,87.680,0.000C86.989,0.000,86.297,0.000,85.605,0.000C84.833,0.000,84.061,0.000,83.289,0.000C82.629,0.000,81.970,0.000,81.310,0.000C80.635,0.000,79.959,0.000,79.284,0.000C78.544,0.000,77.804,0.000,77.064,0.000C76.389,0.000,75.713,0.000,75.038,0.000C74.330,0.000,73.623,0.000,72.915,0.000C72.256,0.000,71.596,0.000,70.937,0.000C70.245,0.000,69.554,0.000,68.862,0.000C68.139,0.000,67.415,0.000,66.691,0.000C66.032,0.000,65.373,0.000,64.714,0.000C64.038,0.000,63.363,0.000,62.688,0.000C62.028,0.000,61.369,0.000,60.710,0.000C60.002,0.000,59.295,0.000,58.588,0.000C57.880,0.000,57.173,0.000,56.465,0.000C55.758,0.000,55.050,0.000,54.343,0.000C53.668,0.000,52.993,0.000,52.317,0.000C51.658,0.000,50.999,0.000,50.340,0.000C49.665,0.000,48.990,0.000,48.314,0.000C47.607,0.000,46.900,0.000,46.192,0.000C45.485,0.000,44.778,0.000,44.070,0.000C43.411,0.000,42.752,0.000,42.093,0.000C41.418,0.000,40.743,0.000,40.068,0.000C39.361,0.000,38.653,0.000,37.946,0.000C37.239,0.000,36.531,0.000,35.824,0.000C35.165,0.000,34.506,0.000,33.847,0.000C33.172,0.000,32.497,0.000,31.822,0.000C31.115,0.000,30.408,0.000,29.700,0.000C29.009,0.000,28.318,0.000,27.627,0.000C26.952,0.000,26.277,0.000,25.602,0.000C24.895,0.000,24.187,0.000,23.480,0.000C22.821,0.000,22.162,0.000,21.503,0.000C20.828,0.000,20.153,0.000,19.478,0.000C18.819,0.000,18.160,0.000,17.502,0.000C16.827,0.000,16.152,0.000,15.477,0.000C14.769,0.000,14.062,0.000,13.355,0.000C12.696,0.000,12.037,0.000,11.378,0.000C10.703,0.000,10.028,0.000,9.353,0.000C8.694,0.000,8.036,0.000,7.377,0.000C6.669,0.000,5.962,0.000,5.255,0.000C4.580,0.000,3.905,0.000,3.230,0.000C2.571,0.000,1.912,0.000,1.254,0.000C0.836,0.000,0.418,0.000,0.000,0.000C0.000,0.018,0.000,0.036,0.000,0.053C0.000,0.729,0.000,1.405,0.000,2.080C0.000,2.756,0.000,3.431,0.000,4.106C0.000,4.782,0.000,5.457,0.000,6.132C0.000,6.807,0.000,7.482,0.000,8.157C0.000,8.815,0.000,9.472,0.000,10.129C0.000,10.804,0.000,11.479,0.000,12.154C0.000,12.828,0.000,13.503,0.000,14.178C0.000,14.852,0.000,15.527,0.000,16.201C0.000,16.876,0.000,17.550,0.000,18.224C0.000,18.899,0.000,19.573,0.000,20.247C0.000,20.904,0.000,21.560,0.000,22.216C0.000,22.890,0.000,23.564,0.000,24.238C0.000,24.912,0.000,25.586,0.000,26.259C0.000,26.933,0.000,27.607,0.000,28.280C0.000,28.954,0.000,29.628,0.000,30.301C0.000,30.974,0.000,31.648,0.000,32.321C0.000,32.994,0.000,33.668,0.000,34.341C0.000,34.996,0.000,35.652,0.000,36.307C0.000,36.980,0.000,37.653,0.000,38.326C0.000,38.999,0.000,39.672,0.000,40.344C0.000,41.017,0.000,41.690,0.000,42.362C0.000,43.035,0.000,43.708,0.000,44.380C0.000,45.053,0.000,45.725,0.000,46.397C0.000,47.052,0.000,47.706,0.000,48.361C0.000,49.033,0.000,49.705,0.000,50.377C0.000,51.049,0.000,51.721,0.000,52.393C0.000,53.065,0.000,53.737,0.000,54.409C0.000,55.081,0.000,55.752,0.000,56.424C0.000,57.096,0.000,57.767,0.000,58.439C0.000,59.093,0.000,59.747,0.000,60.400C0.000,61.072,0.000,61.743,0.000,62.414C0.000,63.085,0.000,63.757,0.000,64.428C0.000,65.099,0.000,65.770,0.000,66.441C0.000,67.112,0.000,67.783,0.000,68.454C0.000,69.125,0.000,69.795,0.000,70.466C0.000,71.137,0.000,71.807,0.000,72.478C0.000,73.131,0.000,73.784,0.000,74.437C0.000,75.107,0.000,75.778,0.000,76.448C0.000,77.118,0.000,77.789,0.000,78.459C0.000,79.129,0.000,79.799,0.000,80.469C0.000,81.139,0.000,81.809,0.000,82.479C0.000,83.149,0.000,83.819,0.000,84.489C0.000,85.141,0.000,85.793,0.000,86.445C0.000,87.115,0.000,87.785,0.000,88.454C0.000,89.124,0.000,89.793,0.000,90.463C0.000,91.150,0.000,91.837,0.000,92.524C0.000,93.211,0.000,93.898,0.000,94.585C0.000,95.271,0.000,95.958,0.000,96.645C0.000,97.331,0.000,98.018,0.000,98.705C0.000,99.391,0.000,100.078,0.000,100.764C0.000,101.450,0.000,102.137,0.000,102.823C0.000,103.527,0.000,104.231,0.000,104.935C0.000,105.621,0.000,106.307,0.000,106.993C0.000,107.679,0.000,108.365,0.000,109.051C0.000,109.737,0.000,110.422,0.000,111.108C0.000,111.794,0.000,112.480,0.000,113.165C0.000,113.851,0.000,114.537,0.000,115.222C0.000,115.908,0.000,116.593,0.000,117.279C0.000,117.964,0.000,118.649,0.000,119.335C0.000,120.020,0.000,120.705,0.000,121.390C0.000,122.075,0.000,122.761,0.000,123.446C0.000,124.131,0.000,124.816,0.000,125.500C0.000,126.185,0.000,126.870,0.000,127.555C0.000,128.240,0.000,128.925,0.000,129.609C0.000,130.294,0.000,130.979,0.000,131.663C0.000,132.348,0.000,133.032,0.000,133.717C0.000,134.401,0.000,135.085,0.000,135.770C0.000,136.472,0.000,137.173,0.000,137.875C0.000,138.559,0.000,139.243,0.000,139.927C0.000,140.612,0.000,141.296,0.000,141.980C0.000,142.664,0.000,143.347,0.000,144.031C0.000,144.715,0.000,145.399,0.000,146.083C0.000,146.766,0.000,147.450,0.000,148.134C0.000,148.817,0.000,149.501,0.000,150.184C0.000,150.868,0.000,151.551,0.000,152.235C0.000,152.918,0.000,153.601,0.000,154.285C0.000,154.968,0.000,155.651,0.000,156.334C0.000,157.017,0.000,157.701,0.000,158.384C0.000,159.067,0.000,159.750,0.000,160.433C0.000,161.115,0.000,161.798,0.000,162.481C0.000,163.164,0.000,163.847,0.000,164.529C0.000,165.212,0.000,165.895,0.000,166.577C0.000,167.260,0.000,167.943,0.000,168.625C0.000,169.325,0.000,170.025,0.000,170.725C0.000,171.407,0.000,172.090,0.000,172.772C0.000,173.454,0.000,174.136,0.000,174.819C0.000,175.501,0.000,176.183,0.000,176.865C0.000,177.547,0.000,178.229,0.000,178.911C0.000,179.593,0.000,180.275,0.000,180.957C0.000,181.639,0.000,182.320,0.000,183.002C0.000,183.684,0.000,184.366,0.000,185.047C0.000,185.729,0.000,186.411,0.000,187.092C0.000,187.774,0.000,188.455,0.000,189.137C0.000,189.818,0.000,190.499,0.000,191.181C0.000,191.862,0.000,192.543,0.000,193.225C0.000,193.906,0.000,194.587,0.000,195.268C0.000,195.949,0.000,196.630,0.000,197.311C0.000,197.992,0.000,198.673,0.000,199.354C0.000,200.035,0.000,200.716,0.000,201.397C0.000,202.095,0.000,202.794,0.000,203.492C0.000,204.173,0.000,204.853,0.000,205.534C0.000,206.215,0.000,206.895,0.000,207.576C0.000,208.256,0.000,208.937,0.000,209.617C0.000,210.298,0.000,210.978,0.000,211.658C0.000,212.339,0.000,213.019,0.000,213.699C0.000,214.380,0.000,215.060,0.000,215.740C0.000,216.420,0.000,217.100,0.000,217.780C0.000,218.460,0.000,219.140,0.000,219.820C0.000,220.500,0.000,221.180,0.000,221.860C0.000,222.540,0.000,223.220,0.000,223.900C0.000,224.580,0.000,225.259,0.000,225.939C0.000,226.619,0.000,227.298,0.000,227.978C0.000,228.658,0.000,229.337,0.000,230.017C0.000,230.696,0.000,231.376,0.000,232.055C0.000,232.734,0.000,233.414,0.000,234.093C0.000,234.790,0.000,235.487,0.000,236.183C0.000,236.863,0.000,237.542,0.000,238.221C0.000,238.900,0.000,239.579,0.000,240.258C0.000,240.937,0.000,241.616,0.000,242.295C0.000,242.974,0.000,243.653,0.000,244.332C0.000,245.011,0.000,245.690,0.000,246.369C0.000,247.048,0.000,247.727,0.000,248.405C0.000,249.084,0.000,249.763,0.000,250.441C0.000,251.120,0.000,251.799,0.000,252.477C0.000,253.156,0.000,253.834,0.000,254.513C0.000,255.191,0.000,255.870,0.000,256.548C0.000,257.227,0.000,257.905,0.000,258.583C0.000,259.262,0.000,259.940,0.000,260.618C0.000,261.296,0.000,261.975,0.000,262.653C0.000,263.331,0.000,264.009,0.000,264.687C0.000,265.365,0.000,266.043,0.000,266.721C0.000,267.417,0.000,268.112,0.000,268.807C0.000,269.485,0.000,270.163,0.000,270.841C0.000,271.519,0.000,272.197,0.000,272.874C0.000,273.552,0.000,274.230,0.000,274.908C0.000,275.585,0.000,276.263,0.000,276.940C0.000,277.618,0.000,278.296,0.000,278.973C0.000,279.651,0.000,280.328,0.000,281.006C0.000,281.683,0.000,282.361,0.000,283.038C0.000,283.715,0.000,284.393,0.000,285.070C0.000,285.747,0.000,286.425,0.000,287.102C0.000,287.779,0.000,288.456,0.000,289.134C0.000,289.811,0.000,290.488,0.000,291.165C0.000,291.842,0.000,292.519,0.000,293.196C0.000,293.873,0.000,294.550,0.000,295.227C0.000,295.904,0.000,296.581,0.000,297.258C0.000,297.935,0.000,298.612,0.000,299.289C0.000,299.983,0.000,300.677,0.000,301.371C0.000,302.048,0.000,302.725,0.000,303.401C0.000,304.078,0.000,304.755,0.000,305.431C0.000,306.108,0.000,306.784,0.000,307.461C0.000,308.138,0.000,308.814,0.000,309.491C0.000,310.167,0.000,310.843,0.000,311.520C0.000,312.196,0.000,312.873,0.000,313.549C0.000,314.225,0.000,314.902,0.000,315.578C0.000,316.254,0.000,316.931,0.000,317.607C0.000,318.283,0.000,318.959,0.000,319.635C0.000,320.312,0.000,320.988,0.000,321.664C0.000,322.340,0.000,323.016,0.000,323.692C0.000,324.368,0.000,325.044,0.000,325.720C0.000,326.396,0.000,327.072,0.000,327.748C0.000,328.424,0.000,329.100,0.000,329.776C0.000,330.452,0.000,331.127,0.000,331.803C0.000,332.496,0.000,333.189,0.000,333.883C0.000,334.558,0.000,335.234,0.000,335.910C0.000,336.585,0.000,337.261,0.000,337.937C0.000,338.612,0.000,339.288,0.000,339.964C0.000,340.639,0.000,341.315,0.000,341.990C0.000,342.666,0.000,343.341,0.000,344.017C0.000,344.692,0.000,345.368,0.000,346.043C0.000,346.718,0.000,347.394,0.000,348.069C0.000,348.744,0.000,349.420,0.000,350.095C0.000,350.770,0.000,351.446,0.000,352.121C0.000,352.796,0.000,353.471,0.000,354.147C0.000,354.822,0.000,355.497,0.000,356.172C0.000,356.847,0.000,357.522,0.000,358.197C0.000,358.873,0.000,359.548,0.000,360.223C0.000,360.898,0.000,361.573,0.000,362.248C0.000,362.923,0.000,363.598,0.000,364.273C0.000,364.965,0.000,365.657,0.000,366.349C0.000,367.024,0.000,367.699,0.000,368.374C0.000,369.049,0.000,369.724,0.000,370.398C0.000,371.073,0.000,371.748,0.000,372.423C0.000,373.098,0.000,373.772,0.000,374.447C0.000,375.122,0.000,375.796,0.000,376.471C0.000,377.146,0.000,377.820,0.000,378.495C0.000,379.170,0.000,379.844,0.000,380.519C0.000,381.193,0.000,381.868,0.000,382.542C0.000,383.217,0.000,383.891,0.000,384.566C0.000,385.240,0.000,385.915,0.000,386.589C0.000,387.264,0.000,387.938,0.000,388.613C0.000,389.287,0.000,389.961,0.000,390.636C0.000,391.310,0.000,391.984,0.000,392.659C0.000,393.333,0.000,394.007,0.000,394.682C0.000,395.356,0.000,396.030,0.000,396.705C0.000,397.396,0.000,398.088,0.000,398.779C0.000,399.453,0.000,400.127,0.000,400.802C0.000,401.476,0.000,402.150,0.000,402.824C0.000,403.498,0.000,404.172,0.000,404.846C0.000,405.521,0.000,406.195,0.000,406.869C0.000,407.543,0.000,408.217,0.000,408.891C0.000,409.565,0.000,410.239,0.000,410.913C0.000,411.587,0.000,412.261,0.000,412.935C0.000,413.609,0.000,414.283,0.000,414.957C0.000,415.630,0.000,416.304,0.000,416.978C0.000,417.652,0.000,418.326,0.000,419.000C0.000,419.674,0.000,420.348,0.000,421.021C0.000,421.695,0.000,422.369,0.000,423.043C0.000,423.717,0.000,424.390,0.000,425.064C0.000,425.738,0.000,426.412,0.000,427.085C0.000,427.759,0.000,428.433,0.000,429.107C0.000,429.798,0.000,430.488,0.000,431.179C0.000,431.853,0.000,432.527,0.000,433.200C0.000,433.874,0.000,434.548,0.000,435.221C0.000,435.895,0.000,436.569,0.000,437.242C0.000,437.916,0.000,438.589,0.000,439.263C0.000,439.936,0.000,440.610,0.000,441.284C0.000,441.957,0.000,442.631,0.000,443.304C0.000,443.978,0.000,444.651,0.000,445.325C0.000,445.998,0.000,446.672,0.000,447.345C0.000,448.019,0.000,448.692,0.000,449.365C0.000,450.039,0.000,450.712,0.000,451.386C0.000,452.059,0.000,452.733,0.000,453.406C0.000,454.079,0.000,454.753,0.000,455.426C0.000,456.100,0.000,456.773,0.000,457.446C0.000,458.120,0.000,458.793,0.000,459.466C0.000,460.140,0.000,460.813,0.000,461.486C0.000,462.177,0.000,462.867,0.000,463.558C0.000,464.231,0.000,464.905,0.000,465.578C0.000,466.251,0.000,466.924,0.000,467.598C0.000,468.271,0.000,468.944,0.000,469.618C0.000,470.291,0.000,470.964,0.000,471.637C0.000,472.310,0.000,472.984,0.000,473.657C0.000,474.330,0.000,475.003,0.000,475.677C0.000,476.350,0.000,477.023,0.000,477.696C0.000,478.369,0.000,479.043,0.000,479.716C0.000,480.389,0.000,481.062,0.000,481.735C0.000,482.408,0.000,483.082,0.000,483.755C0.000,484.428,0.000,485.101,0.000,485.774C0.000,486.447,0.000,487.120,0.000,487.794C0.000,488.467,0.000,489.140,0.000,489.813C0.000,490.486,0.000,491.159,0.000,491.832C0.000,492.505,0.000,493.178,0.000,493.852C0.000,494.542,0.000,495.232,0.000,495.923C0.000,496.596,0.000,497.269,0.000,497.942C0.000,498.615,0.000,499.288,0.000,499.961C0.000,500.634,0.000,501.307,0.000,501.980C0.000,502.653,0.000,503.326,0.000,503.999C0.000,504.673,0.000,505.346,0.000,506.019C0.000,506.692,0.000,507.365,0.000,508.038C0.000,508.711,0.000,509.384,0.000,510.057C0.000,510.730,0.000,511.403,0.000,512.076C0.000,512.749,0.000,513.422,0.000,514.095C0.000,514.768,0.000,515.441,0.000,516.114C0.000,516.787,0.000,517.460,0.000,518.133C0.000,518.806,0.000,519.480,0.000,520.153C0.000,520.826,0.000,521.499,0.000,522.172C0.000,522.431,0.000,522.689,0.000,522.948C0.728,523.000,1.407,523.000,2.086,523.000C2.748,523.000,3.410,523.000,4.072,523.000C4.750,523.000,5.429,523.000,6.107,523.000C6.802,523.000,7.497,523.000,8.191,523.000C8.870,523.000,9.548,523.000,10.226,523.000C10.920,523.000,11.615,523.000,12.309,523.000C12.987,523.000,13.665,523.000,14.342,523.000C15.036,523.000,15.731,523.000,16.425,523.000C17.102,523.000,17.780,523.000,18.457,523.000C19.151,523.000,19.845,523.000,20.538,523.000C21.215,523.000,21.893,523.000,22.570,523.000C23.263,523.000,23.957,523.000,24.650,523.000C25.327,523.000,26.004,523.000,26.680,523.000C27.374,523.000,28.067,523.000,28.760,523.000C29.436,523.000,30.113,523.000,30.789,523.000C31.482,523.000,32.175,523.000,32.868,523.000C33.544,523.000,34.220,523.000,34.896,523.000C35.589,523.000,36.281,523.000,36.974,523.000C37.650,523.000,38.326,523.000,39.001,523.000C39.694,523.000,40.386,523.000,41.078,523.000C41.754,523.000,42.429,523.000,43.105,523.000C43.797,523.000,44.489,523.000,45.180,523.000C45.856,523.000,46.531,523.000,47.206,523.000C47.898,523.000,48.589,523.000,49.281,523.000C49.956,523.000,50.631,523.000,51.306,523.000C51.997,523.000,52.688,523.000,53.380,523.000C54.054,523.000,54.729,523.000,55.404,523.000C56.095,523.000,56.786,523.000,57.476,523.000C58.151,523.000,58.825,523.000,59.500,523.000C60.190,523.000,60.881,523.000,61.572,523.000C62.246,523.000,62.920,523.000,63.594,523.000C64.284,523.000,64.975,523.000,65.665,523.000C66.339,523.000,67.013,523.000,67.686,523.000C68.376,523.000,69.067,523.000,69.757,523.000C70.430,523.000,71.104,523.000,71.777,523.000C72.467,523.000,73.157,523.000,73.846,523.000C74.520,523.000,75.193,523.000,75.866,523.000C76.556,523.000,77.245,523.000,77.935,523.000C78.608,523.000,79.281,523.000,79.953,523.000C80.643,523.000,81.332,523.000,82.021,523.000C82.694,523.000,83.367,523.000,84.039,523.000C84.728,523.000,85.417,523.000,86.106,523.000C86.778,523.000,87.451,523.000,88.123,523.000C88.812,523.000,89.500,523.000,90.189,523.000" style="fill: rgb(255, 255, 255);"/></g></g><g id="shape-2ea5408f-294c-8069-8006-32d957d5aaf9"><g class="fills" id="fills-2ea5408f-294c-8069-8006-32d957d5aaf9"><path d="M192.517,96.922C206.975,103.384,206.975,103.384,218.389,119.347C226.385,143.313,224.893,158.057,219.150,182.442C217.141,184.449,215.132,186.456,213.063,188.523C214.078,234.169,236.552,279.713,264.497,315.306C275.190,324.604,275.190,324.604,297.907,323.454C314.554,324.866,320.439,325.819,331.436,338.705C340.840,356.510,347.762,369.620,345.632,390.041C340.900,401.372,340.900,401.372,322.638,413.535C299.999,416.861,278.322,416.791,255.675,413.535C237.793,400.232,237.793,400.232,225.238,383.128C219.576,376.425,219.576,376.425,213.800,369.587C199.137,350.434,187.690,330.305,176.538,309.011C174.423,304.981,172.308,300.950,170.129,296.798C119.273,198.644,119.273,198.644,127.837,145.953C140.104,116.286,159.323,97.712,192.517,96.922ZZ" style="fill: rgb(3, 3, 3);"/></g></g></g></svg>