<svg width="229" xmlns="http://www.w3.org/2000/svg" height="61" id="screenshot-07a2b869-ff1e-80d3-8006-223696d69681" viewBox="0 0 229 61" xmlns:xlink="http://www.w3.org/1999/xlink" fill="none" version="1.1"><style>/* latin-ext */
@font-face {
  font-family: 'Titillium Web';
  font-style: normal;
  font-weight: 400;
  font-display: block;
  src: url(https://design.penpot.app/internal/gfonts/font/titilliumweb/v17/NaPecZTIAOhVxoMyOr9n_E7fdM3mDbRS.woff2) format('woff2');
  unicode-range: U+0100-02BA, U+02BD-02C5, U+02C7-02CC, U+02CE-02D7, U+02DD-02FF, U+0304, U+0308, U+0329, U+1D00-1DBF, U+1E00-1E9F, U+1EF2-1EFF, U+2020, U+20A0-20AB, U+20AD-20C0, U+2113, U+2C60-2C7F, U+A720-A7FF;
}
/* latin */
@font-face {
  font-family: 'Titillium Web';
  font-style: normal;
  font-weight: 400;
  font-display: block;
  src: url(https://design.penpot.app/internal/gfonts/font/titilliumweb/v17/NaPecZTIAOhVxoMyOr9n_E7fdMPmDQ.woff2) format('woff2');
  unicode-range: U+0000-00FF, U+0131, U+0152-0153, U+02BB-02BC, U+02C6, U+02DA, U+02DC, U+0304, U+0308, U+0329, U+2000-206F, U+20AC, U+2122, U+2191, U+2193, U+2212, U+2215, U+FEFF, U+FFFD;
}
</style><g id="shape-07a2b869-ff1e-80d3-8006-223696d69681" rx="0" ry="0"><g id="shape-07a2b869-ff1e-80d3-8006-2235ca51e947" class="frame-container-wrapper" rx="0" ry="0" style="fill: rgb(0, 0, 0);"><g id="shape-07a2b869-ff1e-80d3-8006-2235ca51e948" class="frame-container-blur" rx="0" ry="0" style="fill: rgb(0, 0, 0);"><g id="shape-07a2b869-ff1e-80d3-8006-2235ca51e949" class="frame-container-shadows" rx="0" ry="0" style="fill: rgb(0, 0, 0);"><g id="shape-07a2b869-ff1e-80d3-8006-2235ca51e94a" class="fills" rx="0" ry="0" style="fill: rgb(0, 0, 0);"><g id="shape-07a2b869-ff1e-80d3-8006-2235ca51e94c"><g class="fills" id="fills-07a2b869-ff1e-80d3-8006-2235ca51e94c"><rect width="229" height="56.628000000000156" class="frame-background" x="0" transform="matrix(1.000000, 0.000000, 0.000000, 1.000000, 0.000000, 0.000000)" style="fill: none;" ry="0" fill="none" rx="0" y="0"/></g></g></g><g id="shape-07a2b869-ff1e-80d3-8006-2235ca51e94b" class="frame-children" rx="0" ry="0" style="fill: rgb(0, 0, 0);"><g id="shape-07a2b869-ff1e-80d3-8006-2235ca51e94d" rx="0" ry="0" style="fill: rgb(0, 0, 0);"><g id="shape-07a2b869-ff1e-80d3-8006-2235ca51e94e" rx="0" ry="0" style="fill: rgb(0, 0, 0);"><g id="shape-07a2b869-ff1e-80d3-8006-2235ca52168d"><g class="fills" id="fills-07a2b869-ff1e-80d3-8006-2235ca52168d"><path d="M72.795,0.750C72.125,1.207,71.262,1.787,70.875,2.036C70.041,2.589,61.794,8.079,53.740,13.458C50.510,15.615,46.997,17.952,45.925,18.657C44.868,19.376,42.486,20.952,40.640,22.183C38.794,23.414,36.755,24.783,36.085,25.211C35.430,25.654,34.805,26.110,34.715,26.221C34.581,26.359,34.537,26.801,34.567,27.548L34.611,28.668L35.504,28.087C35.996,27.769,37.767,26.608,39.449,25.502C41.132,24.409,43.647,22.750,45.032,21.837C46.431,20.925,48.352,19.666,49.319,19.016L51.076,17.855L52.594,18.007C53.413,18.090,54.113,18.173,54.128,18.201C54.172,18.228,53.279,18.823,49.721,21.132C48.530,21.906,46.967,22.930,46.223,23.414C45.493,23.898,43.930,24.921,42.754,25.668C41.444,26.525,40.655,27.119,40.700,27.230C40.774,27.396,43.900,31.627,52.847,43.630L56.628,48.718L63.566,48.704C69.654,48.691,70.369,48.677,69.446,48.511C64.831,47.736,61.020,44.943,58.861,40.767C57.090,37.338,56.762,33.660,57.834,29.498C58.534,26.788,60.618,23.510,62.687,21.879C64.518,20.427,66.275,19.542,68.270,19.058C71.024,18.394,73.867,18.477,76.502,19.307C78.750,20.012,81.355,21.879,82.754,23.801C84.511,26.207,85.598,29.512,85.598,32.415L85.598,33.370L72.393,33.370L59.204,33.370L59.293,34.987C59.680,42.012,63.521,46.934,69.297,47.833C71.039,48.110,74.299,48.041,75.981,47.695C78.839,47.100,81.162,45.358,82.784,42.565L83.395,41.514L84.094,41.887C85.121,42.440,85.106,42.413,84.496,43.242C83.662,44.362,81.817,45.939,80.462,46.672C79.092,47.418,76.755,48.179,74.879,48.483C73.674,48.677,73.942,48.691,81.028,48.704L88.426,48.718L88.426,28.834L88.426,8.936L84.600,6.530C78.408,2.645,74.373,0.114,74.195,0.004C74.105,-0.038,73.480,0.294,72.795,0.750ZZZ" class="fills" style="fill: rgb(243, 240, 240); fill-opacity: 1;"/></g></g></g><g id="shape-07a2b869-ff1e-80d3-8006-2235ca51e94f" rx="0" ry="0" style="fill: rgb(0, 0, 0);"><g id="shape-07a2b869-ff1e-80d3-8006-2235ca52168e"><g class="fills" id="fills-07a2b869-ff1e-80d3-8006-2235ca52168e"><path d="M0.104,8.991C0.045,9.033,0.000,17.993,0.000,28.903L0.000,48.718L10.093,48.691C20.052,48.649,20.171,48.649,20.171,48.372C20.171,48.096,20.052,48.096,11.135,48.054L2.084,48.027L2.084,28.461L2.084,8.895L1.146,8.895C0.625,8.895,0.149,8.936,0.104,8.991ZZZ" class="fills" style="fill: rgb(243, 240, 240); fill-opacity: 1;"/></g></g></g><g id="shape-07a2b869-ff1e-80d3-8006-2235ca51e950" rx="0" ry="0" style="fill: rgb(0, 0, 0);"><g id="shape-07a2b869-ff1e-80d3-8006-2235ca52168f"><g class="fills" id="fills-07a2b869-ff1e-80d3-8006-2235ca52168f"><path d="M30.517,28.806L30.517,48.718L31.560,48.718L32.602,48.718L32.602,40.283L32.602,31.848L34.358,30.645C35.311,29.996,36.487,29.180,36.978,28.848C38.005,28.129,37.782,28.004,39.330,30.120C40.506,31.724,53.011,48.621,53.071,48.691C53.085,48.718,53.651,48.718,54.336,48.691L55.557,48.649L51.046,42.565C48.575,39.219,45.017,34.407,43.141,31.876C41.266,29.332,39.717,27.216,39.702,27.147C39.673,27.050,41.772,25.557,44.957,23.414C48.634,20.939,51.954,18.629,51.954,18.546C51.954,18.491,51.731,18.436,51.478,18.436C51.091,18.436,50.510,18.768,48.753,19.998C47.518,20.842,45.181,22.446,43.558,23.552C37.976,27.341,34.909,29.429,33.867,30.148C33.286,30.549,32.780,30.867,32.721,30.881C32.646,30.881,32.602,25.930,32.602,19.888L32.602,8.895L31.560,8.895L30.517,8.895L30.517,28.806ZZZ" class="fills" style="fill: rgb(243, 240, 240); fill-opacity: 1;"/></g></g></g><g id="shape-07a2b869-ff1e-80d3-8006-2235ca51e951" rx="0" ry="0" style="fill: rgb(0, 0, 0);"><g id="shape-07a2b869-ff1e-80d3-8006-2235ca521690"><g class="fills" id="fills-07a2b869-ff1e-80d3-8006-2235ca521690"><path d="M115.326,8.991C115.267,9.033,115.222,14.384,115.222,20.883L115.222,32.678L103.238,32.678L91.255,32.678L91.255,21.630L91.255,10.582L90.332,9.807C89.811,9.379,89.349,9.033,89.290,9.033C89.215,9.033,89.171,17.966,89.171,28.876L89.171,48.718L90.213,48.718L91.255,48.718L91.255,41.044L91.255,33.370L103.238,33.370L115.222,33.370L115.222,41.044L115.222,48.718L116.264,48.718L117.306,48.718L117.306,28.806L117.306,8.895L116.368,8.895C115.847,8.895,115.371,8.936,115.326,8.991ZZZ" class="fills" style="fill: rgb(243, 240, 240); fill-opacity: 1;"/></g></g></g><g id="shape-07a2b869-ff1e-80d3-8006-2235ca51e952" rx="0" ry="0" style="fill: rgb(0, 0, 0);"><g id="shape-07a2b869-ff1e-80d3-8006-2235ca521691"><g class="fills" id="fills-07a2b869-ff1e-80d3-8006-2235ca521691"><path d="M92.148,21.464L92.148,31.848L102.717,31.848L113.287,31.848L113.257,28.074L113.212,24.312L112.021,23.566C111.366,23.151,108.985,21.671,106.737,20.261C102.047,17.330,98.743,15.255,94.872,12.808L92.148,11.093L92.148,21.464ZZZ" class="fills" style="fill: rgb(243, 240, 240); fill-opacity: 1;"/></g></g></g><g id="shape-07a2b869-ff1e-80d3-8006-2235ca51e953" rx="0" ry="0" style="fill: rgb(0, 0, 0);"><g id="shape-07a2b869-ff1e-80d3-8006-2235ca521692"><g class="fills" id="fills-07a2b869-ff1e-80d3-8006-2235ca521692"><path d="M24.220,18.519C24.161,18.574,24.116,25.391,24.116,33.674L24.116,48.718L25.233,48.718L26.349,48.718L26.319,33.605L26.275,18.505L25.307,18.463C24.771,18.436,24.280,18.463,24.220,18.519ZZZ" class="fills" style="fill: rgb(243, 240, 240); fill-opacity: 1;"/></g></g></g><g id="shape-07a2b869-ff1e-80d3-8006-2235ca51e954" rx="0" ry="0" style="fill: rgb(0, 0, 0);"><g id="shape-07a2b869-ff1e-80d3-8006-2235ca521693"><g class="fills" id="fills-07a2b869-ff1e-80d3-8006-2235ca521693"><path d="M135.096,18.588C129.736,19.016,125.181,21.920,122.755,26.442C121.459,28.848,120.983,30.798,120.983,33.646C120.983,36.412,121.504,38.541,122.710,40.767C124.273,43.671,127.369,46.395,130.436,47.584C132.580,48.414,133.920,48.649,136.584,48.635C138.668,48.621,139.145,48.580,140.440,48.262C146.260,46.810,150.384,42.648,151.783,36.813C152.126,35.375,152.126,31.890,151.783,30.397C150.473,24.783,146.246,20.427,140.782,19.058C140.023,18.864,138.907,18.671,138.296,18.629C137.686,18.588,137.016,18.546,136.808,18.519C136.599,18.505,135.840,18.533,135.096,18.588ZZZM139.874,19.514C145.531,20.897,149.163,25.184,149.893,31.337C150.548,36.730,149.059,41.445,145.739,44.570C143.789,46.409,141.720,47.405,138.996,47.819C131.210,48.995,125.092,44.943,123.395,37.504C122.963,35.637,122.933,32.028,123.305,30.092C123.737,27.921,124.824,25.446,126.015,23.967C127.682,21.865,130.570,20.081,133.220,19.473C134.545,19.182,138.579,19.210,139.874,19.514ZZZ" class="fills" style="fill: rgb(243, 240, 240); fill-opacity: 1;"/></g></g></g><g id="shape-07a2b869-ff1e-80d3-8006-2235ca51e955" rx="0" ry="0" style="fill: rgb(0, 0, 0);"><g id="shape-07a2b869-ff1e-80d3-8006-2235ca521694"><g class="fills" id="fills-07a2b869-ff1e-80d3-8006-2235ca521694"><path d="M155.639,18.602C155.594,18.698,155.579,25.502,155.594,33.715L155.639,48.649L156.726,48.691L157.798,48.732L157.798,36.716L157.798,24.700L158.408,23.884C160.165,21.561,161.475,20.358,162.963,19.708C163.737,19.376,164.020,19.335,165.836,19.293C167.504,19.252,167.995,19.293,168.769,19.514C171.657,20.358,173.756,22.280,174.828,25.059L175.289,26.248L175.334,37.476L175.379,48.718L176.406,48.718L177.448,48.718L177.448,38.099C177.448,28.959,177.418,27.327,177.210,26.290L176.971,25.073L178.058,23.676C179.651,21.616,181.035,20.344,182.301,19.791C183.254,19.376,183.462,19.335,185.129,19.293C187.258,19.224,188.196,19.390,189.551,20.026C191.516,20.939,192.841,22.142,193.793,23.911C194.820,25.792,194.776,25.211,194.820,37.545L194.880,48.718L195.922,48.718L196.964,48.718L196.919,37.615C196.860,25.253,196.919,25.958,195.788,23.828C195.371,23.040,194.940,22.515,193.972,21.616C191.843,19.639,189.551,18.754,186.231,18.615C184.370,18.533,183.373,18.657,181.988,19.141C181.259,19.390,180.857,19.653,179.830,20.634C179.130,21.284,178.133,22.363,177.612,23.026C177.091,23.704,176.659,24.243,176.629,24.243C176.614,24.243,176.346,23.856,176.019,23.372C173.994,20.316,170.392,18.574,166.074,18.574C164.437,18.574,162.621,18.961,161.743,19.500C160.939,19.998,159.510,21.340,158.572,22.501L157.798,23.441L157.768,20.980L157.723,18.505L156.711,18.463C155.996,18.436,155.684,18.477,155.639,18.602ZZZ" class="fills" style="fill: rgb(243, 240, 240); fill-opacity: 1;"/></g></g></g><g id="shape-07a2b869-ff1e-80d3-8006-2235ca51e956" rx="0" ry="0" style="fill: rgb(0, 0, 0);"><g id="shape-07a2b869-ff1e-80d3-8006-2235ca521695"><g class="fills" id="fills-07a2b869-ff1e-80d3-8006-2235ca521695"><path d="M212.789,18.781C211.032,19.072,210.035,19.390,208.635,20.109C203.961,22.487,201.013,27.050,200.522,32.609C200.016,38.486,202.666,43.699,207.772,46.796C212.893,49.907,221.304,49.133,226.008,45.137C226.782,44.473,228.360,42.703,228.360,42.468C228.360,42.385,226.812,41.528,226.648,41.528C226.618,41.528,226.365,41.915,226.112,42.385C224.370,45.607,221.899,47.294,218.207,47.806C211.568,48.718,206.938,46.699,204.333,41.763C203.261,39.716,202.606,37.034,202.606,34.669L202.606,33.370L215.796,33.370L229.000,33.370L228.896,32.014C228.628,28.765,227.690,26.013,226.097,23.842C224.787,22.086,222.331,20.219,220.321,19.459C218.237,18.671,215.096,18.394,212.789,18.781ZZZM218.297,19.542C221.988,20.413,224.281,22.612,225.740,26.663C226.142,27.756,226.618,30.148,226.782,31.807L226.871,32.678L214.739,32.678L202.606,32.678L202.606,32.291C202.606,31.655,203.023,29.290,203.350,28.087C203.708,26.815,204.690,24.769,205.449,23.732C207.087,21.519,209.454,20.026,212.193,19.473C213.652,19.182,216.927,19.210,218.297,19.542ZZZ" class="fills" style="fill: rgb(243, 240, 240); fill-opacity: 1;"/></g></g></g><g id="shape-07a2b869-ff1e-80d3-8006-2235ca51e957" rx="0" ry="0" style="fill: rgb(0, 0, 0);"><g id="shape-07a2b869-ff1e-80d3-8006-2235ca521696"><g class="fills" id="fills-07a2b869-ff1e-80d3-8006-2235ca521696"><path d="M70.860,19.279C68.835,19.376,67.942,19.583,66.335,20.316C64.474,21.174,63.208,22.211,62.137,23.773C60.573,26.041,59.665,28.599,59.412,31.461L59.308,32.678L71.470,32.678L83.633,32.678L83.558,32.014C83.216,28.322,82.174,25.073,80.685,23.068C79.881,21.989,78.675,20.994,77.455,20.399C75.252,19.348,73.971,19.141,70.860,19.279ZZZ" class="fills" style="fill: rgb(243, 240, 240); fill-opacity: 1;"/></g></g></g><g id="shape-07a2b869-ff1e-80d3-8006-2235ca52168b" rx="0" ry="0" style="fill: rgb(0, 0, 0);"><g id="shape-07a2b869-ff1e-80d3-8006-2235ca521697"><g class="fills" id="fills-07a2b869-ff1e-80d3-8006-2235ca521697"><path d="M35.996,30.231L34.537,31.212L34.537,39.965L34.537,48.718L43.335,48.718C50.317,48.718,52.103,48.677,52.014,48.538C51.895,48.372,49.423,45.012,41.474,34.227C39.435,31.475,37.693,29.221,37.603,29.235C37.514,29.235,36.785,29.691,35.996,30.231ZZZ" class="fills" style="fill: rgb(243, 240, 240); fill-opacity: 1;"/></g></g></g><g id="shape-07a2b869-ff1e-80d3-8006-2235ca52168c" rx="0" ry="0" style="fill: rgb(0, 0, 0);"><g id="shape-07a2b869-ff1e-80d3-8006-2235ca521698"><g class="fills" id="fills-07a2b869-ff1e-80d3-8006-2235ca521698"><path d="M92.148,41.320L92.148,48.718L102.717,48.718L113.287,48.718L113.287,41.320L113.287,33.923L102.717,33.923L92.148,33.923L92.148,41.320ZZZ" class="fills" style="fill: rgb(243, 240, 240); fill-opacity: 1;"/></g></g></g></g></g></g></g></g><g id="shape-07a2b869-ff1e-80d3-8006-2236442a17a2"><g transform="matrix(1.000000, 0.000000, 0.000000, 1.000000, 0.000000, 0.000000)" class="text-container" x="31" y="54" width="90" height="7" rx="0" ry="0"><defs><pattern patternUnits="userSpaceOnUse" x="31" y="54" width="89.890625" height="8" id="fill-0-render-33-0"><g><rect width="89.890625" height="8" style="fill: rgb(243, 240, 240); fill-opacity: 1;"/></g></pattern></defs><g class="fills" id="fills-07a2b869-ff1e-80d3-8006-2236442a17a2"><text x="31" y="61" dominant-baseline="ideographic" textLength="89.890625" lengthAdjust="spacingAndGlyphs" style="text-transform: none; font-family: &quot;Titillium Web&quot;; letter-spacing: 1px; font-style: normal; font-weight: 400; white-space: pre; font-size: 5.7px; text-decoration: none solid rgb(243, 240, 240); direction: ltr; fill: rgb(243, 240, 240); fill-opacity: 1;">GESTÃO DE PROPRIEDADES</text></g></g></g></g></svg>